SplineFontDB: 3.0
FontName: Hirmos
FullName: Hirmos
FamilyName: Hirmos
Weight: Book
Copyright: Copyright (c) Vladislav V. Dorosh, Calmius Software, 2007-2008. All rights reserved.\n\nCopyright (c) Pavel A. Skrylev, 2009. All rights reserved.
Version: 2009.04.01
ItalicAngle: 0
UnderlinePosition: -39
UnderlineWidth: 7
Ascent: 800
Descent: 200
LayerCount: 2
Layer: 0 1 "Back"  1
Layer: 1 1 "Fore"  0
NeedsXUIDChange: 1
XUID: [1021 325 494226042 4713430]
FSType: 0
OS2Version: 2
OS2_WeightWidthSlopeOnly: 0
OS2_UseTypoMetrics: 1
CreationTime: 1187031600
ModificationTime: 1241162230
PfmFamily: 17
TTFWeight: 400
TTFWidth: 5
LineGap: 23
VLineGap: 0
Panose: 2 0 5 0 9 0 0 2 0 3
OS2TypoAscent: 155
OS2TypoAOffset: 1
OS2TypoDescent: -260
OS2TypoDOffset: 1
OS2TypoLinegap: 45
OS2WinAscent: 0
OS2WinAOffset: 1
OS2WinDescent: 0
OS2WinDOffset: 1
HheadAscent: 0
HheadAOffset: 1
HheadDescent: 0
HheadDOffset: 1
OS2SubXSize: 203
OS2SubYSize: 203
OS2SubXOff: 0
OS2SubYOff: 286
OS2SupXSize: 203
OS2SupYSize: 203
OS2SupXOff: 0
OS2SupYOff: 286
OS2StrikeYSize: 50
OS2StrikeYPos: 250
OS2Vendor: 'calm'
OS2CodePages: 00000005.00000000
OS2UnicodeRanges: 80000203.0000004a.00000000.00000000
Lookup: 258 0 0 "'kern' Horizontal Kerning lookup 0"  {"'kern' Horizontal Kerning lookup 0 subtable"  } ['kern' ('DFLT' <'dflt' > 'cyrl' <'dflt' > 'latn' <'dflt' > ) ]
DEI: 91125
TtTable: prep
PUSHW_1
 0
CALL
SVTCA[y-axis]
PUSHW_3
 1
 1
 2
CALL
SVTCA[x-axis]
PUSHW_3
 2
 1
 2
CALL
SVTCA[x-axis]
PUSHW_7
 2
 46
 38
 30
 21
 13
 8
CALL
SVTCA[y-axis]
PUSHW_7
 1
 230
 188
 146
 105
 63
 8
CALL
SVTCA[y-axis]
PUSHW_3
 3
 2
 7
CALL
PUSHW_1
 0
DUP
RCVT
RDTG
ROUND[Black]
RTG
WCVTP
EndTTInstrs
TtTable: fpgm
PUSHW_1
 0
FDEF
MPPEM
PUSHW_1
 0
LT
IF
PUSHB_2
 1
 1
INSTCTRL
EIF
PUSHW_1
 511
SCANCTRL
PUSHW_1
 68
SCVTCI
PUSHW_2
 0
 3
SDS
SDB
ENDF
PUSHW_1
 1
FDEF
DUP
DUP
RCVT
ROUND[Black]
WCVTP
PUSHB_1
 1
ADD
ENDF
PUSHW_1
 2
FDEF
PUSHW_1
 1
LOOPCALL
POP
ENDF
PUSHW_1
 3
FDEF
DUP
GC[cur]
PUSHB_1
 3
CINDEX
GC[cur]
GT
IF
SWAP
EIF
DUP
ROLL
DUP

StartChar: .notdef
Encoding: 65536 -1 0
Width: 427
Flags: W
LayerCount: 2
Fore
SplineSet
0 770 m 1,0,-1
 427 770 l 1,1,-1
 427 0 l 1,2,-1
 0 0 l 1,3,-1
 0 770 l 1,0,-1
29 748 m 1,4,-1
 213 398 l 1,5,-1
 398 748 l 1,6,-1
 29 748 l 1,4,-1
221 383 m 1,7,-1
 405 34 l 1,8,-1
 405 733 l 1,9,-1
 221 383 l 1,7,-1
398 19 m 1,10,-1
 213 369 l 1,11,-1
 29 19 l 1,12,-1
 398 19 l 1,10,-1
22 733 m 1,13,-1
 22 34 l 1,14,-1
 206 383 l 1,15,-1
 22 733 l 1,13,-1
EndSplineSet
Validated: 1
EndChar

StartChar: .null
Encoding: 65537 -1 1
Width: 427
Flags: W
LayerCount: 2
Fore
SplineSet
0 770 m 1,0,-1
 427 770 l 1,1,-1
 427 0 l 1,2,-1
 0 0 l 1,3,-1
 0 770 l 1,0,-1
29 748 m 1,4,-1
 213 398 l 1,5,-1
 398 748 l 1,6,-1
 29 748 l 1,4,-1
221 383 m 1,7,-1
 405 34 l 1,8,-1
 405 733 l 1,9,-1
 221 383 l 1,7,-1
398 19 m 1,10,-1
 213 369 l 1,11,-1
 29 19 l 1,12,-1
 398 19 l 1,10,-1
22 733 m 1,13,-1
 22 34 l 1,14,-1
 206 383 l 1,15,-1
 22 733 l 1,13,-1
EndSplineSet
Validated: 1
EndChar

StartChar: period
Encoding: 46 46 4
Width: 216
Flags: W
LayerCount: 2
Fore
SplineSet
105 124 m 256,0,1
 134 124 134 124 155 103 c 128,-1,2
 176 82 176 82 176 53 c 256,3,4
 176 24 176 24 155 3 c 128,-1,5
 134 -18 134 -18 105 -18 c 256,6,7
 76 -18 76 -18 55 3 c 128,-1,8
 34 24 34 24 34 53 c 256,9,10
 34 82 34 82 55 103 c 128,-1,11
 76 124 76 124 105 124 c 256,0,1
EndSplineSet
Validated: 1
EndChar

StartChar: slash
Encoding: 47 47 5
Width: 405
Flags: W
LayerCount: 2
Fore
SplineSet
6 -353 m 1,0,-1
 -53 -353 l 1,1,-1
 362 939 l 1,2,-1
 421 939 l 1,3,-1
 6 -353 l 1,0,-1
EndSplineSet
Validated: 1
EndChar

StartChar: colon
Encoding: 58 58 6
Width: 276
Flags: W
LayerCount: 2
Fore
SplineSet
142 -12 m 2,0,1
 138 -17 138 -17 134 -12 c 2,2,-1
 66 68 l 2,3,4
 62 73 62 73 66 77 c 2,5,-1
 134 156 l 2,6,7
 138 160 138 160 142 156 c 2,8,-1
 213 77 l 2,9,10
 216 73 216 73 213 70 c 2,11,-1
 142 -12 l 2,0,1
142 254 m 2,12,13
 138 249 138 249 134 254 c 2,14,-1
 66 334 l 2,15,16
 62 339 62 339 66 343 c 2,17,-1
 134 422 l 2,18,19
 138 426 138 426 142 422 c 2,20,-1
 213 343 l 2,21,22
 216 339 216 339 213 336 c 2,23,-1
 142 254 l 2,12,13
EndSplineSet
Validated: 1
EndChar

StartChar: semicolon
Encoding: 59 59 7
Width: 297
Flags: W
LayerCount: 2
Fore
SplineSet
33.3633 22 m 0,0,1
 39.3633 44 39.3633 44 51.8633 66.5 c 128,-1,2
 64.3633 89 64.3633 89 82.3633 107 c 128,-1,3
 100.363 125 100.363 125 121.863 136 c 128,-1,4
 143.363 147 143.363 147 167.363 147 c 0,5,6
 187.363 147 187.363 147 201.863 137 c 128,-1,7
 216.363 127 216.363 127 225.363 111.5 c 128,-1,8
 234.363 96 234.363 96 238.863 76 c 128,-1,9
 243.363 56 243.363 56 243.363 37 c 0,10,11
 243.363 6 243.363 6 233.363 -24.5 c 128,-1,12
 223.363 -55 223.363 -55 206.863 -81 c 128,-1,13
 190.363 -107 190.363 -107 169.363 -127.5 c 128,-1,14
 148.363 -148 148.363 -148 125.363 -159 c 0,15,16
 114.363 -164 114.363 -164 110.863 -159.5 c 128,-1,17
 107.363 -155 107.363 -155 112.363 -150 c 0,18,19
 135.363 -125 135.363 -125 150.863 -87 c 128,-1,20
 166.363 -49 166.363 -49 166.363 -16 c 0,21,22
 166.363 -1 166.363 -1 162.863 11.5 c 128,-1,23
 159.363 24 159.363 24 150.363 32 c 0,24,25
 138.363 43 138.363 43 120.363 43 c 0,26,27
 103.363 43 103.363 43 85.8633 33.5 c 128,-1,28
 68.3633 24 68.3633 24 54.3633 11 c 0,29,30
 49.3633 6 49.3633 6 40.3633 10 c 128,-1,31
 31.3633 14 31.3633 14 33.3633 22 c 0,0,1
132.363 359 m 256,32,33
 161.363 359 161.363 359 181.863 338.5 c 128,-1,34
 202.363 318 202.363 318 202.363 289 c 256,35,36
 202.363 260 202.363 260 181.863 239.5 c 128,-1,37
 161.363 219 161.363 219 132.363 219 c 256,38,39
 103.363 219 103.363 219 82.8633 239.5 c 128,-1,40
 62.3633 260 62.3633 260 62.3633 289 c 256,41,42
 62.3633 318 62.3633 318 82.8633 338.5 c 128,-1,43
 103.363 359 103.363 359 132.363 359 c 256,32,33
EndSplineSet
Validated: 33
EndChar

StartChar: bracketleft
Encoding: 91 91 8
Width: 297
Flags: W
LayerCount: 2
Fore
SplineSet
67 -362 m 1,0,-1
 67 832 l 1,1,-1
 278 832 l 1,2,-1
 278 812 l 1,3,-1
 128 812 l 1,4,-1
 128 -342 l 1,5,-1
 278 -342 l 1,6,-1
 278 -362 l 1,7,-1
 67 -362 l 1,0,-1
EndSplineSet
Validated: 1
EndChar

StartChar: bracketright
Encoding: 93 93 9
Width: 297
Flags: W
LayerCount: 2
Fore
SplineSet
19 -362 m 1,0,-1
 19 -342 l 1,1,-1
 169 -342 l 1,2,-1
 169 812 l 1,3,-1
 19 812 l 1,4,-1
 19 832 l 1,5,-1
 230 832 l 1,6,-1
 230 -362 l 1,7,-1
 19 -362 l 1,0,-1
EndSplineSet
Validated: 1
EndChar

StartChar: quotesinglbase
Encoding: 8218 8218 10
Width: 199
Flags: W
LayerCount: 2
Fore
SplineSet
168.728 -43 m 0,0,1
 161.728 -62 161.728 -62 149.728 -79 c 128,-1,2
 137.728 -96 137.728 -96 123.728 -110.5 c 128,-1,3
 109.728 -125 109.728 -125 94.7275 -137 c 128,-1,4
 79.7275 -149 79.7275 -149 65.7275 -158 c 1,5,6
 62.7275 -161 62.7275 -161 60.2275 -158 c 128,-1,7
 57.7275 -155 57.7275 -155 62.7275 -147 c 0,8,9
 88.7275 -115 88.7275 -115 107.728 -79.5 c 128,-1,10
 126.728 -44 126.728 -44 126.728 -12 c 0,11,12
 126.728 15 126.728 15 110.728 35 c 0,13,14
 103.728 44 103.728 44 91.7275 45.5 c 128,-1,15
 79.7275 47 79.7275 47 66.2275 42.5 c 128,-1,16
 52.7275 38 52.7275 38 39.7275 29 c 128,-1,17
 26.7275 20 26.7275 20 17.7275 8 c 0,18,19
 13.7275 3 13.7275 3 10.2275 5.5 c 128,-1,20
 6.72754 8 6.72754 8 8.72754 13 c 0,21,22
 18.7275 37 18.7275 37 35.2275 59.5 c 128,-1,23
 51.7275 82 51.7275 82 69.7275 97.5 c 128,-1,24
 87.7275 113 87.7275 113 106.728 119.5 c 128,-1,25
 125.728 126 125.728 126 140.728 120 c 0,26,27
 160.728 111 160.728 111 171.228 86 c 128,-1,28
 181.728 61 181.728 61 181.728 29 c 0,29,30
 181.728 -8 181.728 -8 168.728 -43 c 0,0,1
EndSplineSet
Validated: 33
EndChar

StartChar: quotedblbase
Encoding: 8222 8222 11
Width: 393
Flags: W
LayerCount: 2
Fore
SplineSet
360.728 -43 m 0,0,1
 353.728 -62 353.728 -62 341.728 -79 c 128,-1,2
 329.728 -96 329.728 -96 315.728 -110.5 c 128,-1,3
 301.728 -125 301.728 -125 286.728 -137 c 128,-1,4
 271.728 -149 271.728 -149 257.728 -158 c 1,5,6
 254.728 -161 254.728 -161 251.728 -158 c 128,-1,7
 248.728 -155 248.728 -155 254.728 -148 c 0,8,9
 280.728 -115 280.728 -115 299.728 -79.5 c 128,-1,10
 318.728 -44 318.728 -44 318.728 -12 c 0,11,12
 318.728 15 318.728 15 302.728 35 c 0,13,14
 295.728 44 295.728 44 283.728 45.5 c 128,-1,15
 271.728 47 271.728 47 258.228 42.5 c 128,-1,16
 244.728 38 244.728 38 231.228 29 c 128,-1,17
 217.728 20 217.728 20 208.728 8 c 0,18,19
 205.728 3 205.728 3 201.728 5.5 c 128,-1,20
 197.728 8 197.728 8 200.728 13 c 1,21,22
 210.728 37 210.728 37 227.228 59.5 c 128,-1,23
 243.728 82 243.728 82 262.228 97.5 c 128,-1,24
 280.728 113 280.728 113 299.228 119.5 c 128,-1,25
 317.728 126 317.728 126 333.728 119 c 0,26,27
 353.728 111 353.728 111 363.728 86.5 c 128,-1,28
 373.728 62 373.728 62 373.728 30 c 0,29,30
 373.728 13 373.728 13 370.728 -6 c 128,-1,31
 367.728 -25 367.728 -25 360.728 -43 c 0,0,1
168.728 -43 m 0,32,33
 161.728 -62 161.728 -62 149.728 -79 c 128,-1,34
 137.728 -96 137.728 -96 123.728 -110.5 c 128,-1,35
 109.728 -125 109.728 -125 94.7275 -137 c 128,-1,36
 79.7275 -149 79.7275 -149 65.7275 -158 c 1,37,38
 62.7275 -161 62.7275 -161 60.2275 -158 c 128,-1,39
 57.7275 -155 57.7275 -155 62.7275 -147 c 0,40,41
 88.7275 -115 88.7275 -115 107.728 -79.5 c 128,-1,42
 126.728 -44 126.728 -44 126.728 -12 c 0,43,44
 126.728 15 126.728 15 110.728 35 c 0,45,46
 103.728 44 103.728 44 91.7275 45.5 c 128,-1,47
 79.7275 47 79.7275 47 66.2275 42.5 c 128,-1,48
 52.7275 38 52.7275 38 39.7275 29 c 128,-1,49
 26.7275 20 26.7275 20 17.7275 8 c 0,50,51
 13.7275 3 13.7275 3 10.2275 5.5 c 128,-1,52
 6.72754 8 6.72754 8 8.72754 13 c 0,53,54
 18.7275 37 18.7275 37 35.2275 59.5 c 128,-1,55
 51.7275 82 51.7275 82 69.7275 97.5 c 128,-1,56
 87.7275 113 87.7275 113 106.728 119.5 c 128,-1,57
 125.728 126 125.728 126 140.728 120 c 0,58,59
 160.728 111 160.728 111 171.228 86 c 128,-1,60
 181.728 61 181.728 61 181.728 29 c 0,61,62
 181.728 -8 181.728 -8 168.728 -43 c 0,32,33
EndSplineSet
Validated: 33
EndChar

StartChar: quoteleft
Encoding: 8216 8216 12
Width: 205
Flags: W
LayerCount: 2
Fore
SplineSet
191 666 m 1,0,1
 180 642 180 642 164 620 c 128,-1,2
 148 598 148 598 129.5 582.5 c 128,-1,3
 111 567 111 567 92.5 560.5 c 128,-1,4
 74 554 74 554 58 560 c 0,5,6
 38 568 38 568 28 591.5 c 128,-1,7
 18 615 18 615 18 647 c 0,8,9
 18 665 18 665 21 684 c 128,-1,10
 24 703 24 703 32 722 c 0,11,12
 39 741 39 741 50.5 758.5 c 128,-1,13
 62 776 62 776 76 790.5 c 128,-1,14
 90 805 90 805 104.5 817 c 128,-1,15
 119 829 119 829 133 837 c 0,16,17
 137 840 137 840 140 837.5 c 128,-1,18
 143 835 143 835 138 828 c 0,19,20
 112 794 112 794 93 759 c 128,-1,21
 74 724 74 724 74 692 c 0,22,23
 74 665 74 665 90 645 c 0,24,25
 97 636 97 636 108.5 634.5 c 128,-1,26
 120 633 120 633 133.5 637 c 128,-1,27
 147 641 147 641 160.5 649.5 c 128,-1,28
 174 658 174 658 183 670 c 0,29,30
 187 675 187 675 191 673 c 128,-1,31
 195 671 195 671 191 666 c 1,0,1
EndSplineSet
Validated: 33
EndChar

StartChar: quoteright
Encoding: 8217 8217 13
Width: 199
Flags: W
LayerCount: 2
Fore
SplineSet
172.2 567 m 4,0,1
 157.2 529 157.2 529 127.2 499 c 132,-1,2
 97.2002 469 97.2002 469 70.2002 453 c 4,3,4
 67.2002 451 67.2002 451 63.7002 453 c 132,-1,5
 60.2002 455 60.2002 455 67.2002 463 c 4,6,7
 93.2002 497 93.2002 497 111.7 531.5 c 132,-1,8
 130.2 566 130.2 566 130.2 598 c 4,9,10
 130.2 626 130.2 626 114.2 646 c 4,11,12
 107.2 654 107.2 654 95.2002 655.5 c 132,-1,13
 83.2002 657 83.2002 657 69.7002 653 c 132,-1,14
 56.2002 649 56.2002 649 43.2002 640 c 132,-1,15
 30.2002 631 30.2002 631 21.2002 619 c 4,16,17
 18.2002 614 18.2002 614 13.7002 616.5 c 132,-1,18
 9.2002 619 9.2002 619 12.2002 625 c 4,19,20
 23.2002 649 23.2002 649 39.7002 671 c 132,-1,21
 56.2002 693 56.2002 693 74.2002 708 c 132,-1,22
 92.2002 723 92.2002 723 111.2 729.5 c 132,-1,23
 130.2 736 130.2 736 145.2 730 c 4,24,25
 165.2 721 165.2 721 175.7 697 c 132,-1,26
 186.2 673 186.2 673 186.2 641 c 4,27,28
 186.2 606 186.2 606 172.2 567 c 4,0,1
EndSplineSet
Validated: 33
EndChar

StartChar: quotedblleft
Encoding: 8220 8220 14
Width: 392
Flags: W
LayerCount: 2
Fore
SplineSet
391 666 m 0,0,1
 380 642 380 642 364 620 c 128,-1,2
 348 598 348 598 329.5 582.5 c 128,-1,3
 311 567 311 567 292.5 560.5 c 128,-1,4
 274 554 274 554 258 560 c 0,5,6
 238 568 238 568 227.5 593 c 128,-1,7
 217 618 217 618 217 650 c 0,8,9
 217 687 217 687 230 722 c 0,10,11
 237 741 237 741 249 758.5 c 128,-1,12
 261 776 261 776 275 790.5 c 128,-1,13
 289 805 289 805 304 817 c 128,-1,14
 319 829 319 829 333 837 c 0,15,16
 337 840 337 840 339.5 837.5 c 128,-1,17
 342 835 342 835 336 828 c 0,18,19
 310 794 310 794 291 759.5 c 128,-1,20
 272 725 272 725 272 693 c 0,21,22
 272 665 272 665 289 645 c 0,23,24
 296 636 296 636 308 634.5 c 128,-1,25
 320 633 320 633 333.5 637 c 128,-1,26
 347 641 347 641 360 649.5 c 128,-1,27
 373 658 373 658 382 670 c 0,28,29
 386 675 386 675 389.5 673 c 128,-1,30
 393 671 393 671 391 666 c 0,0,1
185 666 m 1,31,32
 174 642 174 642 158 620 c 128,-1,33
 142 598 142 598 123.5 582.5 c 128,-1,34
 105 567 105 567 86.5 560.5 c 128,-1,35
 68 554 68 554 53 560 c 0,36,37
 33 568 33 568 22.5 592 c 128,-1,38
 12 616 12 616 12 648 c 0,39,40
 12 683 12 683 26 722 c 0,41,42
 33 741 33 741 44.5 758.5 c 128,-1,43
 56 776 56 776 70 790.5 c 128,-1,44
 84 805 84 805 98.5 817 c 128,-1,45
 113 829 113 829 127 837 c 0,46,47
 131 840 131 840 134.5 837.5 c 128,-1,48
 138 835 138 835 132 828 c 0,49,50
 106 795 106 795 87 760 c 128,-1,51
 68 725 68 725 68 693 c 0,52,53
 68 665 68 665 85 645 c 0,54,55
 92 636 92 636 103.5 634.5 c 128,-1,56
 115 633 115 633 128.5 637 c 128,-1,57
 142 641 142 641 155 649.5 c 128,-1,58
 168 658 168 658 178 670 c 0,59,60
 182 675 182 675 185.5 673 c 128,-1,61
 189 671 189 671 185 666 c 1,31,32
EndSplineSet
Validated: 33
EndChar

StartChar: quotedblright
Encoding: 8221 8221 15
Width: 404
Flags: W
LayerCount: 2
Fore
SplineSet
378 567 m 0,0,1
 363 529 363 529 333 499 c 0,2,3
 309 475 309 475 276 453 c 0,4,5
 272 451 272 451 269 453 c 128,-1,6
 266 455 266 455 272 463 c 0,7,8
 297 496 297 496 317 531 c 0,9,10
 336 565 336 565 336 598 c 0,11,12
 336 623 336 623 319 646 c 0,13,14
 312 655 312 655 300 656 c 0,15,16
 289 657 289 657 275 653 c 128,-1,17
 261 649 261 649 248 640 c 0,18,19
 236 632 236 632 226 619 c 0,20,21
 222 613 222 613 218 616 c 128,-1,22
 214 619 214 619 218 625 c 1,23,24
 227 646 227 646 245 671 c 0,25,26
 259 691 259 691 280 708 c 0,27,28
 299 724 299 724 317 730 c 128,-1,29
 335 736 335 736 350 730 c 0,30,31
 370 722 370 722 381 697 c 0,32,33
 392.349 659 392.349 659 392.2 641 c 0,34,35
 392 617 392 617 378 567 c 0,0,1
172.2 567 m 0,36,37
 157.2 529 157.2 529 127.2 499 c 128,-1,38
 97.2002 469 97.2002 469 70.2002 453 c 0,39,40
 67.2002 451 67.2002 451 63.7002 453 c 128,-1,41
 60.2002 455 60.2002 455 67.2002 463 c 0,42,43
 93.2002 497 93.2002 497 111.7 531.5 c 128,-1,44
 130.2 566 130.2 566 130.2 598 c 0,45,46
 130.2 626 130.2 626 114.2 646 c 0,47,48
 107.2 654 107.2 654 95.2002 655.5 c 128,-1,49
 83.2002 657 83.2002 657 69.7002 653 c 128,-1,50
 56.2002 649 56.2002 649 43.2002 640 c 128,-1,51
 30.2002 631 30.2002 631 21.2002 619 c 0,52,53
 18.2002 614 18.2002 614 13.7002 616.5 c 128,-1,54
 9.2002 619 9.2002 619 12.2002 625 c 0,55,56
 23.2002 649 23.2002 649 39.7002 671 c 128,-1,57
 56.2002 693 56.2002 693 74.2002 708 c 128,-1,58
 92.2002 723 92.2002 723 111.2 729.5 c 128,-1,59
 130.2 736 130.2 736 145.2 730 c 0,60,61
 165.2 721 165.2 721 175.7 697 c 128,-1,62
 186.2 673 186.2 673 186.2 641 c 0,63,64
 186.2 606 186.2 606 172.2 567 c 0,36,37
EndSplineSet
Validated: 33
EndChar

StartChar: endash
Encoding: 8211 8211 16
Width: 481
Flags: W
LayerCount: 2
Fore
SplineSet
35 190 m 1,0,-1
 35 244 l 1,1,-1
 448 244 l 1,2,-1
 448 190 l 1,3,-1
 35 190 l 1,0,-1
EndSplineSet
Validated: 1
EndChar

StartChar: emdash
Encoding: 8212 8212 17
Width: 641
Flags: W
LayerCount: 2
Fore
SplineSet
35 190 m 1,0,-1
 35 244 l 1,1,-1
 608 244 l 1,2,-1
 608 190 l 1,3,-1
 35 190 l 1,0,-1
EndSplineSet
Validated: 1
EndChar

StartChar: guillemotleft
Encoding: 171 171 18
Width: 480
Flags: W
LayerCount: 2
Fore
SplineSet
229 -5 m 1,0,-1
 48 218 l 1,1,-1
 229 437 l 1,2,-1
 255 437 l 1,3,-1
 141 218 l 1,4,-1
 255 -5 l 1,5,-1
 229 -5 l 1,0,-1
439 -5 m 1,6,-1
 255 218 l 1,7,-1
 439 437 l 1,8,-1
 467 437 l 1,9,-1
 354 218 l 1,10,-1
 467 -5 l 1,11,-1
 439 -5 l 1,6,-1
EndSplineSet
Validated: 1
EndChar

StartChar: logicalnot
Encoding: 172 172 19
Width: 399
Flags: W
LayerCount: 2
Fore
SplineSet
367 282 m 1,0,-1
 367 91 l 1,1,-1
 310 91 l 1,2,-1
 310 223 l 1,3,-1
 36 223 l 1,4,-1
 36 282 l 1,5,-1
 367 282 l 1,0,-1
EndSplineSet
Validated: 1
EndChar

StartChar: afii10056
Encoding: 1031 1031 20
Width: 310
Flags: W
VStem: 0.799805 257
LayerCount: 2
Fore
SplineSet
93.7998 746 m 1,0,-1
 93.7998 24 l 1,1,-1
 53.7998 24 l 1,2,-1
 53.7998 0 l 1,3,-1
 253.8 0 l 1,4,-1
 253.8 24 l 1,5,-1
 213.8 24 l 1,6,-1
 213.8 746 l 1,7,-1
 253.8 746 l 1,8,-1
 253.8 770 l 1,9,-1
 53.7998 770 l 1,10,-1
 53.7998 746 l 1,11,-1
 93.7998 746 l 1,0,-1
193.8 820 m 5,12,-1
 140.8 958 l 6,13,14
 138.8 962 138.8 962 141.8 965 c 132,-1,15
 144.8 968 144.8 968 148.8 968 c 6,16,-1
 215.8 968 l 5,17,-1
 257.8 828 l 6,18,19
 259.8 820 259.8 820 251.8 820 c 6,20,-1
 193.8 820 l 5,12,-1
53.7998 820 m 5,21,-1
 0.799805 958 l 6,22,23
 -1.2002 962 -1.2002 962 1.7998 965 c 132,-1,24
 4.7998 968 4.7998 968 8.7998 968 c 6,25,-1
 75.7998 968 l 5,26,-1
 117.8 828 l 6,27,28
 119.8 820 119.8 820 111.8 820 c 6,29,-1
 53.7998 820 l 5,21,-1
EndSplineSet
Validated: 41
EndChar

StartChar: afii10055
Encoding: 1030 1030 21
Width: 310
Flags: W
HStem: 0 24<55 95 215 255> 746 24<55 95 215 255>
VStem: 95 120<24 746>
LayerCount: 2
Fore
SplineSet
55 746 m 1,0,-1
 55 770 l 1,1,-1
 255 770 l 1,2,-1
 255 746 l 1,3,-1
 215 746 l 1,4,-1
 215 24 l 1,5,-1
 255 24 l 1,6,-1
 255 0 l 1,7,-1
 55 0 l 1,8,-1
 55 24 l 1,9,-1
 95 24 l 1,10,-1
 95 746 l 1,11,-1
 55 746 l 1,0,-1
EndSplineSet
Validated: 1
EndChar

StartChar: afii10103
Encoding: 1110 1110 22
Width: 255
Flags: W
HStem: -4 21G<124 138> 522 115<93.5012 161.75>
VStem: 70 105<0.816895 431.654> 74 108<-2.47632 274.173 528.283 632.655> 77 85<528.283 635.769> 81 101<197 436.774>
LayerCount: 2
Fore
SplineSet
182 0 m 5,0,1
 171 -2 171 -2 158 -3 c 132,-1,2
 145 -4 145 -4 131 -4 c 260,3,4
 117 -4 117 -4 102.5 -3 c 132,-1,5
 88 -2 88 -2 74 0 c 5,6,7
 72 26 72 26 71 66 c 132,-1,8
 70 106 70 106 70 152 c 4,9,10
 70 170 70 170 70 188 c 132,-1,11
 70 206 70 206 71 224 c 4,12,13
 72 286 72 286 75 338 c 132,-1,14
 78 390 78 390 81 433 c 5,15,16
 108 438 108 438 130.5 440.5 c 132,-1,17
 153 443 153 443 182 442 c 5,18,19
 181 422 181 422 180 393.5 c 132,-1,20
 179 365 179 365 178.5 332 c 132,-1,21
 178 299 178 299 177 264.5 c 132,-1,22
 176 230 176 230 175 197 c 6,23,-1
 175 162 l 6,24,25
 175 114 175 114 177.5 70 c 132,-1,26
 180 26 180 26 182 0 c 5,0,1
77 633 m 1,27,28
 89 635 89 635 101.5 636 c 128,-1,29
 114 637 114 637 126 637 c 0,30,31
 136 637 136 637 145 636.5 c 128,-1,32
 154 636 154 636 162 635 c 1,33,34
 165 626 165 626 168 611.5 c 128,-1,35
 171 597 171 597 173 581.5 c 128,-1,36
 175 566 175 566 176 551.5 c 128,-1,37
 177 537 177 537 178 528 c 1,38,39
 167 525 167 525 154.5 523.5 c 128,-1,40
 142 522 142 522 130 522 c 0,41,42
 109 522 109 522 93 526 c 1,43,44
 90 533 90 533 87.5 546.5 c 128,-1,45
 85 560 85 560 82.5 575.5 c 128,-1,46
 80 591 80 591 78.5 606.5 c 128,-1,47
 77 622 77 622 77 633 c 1,27,28
EndSplineSet
Validated: 33
EndChar

StartChar: paragraph
Encoding: 182 182 23
Width: 614
Flags: W
LayerCount: 2
Fore
SplineSet
235 352 m 1,0,1
 149 353 149 353 96 408 c 0,2,3
 47 461 47 461 35 526 c 0,4,5
 35 530 35 530 34.5 538.5 c 128,-1,6
 34 547 34 547 34 555 c 128,-1,7
 34 563 34 563 34 568 c 128,-1,8
 34 573 34 573 35 570 c 1,9,10
 36 604 36 604 49.5 635 c 128,-1,11
 63 666 63 666 89 695 c 0,12,13
 141 751 141 751 235 757 c 2,14,-1
 315 757 l 1,15,-1
 315 -277 l 1,16,-1
 235 -277 l 1,17,-1
 235 352 l 1,0,1
396 757 m 1,18,-1
 477 757 l 1,19,-1
 477 -277 l 1,20,-1
 396 -277 l 1,21,-1
 396 757 l 1,18,-1
EndSplineSet
Validated: 1
EndChar

StartChar: afii10101
Encoding: 1108 1108 24
Width: 602
Flags: W
HStem: 309 20<377.979 386> 343 20<525 541.225> 377 66<262.309 370.703>
VStem: 55 104<25.6961 223.392>
LayerCount: 2
Fore
SplineSet
533 363 m 2,0,1
 536 363 536 363 538 360.5 c 128,-1,2
 540 358 540 358 541 354 c 128,-1,3
 542 350 542 350 541.5 347 c 128,-1,4
 541 344 541 344 538 343 c 0,5,6
 523 340 523 340 502 335.5 c 128,-1,7
 481 331 481 331 459 326.5 c 128,-1,8
 437 322 437 322 418 317 c 128,-1,9
 399 312 399 312 387 309 c 0,10,11
 384 308 384 308 382 311 c 128,-1,12
 380 314 380 314 378.5 317.5 c 128,-1,13
 377 321 377 321 377.5 324.5 c 128,-1,14
 378 328 378 328 381 329 c 2,15,-1
 386 330 l 1,16,17
 382 344 382 344 373 353 c 128,-1,18
 364 362 364 362 352 367.5 c 128,-1,19
 340 373 340 373 326 375 c 128,-1,20
 312 377 312 377 299 377 c 0,21,22
 276 377 276 377 258 368 c 128,-1,23
 240 359 240 359 220 345 c 1,24,25
 184 297 184 297 171.5 241 c 128,-1,26
 159 185 159 185 159 115 c 0,27,28
 159 100 159 100 160 85.5 c 128,-1,29
 161 71 161 71 164 57 c 1,30,31
 192 76 192 76 224.5 98 c 128,-1,32
 257 120 257 120 288 140.5 c 128,-1,33
 319 161 319 161 346 179 c 128,-1,34
 373 197 373 197 390 208 c 0,35,36
 400 215 400 215 414.5 214.5 c 128,-1,37
 429 214 429 214 434 203 c 0,38,39
 443 184 443 184 459.5 161 c 128,-1,40
 476 138 476 138 494 115.5 c 128,-1,41
 512 93 512 93 530 74 c 128,-1,42
 548 55 548 55 561 43 c 0,43,44
 564 41 564 41 564.5 35 c 128,-1,45
 565 29 565 29 561 29 c 0,46,47
 524 30 524 30 492.5 26.5 c 128,-1,48
 461 23 461 23 429 25 c 1,49,50
 403 42 403 42 389 61 c 128,-1,51
 375 80 375 80 361 97 c 0,52,53
 351 110 351 110 342 116 c 128,-1,54
 333 122 333 122 319 129 c 1,55,56
 310 124 310 124 293 112.5 c 128,-1,57
 276 101 276 101 255 87 c 128,-1,58
 234 73 234 73 211.5 58 c 128,-1,59
 189 43 189 43 170 30 c 1,60,61
 184 -27 184 -27 214.5 -78 c 128,-1,62
 245 -129 245 -129 284 -174 c 1,63,64
 298 -183 298 -183 311 -191 c 128,-1,65
 324 -199 324 -199 342 -204 c 1,66,67
 356 -199 356 -199 370.5 -189.5 c 128,-1,68
 385 -180 385 -180 398 -169.5 c 128,-1,69
 411 -159 411 -159 422 -149 c 128,-1,70
 433 -139 433 -139 440 -133 c 0,71,72
 443 -130 443 -130 447.5 -131.5 c 128,-1,73
 452 -133 452 -133 455.5 -136.5 c 128,-1,74
 459 -140 459 -140 461 -144 c 128,-1,75
 463 -148 463 -148 461 -151 c 0,76,77
 443 -171 443 -171 417 -190 c 128,-1,78
 391 -209 391 -209 360.5 -224 c 128,-1,79
 330 -239 330 -239 296 -248 c 128,-1,80
 262 -257 262 -257 227 -257 c 1,81,82
 193 -236 193 -236 162 -195 c 128,-1,83
 131 -154 131 -154 107 -103 c 128,-1,84
 83 -52 83 -52 69 4.5 c 128,-1,85
 55 61 55 61 55 115 c 0,86,87
 55 181 55 181 87 246 c 128,-1,88
 119 311 119 311 182 365 c 0,89,90
 218 396 218 396 258.5 419.5 c 128,-1,91
 299 443 299 443 345 443 c 0,92,93
 381 443 381 443 407.5 436.5 c 128,-1,94
 434 430 434 430 454 419 c 128,-1,95
 474 408 474 408 491 393 c 128,-1,96
 508 378 508 378 525 362 c 1,97,-1
 533 363 l 2,0,1
EndSplineSet
Validated: 33
EndChar

StartChar: guillemotright
Encoding: 187 187 25
Width: 480
Flags: W
LayerCount: 2
Fore
SplineSet
251 437 m 1,0,-1
 432 216 l 1,1,-1
 251 -5 l 1,2,-1
 225 -5 l 1,3,-1
 339 216 l 1,4,-1
 225 437 l 1,5,-1
 251 437 l 1,0,-1
41 437 m 1,6,-1
 225 216 l 1,7,-1
 41 -5 l 1,8,-1
 13 -5 l 1,9,-1
 126 216 l 1,10,-1
 13 437 l 1,11,-1
 41 437 l 1,6,-1
EndSplineSet
Validated: 1
EndChar

StartChar: afii10054
Encoding: 1029 1029 26
Width: 703
Flags: W
HStem: -8 58<329.411 478.599> 108 47<164 195.272> 345 38<289.839 443.471> 441 36<283.649 393.009> 758 20G<271.5 305>
VStem: 34 138<26.4531 107.5> 110 114<533.414 672.626> 468 24<633.61 643 643 651.196 651.196 684.599> 522 126<93.3503 271.321>
LayerCount: 2
Fore
SplineSet
422 -8 m 0,0,1
 392 -8 392 -8 362.5 1.5 c 128,-1,2
 333 11 333 11 306 25 c 128,-1,3
 279 39 279 39 256 55.5 c 128,-1,4
 233 72 233 72 217 86 c 0,5,6
 204 97 204 97 190 102.5 c 128,-1,7
 176 108 176 108 165 108 c 2,8,-1
 164 108 l 1,9,10
 172 92 172 92 172 76 c 0,11,12
 172 54 172 54 158 35 c 0,13,14
 136 7 136 7 102 7 c 0,15,16
 80 7 80 7 61 21 c 0,17,18
 34 42 34 42 34 76 c 0,19,20
 34 96 34 96 45 113 c 1,21,22
 45 115 45 115 46 115.5 c 128,-1,23
 47 116 47 116 48 118 c 2,24,25
 49 119 49 119 49.5 120 c 128,-1,26
 50 121 50 121 52 123 c 0,27,28
 71 145 71 145 90 150 c 128,-1,29
 109 155 109 155 121 155 c 0,30,31
 154 155 154 155 185 139 c 128,-1,32
 216 123 216 123 234 106 c 0,33,34
 249 92 249 92 269.5 81.5 c 128,-1,35
 290 71 290 71 313 64 c 128,-1,36
 336 57 336 57 359.5 53.5 c 128,-1,37
 383 50 383 50 403 50 c 0,38,39
 458 50 458 50 490 81 c 128,-1,40
 522 112 522 112 522 183 c 0,41,42
 522 222 522 222 509.5 252.5 c 128,-1,43
 497 283 497 283 475.5 303.5 c 128,-1,44
 454 324 454 324 424 334.5 c 128,-1,45
 394 345 394 345 360 345 c 0,46,47
 334 345 334 345 309.5 338 c 128,-1,48
 285 331 285 331 264 321.5 c 128,-1,49
 243 312 243 312 226.5 301 c 128,-1,50
 210 290 210 290 198 283 c 1,51,52
 193 279 193 279 188.5 280.5 c 128,-1,53
 184 282 184 282 181.5 285.5 c 128,-1,54
 179 289 179 289 179 294 c 128,-1,55
 179 299 179 299 184 303 c 2,56,-1
 374 452 l 1,57,58
 339 441 339 441 296 441 c 0,59,60
 260 441 260 441 226.5 450.5 c 128,-1,61
 193 460 193 460 167 480 c 128,-1,62
 141 500 141 500 125.5 530.5 c 128,-1,63
 110 561 110 561 110 604 c 0,64,65
 110 643 110 643 123 675 c 128,-1,66
 136 707 136 707 160 730 c 128,-1,67
 184 753 184 753 217.5 765.5 c 128,-1,68
 251 778 251 778 292 778 c 0,69,70
 318 778 318 778 342.5 772 c 128,-1,71
 367 766 367 766 389 756.5 c 128,-1,72
 411 747 411 747 428 735.5 c 128,-1,73
 445 724 445 724 456 713 c 1,74,75
 464 707 464 707 474.5 713.5 c 128,-1,76
 485 720 485 720 493 728 c 1,77,78
 495 733 495 733 497.5 738 c 128,-1,79
 500 743 500 743 502 748 c 0,80,81
 505 754 505 754 509.5 755.5 c 128,-1,82
 514 757 514 757 518 755 c 128,-1,83
 522 753 522 753 524.5 748.5 c 128,-1,84
 527 744 527 744 524 738 c 0,85,86
 519 728 519 728 515 718 c 128,-1,87
 511 708 511 708 505 689 c 0,88,89
 500 673 500 673 497.5 662 c 128,-1,90
 495 651 495 651 492 639 c 0,91,92
 490 633 490 633 485.5 630.5 c 128,-1,93
 481 628 481 628 476.5 629 c 128,-1,94
 472 630 472 630 469 633.5 c 128,-1,95
 466 637 466 637 468 643 c 256,96,97
 470 649 470 649 471 655.5 c 128,-1,98
 472 662 472 662 474 669 c 1,99,100
 464 679 464 679 450 689.5 c 128,-1,101
 436 700 436 700 418.5 708 c 128,-1,102
 401 716 401 716 381.5 720.5 c 128,-1,103
 362 725 362 725 342 722 c 0,104,105
 294 715 294 715 259 686 c 128,-1,106
 224 657 224 657 224 606 c 0,107,108
 224 581 224 581 233.5 557.5 c 128,-1,109
 243 534 243 534 259 516 c 128,-1,110
 275 498 275 498 296.5 487.5 c 128,-1,111
 318 477 318 477 342 477 c 0,112,113
 377 477 377 477 411 493.5 c 128,-1,114
 445 510 445 510 468 525 c 2,115,-1
 487 540 l 2,116,117
 492 544 492 544 496.5 542.5 c 128,-1,118
 501 541 501 541 503.5 537.5 c 128,-1,119
 506 534 506 534 506 529 c 128,-1,120
 506 524 506 524 501 520 c 2,121,-1
 299 362 l 1,122,123
 326 372 326 372 357.5 377.5 c 128,-1,124
 389 383 389 383 428 383 c 0,125,126
 473 383 473 383 513 373.5 c 128,-1,127
 553 364 553 364 583 341.5 c 128,-1,128
 613 319 613 319 630.5 281 c 128,-1,129
 648 243 648 243 648 186 c 256,130,131
 648 129 648 129 629 91.5 c 128,-1,132
 610 54 610 54 578.5 32 c 128,-1,133
 547 10 547 10 506 1 c 128,-1,134
 465 -8 465 -8 422 -8 c 0,0,1
EndSplineSet
Validated: 33
EndChar

StartChar: afii10102
Encoding: 1109 1109 27
Width: 589
Flags: W
HStem: -4.5 36<217.917 400.415> 26 35<88.5713 223.071> 226 49<377.571 397.151> 418.5 18<194.479 272.181>
VStem: 51.5713 96.9997<260.854 363.656> 432.571 106<59.3605 189.204>
LayerCount: 2
Fore
SplineSet
372.571 438 m 0,0,1
 376.571 438 376.571 438 378.571 432 c 128,-1,2
 380.571 426 380.571 426 377.571 424 c 0,3,4
 359.571 411 359.571 411 347.071 387.5 c 128,-1,5
 334.571 364 334.571 364 329.571 348 c 0,6,7
 328.571 344 328.571 344 321.571 344 c 128,-1,8
 314.571 344 314.571 344 313.571 348 c 0,9,10
 310.571 358 310.571 358 304.571 369.5 c 128,-1,11
 298.571 381 298.571 381 290.571 391.5 c 128,-1,12
 282.571 402 282.571 402 273.071 409 c 128,-1,13
 263.571 416 263.571 416 254.571 417 c 0,14,15
 246.571 418 246.571 418 238.571 418.5 c 128,-1,16
 230.571 419 230.571 419 220.571 417 c 0,17,18
 197.571 414 197.571 414 176.071 399.5 c 128,-1,19
 154.571 385 154.571 385 150.571 363 c 0,20,21
 149.571 356 149.571 356 149.071 348 c 128,-1,22
 148.571 340 148.571 340 148.571 331 c 0,23,24
 148.571 320 148.571 320 149.571 308 c 128,-1,25
 150.571 296 150.571 296 155.571 285 c 0,26,27
 158.571 277 158.571 277 166.071 266.5 c 128,-1,28
 173.571 256 173.571 256 184.571 246.5 c 128,-1,29
 195.571 237 195.571 237 209.571 230 c 128,-1,30
 223.571 223 223.571 223 239.571 222 c 1,31,32
 251.571 226 251.571 226 269.571 233 c 128,-1,33
 287.571 240 287.571 240 307.071 248 c 128,-1,34
 326.571 256 326.571 256 345.071 263 c 128,-1,35
 363.571 270 363.571 270 377.571 275 c 1,36,37
 407.571 275 407.571 275 436.571 269 c 128,-1,38
 465.571 263 465.571 263 488.071 248 c 128,-1,39
 510.571 233 510.571 233 524.571 207.5 c 128,-1,40
 538.571 182 538.571 182 538.571 142 c 0,41,42
 538.571 110 538.571 110 529.571 80.5 c 128,-1,43
 520.571 51 520.571 51 496.571 34 c 0,44,45
 464.571 11 464.571 11 425.571 2 c 128,-1,46
 386.571 -7 386.571 -7 339.571 -9 c 0,47,48
 301.571 -10 301.571 -10 273.071 -4.5 c 128,-1,49
 244.571 1 244.571 1 213.571 12 c 0,50,51
 189.571 20 189.571 20 172.571 23.5 c 128,-1,52
 155.571 27 155.571 27 129.571 26 c 0,53,54
 119.571 26 119.571 26 113.071 24 c 128,-1,55
 106.571 22 106.571 22 99.5713 19 c 0,56,57
 88.5713 14 88.5713 14 77.5713 6.5 c 128,-1,58
 66.5713 -1 66.5713 -1 57.5713 -8 c 0,59,60
 53.5713 -11 53.5713 -11 48.5713 -7.5 c 128,-1,61
 43.5713 -4 43.5713 -4 45.5713 1 c 0,62,63
 50.5713 10 50.5713 10 62.0713 21 c 128,-1,64
 73.5713 32 73.5713 32 83.5713 40 c 0,65,66
 97.5713 51 97.5713 51 113.071 56 c 128,-1,67
 128.571 61 128.571 61 148.571 61 c 0,68,69
 173.571 61 173.571 61 191.571 56.5 c 128,-1,70
 209.571 52 209.571 52 235.571 44 c 0,71,72
 260.571 36 260.571 36 281.071 31.5 c 128,-1,73
 301.571 27 301.571 27 329.571 28 c 0,74,75
 354.571 29 354.571 29 376.071 36 c 128,-1,76
 397.571 43 397.571 43 411.571 60 c 0,77,78
 422.571 73 422.571 73 428.071 90.5 c 128,-1,79
 433.571 108 433.571 108 432.571 126 c 0,80,81
 431.571 148 431.571 148 424.071 166 c 128,-1,82
 416.571 184 416.571 184 404.071 197.5 c 128,-1,83
 391.571 211 391.571 211 375.571 218.5 c 128,-1,84
 359.571 226 359.571 226 341.571 226 c 0,85,86
 327.571 226 327.571 226 313.071 221.5 c 128,-1,87
 298.571 217 298.571 217 286.571 212 c 0,88,89
 261.571 200 261.571 200 233.571 188 c 128,-1,90
 205.571 176 205.571 176 179.571 170 c 1,91,92
 159.571 171 159.571 171 139.571 181 c 128,-1,93
 119.571 191 119.571 191 102.571 205.5 c 128,-1,94
 85.5713 220 85.5713 220 73.5713 237.5 c 128,-1,95
 61.5713 255 61.5713 255 57.5713 271 c 0,96,97
 51.5713 292 51.5713 292 51.5713 315 c 0,98,99
 51.5713 329 51.5713 329 53.5713 341 c 128,-1,100
 55.5713 353 55.5713 353 58.5713 364 c 1,101,102
 70.5713 383 70.5713 383 89.0713 397 c 128,-1,103
 107.571 411 107.571 411 129.571 420.5 c 128,-1,104
 151.571 430 151.571 430 174.571 434.5 c 128,-1,105
 197.571 439 197.571 439 217.571 438 c 256,106,107
 237.571 437 237.571 437 261.571 436.5 c 128,-1,108
 285.571 436 285.571 436 308.571 436 c 0,109,110
 327.571 436 327.571 436 344.071 436.5 c 128,-1,111
 360.571 437 360.571 437 372.571 438 c 0,0,1
EndSplineSet
Validated: 33
EndChar

StartChar: afii10104
Encoding: 1111 1111 28
Width: 255
Flags: W
HStem: -4 21G<124 138> 522 115<22.5012 90.7498 159.501 227.75>
VStem: 6 85<528.283 635.769> 70 105<0.816895 431.654> 81 101<197 436.774> 143 85<534.283 641.769>
LayerCount: 2
Fore
SplineSet
182 0 m 1,0,1
 171 -2 171 -2 158 -3 c 128,-1,2
 145 -4 145 -4 131 -4 c 256,3,4
 117 -4 117 -4 102.5 -3 c 128,-1,5
 88 -2 88 -2 74 0 c 1,6,7
 72 26 72 26 71 66 c 128,-1,8
 70 106 70 106 70 152 c 0,9,10
 70 170 70 170 70 188 c 128,-1,11
 70 206 70 206 71 224 c 0,12,13
 72 286 72 286 75 338 c 128,-1,14
 78 390 78 390 81 433 c 1,15,16
 108 438 108 438 130.5 440.5 c 128,-1,17
 153 443 153 443 182 442 c 1,18,19
 181 422 181 422 180 393.5 c 128,-1,20
 179 365 179 365 178.5 332 c 128,-1,21
 178 299 178 299 177 264.5 c 128,-1,22
 176 230 176 230 175 197 c 2,23,-1
 175 162 l 2,24,25
 175 114 175 114 177.5 70 c 128,-1,26
 180 26 180 26 182 0 c 1,0,1
143 639 m 5,27,28
 155 641 155 641 167.5 642 c 132,-1,29
 180 643 180 643 192 643 c 4,30,31
 202 643 202 643 211 642.5 c 132,-1,32
 220 642 220 642 228 641 c 5,33,34
 231 632 231 632 234 617.5 c 132,-1,35
 237 603 237 603 239 587.5 c 132,-1,36
 241 572 241 572 242 557.5 c 132,-1,37
 243 543 243 543 244 534 c 5,38,39
 233 531 233 531 220.5 529.5 c 132,-1,40
 208 528 208 528 196 528 c 4,41,42
 175 528 175 528 159 532 c 5,43,44
 156 539 156 539 153.5 552.5 c 132,-1,45
 151 566 151 566 148.5 581.5 c 132,-1,46
 146 597 146 597 144.5 612.5 c 132,-1,47
 143 628 143 628 143 639 c 5,27,28
6 633 m 5,48,49
 18 635 18 635 30.5 636 c 132,-1,50
 43 637 43 637 55 637 c 4,51,52
 65 637 65 637 74 636.5 c 132,-1,53
 83 636 83 636 91 635 c 5,54,55
 94 626 94 626 97 611.5 c 132,-1,56
 100 597 100 597 102 581.5 c 132,-1,57
 104 566 104 566 105 551.5 c 132,-1,58
 106 537 106 537 107 528 c 5,59,60
 96 525 96 525 83.5 523.5 c 132,-1,61
 71 522 71 522 59 522 c 4,62,63
 38 522 38 522 22 526 c 5,64,65
 19 533 19 533 16.5 546.5 c 132,-1,66
 14 560 14 560 11.5 575.5 c 132,-1,67
 9 591 9 591 7.5 606.5 c 132,-1,68
 6 622 6 622 6 633 c 5,48,49
EndSplineSet
Validated: 33
EndChar

StartChar: afii10018
Encoding: 1041 1041 29
Width: 628
Flags: W
HStem: 0 24<55 115 235 413 533 573> 746 24<55 115 235 344.322>
VStem: 115 120<24 473 486.154 746> 413 120<24 369>
LayerCount: 2
Fore
SplineSet
235 504 m 1,0,1
 255 487 255 487 275 472.5 c 128,-1,2
 295 458 295 458 323 443 c 0,3,4
 344 431 344 431 363.5 422 c 128,-1,5
 383 413 383 413 401 406 c 0,6,7
 413 401 413 401 428.5 398.5 c 128,-1,8
 444 396 444 396 464 393 c 0,9,10
 497 388 497 388 524 387 c 0,11,12
 533 387 533 387 533 377 c 2,13,-1
 533 24 l 1,14,-1
 573 24 l 1,15,-1
 573 0 l 1,16,-1
 55 0 l 1,17,-1
 55 24 l 1,18,-1
 115 24 l 1,19,-1
 115 746 l 1,20,-1
 55 746 l 1,21,-1
 55 770 l 1,22,-1
 488 770 l 2,23,24
 499 770 499 770 496.5 762.5 c 128,-1,25
 494 755 494 755 490 751 c 0,26,27
 476 739 476 739 465 721.5 c 128,-1,28
 454 704 454 704 446.5 684 c 128,-1,29
 439 664 439 664 434.5 643.5 c 128,-1,30
 430 623 430 623 427 604 c 0,31,32
 425 594 425 594 417 594 c 0,33,34
 407 594 407 594 405 604 c 0,35,36
 403 623 403 623 394.5 647.5 c 128,-1,37
 386 672 386 672 374 694 c 128,-1,38
 362 716 362 716 347.5 731 c 128,-1,39
 333 746 333 746 318 746 c 2,40,-1
 235 746 l 1,41,-1
 235 504 l 1,0,1
313 421 m 0,42,43
 290 435 290 435 271 447 c 128,-1,44
 252 459 252 459 235 473 c 1,45,-1
 235 24 l 1,46,-1
 413 24 l 1,47,-1
 413 369 l 1,48,49
 396 378 396 378 367.5 392.5 c 128,-1,50
 339 407 339 407 313 421 c 0,42,43
EndSplineSet
Validated: 33
EndChar

StartChar: afii10019
Encoding: 1042 1042 30
Width: 610
Flags: W
HStem: 0 24<55 115 235 410 520 555> 249 24<520.127 555> 541 39<331.672 439.5> 758 20<296.762 386.591>
VStem: 115 120<24 382 422 688.212> 410 110<24 249> 439 93<591.748 709.363>
LayerCount: 2
Fore
SplineSet
55 24 m 1,0,-1
 115 24 l 1,1,-1
 115 609 l 6,2,3
 115 644 115 644 126 669 c 132,-1,4
 137 694 137 694 157 711 c 4,5,6
 168 720 168 720 187 731.5 c 132,-1,7
 206 743 206 743 230 753.5 c 132,-1,8
 254 764 254 764 281 771 c 132,-1,9
 308 778 308 778 334 778 c 4,10,11
 369 778 369 778 404 770 c 132,-1,12
 439 762 439 762 467.5 746 c 132,-1,13
 496 730 496 730 514 705 c 132,-1,14
 532 680 532 680 532 646 c 4,15,16
 532 625 532 625 524 605.5 c 132,-1,17
 516 586 516 586 502 572 c 132,-1,18
 488 558 488 558 469 549.5 c 132,-1,19
 450 541 450 541 429 541 c 4,20,21
 407 541 407 541 386 548.5 c 132,-1,22
 365 556 365 556 339 562 c 5,23,-1
 252 401 l 1,24,25
 273 380 273 380 295 363.5 c 128,-1,26
 317 347 317 347 346 329 c 0,27,28
 363 318 363 318 378.5 310.5 c 128,-1,29
 394 303 394 303 410 296 c 0,30,31
 420 291 420 291 450.5 283.5 c 128,-1,32
 481 276 481 276 515 274 c 0,33,34
 520 273 520 273 527 273 c 128,-1,35
 534 273 534 273 540 273 c 2,36,-1
 555 273 l 1,37,-1
 555 249 l 1,38,-1
 520 249 l 1,39,-1
 520 24 l 1,40,-1
 555 24 l 1,41,-1
 555 0 l 1,42,-1
 55 0 l 1,43,-1
 55 24 l 1,0,-1
334 307 m 0,44,45
 302 326 302 326 280 343.5 c 128,-1,46
 258 361 258 361 235 382 c 1,47,-1
 235 24 l 1,48,-1
 410 24 l 1,49,-1
 410 264 l 1,50,51
 391 272 391 272 372.5 283 c 128,-1,52
 354 294 354 294 334 307 c 0,44,45
322 583 m 5,53,54
 324 586 324 586 327 587 c 132,-1,55
 330 588 330 588 333 588 c 6,56,-1
 335 588 l 5,57,58
 346 586 346 586 358 583 c 132,-1,59
 370 580 370 580 381 580 c 4,60,61
 409 580 409 580 424 598.5 c 132,-1,62
 439 617 439 617 439 643 c 6,63,-1
 439 667 l 6,64,65
 439 710 439 710 409.5 734 c 132,-1,66
 380 758 380 758 338 758 c 4,67,68
 313 758 313 758 293.5 746.5 c 132,-1,69
 274 735 274 735 261 716 c 132,-1,70
 248 697 248 697 241.5 673 c 132,-1,71
 235 649 235 649 235 625 c 6,72,-1
 235 422 l 1,73,-1
 322 583 l 5,53,54
EndSplineSet
Validated: 5
EndChar

StartChar: afii10020
Encoding: 1043 1043 31
Width: 480
Flags: W
HStem: 0 24<55 115 235 295> 746 24<55 115 235 322.737>
VStem: 115 120<24 746>
LayerCount: 2
Fore
SplineSet
235 746 m 1,0,-1
 235 24 l 1,1,-1
 295 24 l 1,2,-1
 295 0 l 1,3,-1
 55 0 l 1,4,-1
 55 24 l 1,5,-1
 115 24 l 1,6,-1
 115 746 l 1,7,-1
 55 746 l 1,8,-1
 55 770 l 1,9,-1
 449 770 l 2,10,11
 454 770 454 770 454.5 764 c 128,-1,12
 455 758 455 758 452 753 c 0,13,14
 435 728 435 728 426 694.5 c 128,-1,15
 417 661 417 661 417 626 c 0,16,17
 417 618 417 618 417.5 611.5 c 128,-1,18
 418 605 418 605 419 597 c 0,19,20
 420 593 420 593 415 592 c 128,-1,21
 410 591 410 591 406 594 c 0,22,23
 395 603 395 603 383.5 620 c 128,-1,24
 372 637 372 637 360 658 c 128,-1,25
 348 679 348 679 337 702 c 128,-1,26
 326 725 326 725 318 746 c 1,27,-1
 235 746 l 1,0,-1
EndSplineSet
Validated: 1
EndChar

StartChar: afii10021
Encoding: 1044 1044 32
Width: 650
Flags: W
HStem: 0 24<219.529 420.6> 519 132<278.857 369.942> 746 24<360.6 420.6 540.6 600.6>
VStem: 100.6 108<24.6267 225.889> 403.6 137<504.97 568 568 600.719> 420.6 120<24 522 603 746>
LayerCount: 2
Fore
SplineSet
393.6 578 m 4,0,1
 391.6 551 391.6 551 370.6 534 c 132,-1,2
 349.6 517 349.6 517 322.6 519 c 260,3,4
 295.6 521 295.6 521 277.6 542 c 132,-1,5
 259.6 563 259.6 563 261.6 590 c 260,6,7
 263.6 617 263.6 617 285.1 635 c 132,-1,8
 306.6 653 306.6 653 333.6 651 c 6,9,-1
 334.6 651 l 6,10,11
 360.6 649 360.6 649 384.6 637.5 c 132,-1,12
 408.6 626 408.6 626 420.6 603 c 5,13,-1
 420.6 746 l 5,14,-1
 360.6 746 l 5,15,-1
 360.6 770 l 5,16,-1
 600.6 770 l 5,17,-1
 600.6 746 l 5,18,-1
 540.6 746 l 5,19,-1
 540.6 24 l 5,20,-1
 621.6 24 l 6,21,22
 630.6 24 630.6 24 631.1 14.5 c 132,-1,23
 631.6 5 631.6 5 629.6 0 c 4,24,25
 615.6 -29 615.6 -29 597.1 -71 c 132,-1,26
 578.6 -113 578.6 -113 568.6 -148 c 4,27,28
 566.6 -153 566.6 -153 562.6 -153 c 132,-1,29
 558.6 -153 558.6 -153 555.6 -148 c 4,30,31
 548.6 -137 548.6 -137 539.6 -119.5 c 132,-1,32
 530.6 -102 530.6 -102 521.1 -82 c 132,-1,33
 511.6 -62 511.6 -62 501.6 -40.5 c 132,-1,34
 491.6 -19 491.6 -19 483.6 0 c 5,35,-1
 165.6 0 l 5,36,37
 157.6 -19 157.6 -19 147.6 -40.5 c 132,-1,38
 137.6 -62 137.6 -62 128.1 -82 c 132,-1,39
 118.6 -102 118.6 -102 109.6 -119.5 c 132,-1,40
 100.6 -137 100.6 -137 93.5996 -148 c 4,41,42
 90.5996 -153 90.5996 -153 86.5996 -153 c 132,-1,43
 82.5996 -153 82.5996 -153 80.5996 -148 c 4,44,45
 70.5996 -113 70.5996 -113 52.0996 -71 c 132,-1,46
 33.5996 -29 33.5996 -29 19.5996 0 c 4,47,48
 17.5996 5 17.5996 5 18.0996 14.5 c 132,-1,49
 18.5996 24 18.5996 24 27.5996 24 c 6,50,-1
 110.6 24 l 5,51,52
 105.6 43 105.6 43 103.1 71 c 132,-1,53
 100.6 99 100.6 99 100.6 124 c 4,54,55
 100.6 180 100.6 180 121.6 224.5 c 132,-1,56
 142.6 269 142.6 269 175.6 307.5 c 132,-1,57
 208.6 346 208.6 346 249.1 379.5 c 132,-1,58
 289.6 413 289.6 413 328.6 446 c 4,59,60
 360.6 473 360.6 473 382.6 506 c 132,-1,61
 404.6 539 404.6 539 403.6 568 c 4,62,63
 403.6 574 403.6 574 401.1 583 c 132,-1,64
 398.6 592 398.6 592 391.6 601 c 5,65,66
 393.6 595 393.6 595 393.6 589.5 c 132,-1,67
 393.6 584 393.6 584 393.6 578 c 4,0,1
420.6 522 m 5,68,69
 409.6 495 409.6 495 388.6 472 c 132,-1,70
 367.6 449 367.6 449 345.6 418 c 4,71,72
 318.6 379 318.6 379 293.6 343 c 132,-1,73
 268.6 307 268.6 307 249.6 271 c 132,-1,74
 230.6 235 230.6 235 219.6 199.5 c 132,-1,75
 208.6 164 208.6 164 208.6 127 c 4,76,77
 208.6 98 208.6 98 211.6 71 c 132,-1,78
 214.6 44 214.6 44 224.6 24 c 5,79,-1
 420.6 24 l 5,80,-1
 420.6 522 l 5,68,69
EndSplineSet
Validated: 33
EndChar

StartChar: afii10022
Encoding: 1045 1045 33
Width: 660
Flags: W
HStem: -8 25<208.251 308.618> 309 23<422.579 477 593 622.421> 473 70<354.323 441.278> 611 24<373.579 444.957> 625 21<562.441 611.421> 756 22<262.714 380.775>
VStem: 55 123<411.078 615.016> 176 52<21.3781 186.438> 477 116<332 438.475>
LayerCount: 2
Fore
SplineSet
585 154 m 1,0,1
 590 152 590 152 591.5 147.5 c 128,-1,2
 593 143 593 143 592 138.5 c 128,-1,3
 591 134 591 134 587.5 131 c 128,-1,4
 584 128 584 128 579 130 c 2,5,-1
 540 141 l 1,6,7
 531 115 531 115 503 88.5 c 128,-1,8
 475 62 475 62 435.5 40.5 c 128,-1,9
 396 19 396 19 348 5.5 c 128,-1,10
 300 -8 300 -8 251 -8 c 0,11,12
 200 -8 200 -8 165 -1 c 0,13,14
 160 0 160 0 158.5 4 c 128,-1,15
 157 8 157 8 157 12.5 c 128,-1,16
 157 17 157 17 158.5 21.5 c 128,-1,17
 160 26 160 26 161 28 c 0,18,19
 169 44 169 44 172.5 61 c 128,-1,20
 176 78 176 78 176 95 c 0,21,22
 176 122 176 122 168 148 c 128,-1,23
 160 174 160 174 148.5 199 c 128,-1,24
 137 224 137 224 125 247.5 c 128,-1,25
 113 271 113 271 104 294 c 0,26,27
 93 324 93 324 84 349 c 128,-1,28
 75 374 75 374 68.5 398.5 c 128,-1,29
 62 423 62 423 58.5 449 c 128,-1,30
 55 475 55 475 55 507 c 0,31,32
 55 567 55 567 77.5 616.5 c 128,-1,33
 100 666 100 666 137.5 702 c 128,-1,34
 175 738 175 738 225 758 c 128,-1,35
 275 778 275 778 330 778 c 0,36,37
 390 778 390 778 431 767 c 128,-1,38
 472 756 472 756 499.5 737.5 c 128,-1,39
 527 719 527 719 542.5 695 c 128,-1,40
 558 671 558 671 566 646 c 1,41,-1
 604 649 l 2,42,43
 609 649 609 649 611.5 645.5 c 128,-1,44
 614 642 614 642 614.5 637.5 c 128,-1,45
 615 633 615 633 613 629 c 128,-1,46
 611 625 611 625 606 625 c 2,47,-1
 381 611 l 2,48,49
 376 611 376 611 373.5 614.5 c 128,-1,50
 371 618 371 618 370.5 622.5 c 128,-1,51
 370 627 370 627 372 631 c 128,-1,52
 374 635 374 635 379 635 c 2,53,-1
 444 639 l 1,54,55
 448 664 448 664 440 685 c 128,-1,56
 432 706 432 706 415.5 722 c 128,-1,57
 399 738 399 738 377 747 c 128,-1,58
 355 756 355 756 331 756 c 0,59,60
 278 756 278 756 248 738 c 128,-1,61
 218 720 218 720 202 691.5 c 128,-1,62
 186 663 186 663 182 626.5 c 128,-1,63
 178 590 178 590 178 553 c 0,64,65
 178 518 178 518 186.5 476 c 128,-1,66
 195 434 195 434 205 386 c 1,67,68
 223 407 223 407 246 431.5 c 128,-1,69
 269 456 269 456 296 480 c 0,70,71
 328 509 328 509 364.5 526.5 c 128,-1,72
 401 544 401 544 439 543 c 0,73,74
 465 543 465 543 488.5 533 c 128,-1,75
 512 523 512 523 530.5 507.5 c 128,-1,76
 549 492 549 492 561.5 473 c 128,-1,77
 574 454 574 454 579 436 c 0,78,79
 588 404 588 404 591 377.5 c 128,-1,80
 594 351 594 351 593 332 c 1,81,-1
 615 333 l 2,82,83
 620 333 620 333 622.5 329 c 128,-1,84
 625 325 625 325 625 320.5 c 128,-1,85
 625 316 625 316 622.5 312.5 c 128,-1,86
 620 309 620 309 615 309 c 2,87,-1
 430 305 l 2,88,89
 425 305 425 305 422.5 308.5 c 128,-1,90
 420 312 420 312 420 316.5 c 128,-1,91
 420 321 420 321 422.5 325 c 128,-1,92
 425 329 425 329 430 329 c 2,93,-1
 477 330 l 1,94,95
 477 346 477 346 476 363 c 128,-1,96
 475 380 475 380 471 400 c 0,97,98
 465 433 465 433 442 453 c 128,-1,99
 419 473 419 473 383 473 c 0,100,101
 361 473 361 473 338.5 462.5 c 128,-1,102
 316 452 316 452 298 438 c 0,103,104
 281 424 281 424 256 401 c 128,-1,105
 231 378 231 378 211 358 c 1,106,107
 223 292 223 292 225.5 225.5 c 128,-1,108
 228 159 228 159 228 105 c 0,109,110
 228 82 228 82 222 57.5 c 128,-1,111
 216 33 216 33 208 21 c 1,112,113
 222 19 222 19 230 18 c 128,-1,114
 238 17 238 17 252 17 c 0,115,116
 285 17 285 17 315 32.5 c 128,-1,117
 345 48 345 48 367.5 71.5 c 128,-1,118
 390 95 390 95 404 123 c 128,-1,119
 418 151 418 151 419 176 c 1,120,-1
 370 191 l 2,121,122
 365 192 365 192 363.5 196.5 c 128,-1,123
 362 201 362 201 363 205.5 c 128,-1,124
 364 210 364 210 367.5 213 c 128,-1,125
 371 216 371 216 376 215 c 2,126,-1
 585 154 l 1,0,1
EndSplineSet
Validated: 37
EndChar

StartChar: afii10024
Encoding: 1046 1046 34
Width: 960
Flags: W
HStem: 0 24<50 93 229 290 360 420 540 600 670 731 867 910> 656 122<138.12 243.234 716.766 818.875> 746 24<360 420 540 600>
VStem: 93 136<24 159.741> 420 120<24 426 465 746> 731 136<24 160.662>
CounterMasks: 1 1c
LayerCount: 2
Fore
SplineSet
360 0 m 1,0,-1
 360 24 l 1,1,-1
 420 24 l 1,2,-1
 420 426 l 1,3,4
 393 418 393 418 370.5 398.5 c 128,-1,5
 348 379 348 379 329 354 c 128,-1,6
 310 329 310 329 295 301 c 128,-1,7
 280 273 280 273 268 246 c 0,8,9
 255 217 255 217 247.5 186.5 c 128,-1,10
 240 156 240 156 236 126.5 c 128,-1,11
 232 97 232 97 230.5 70.5 c 128,-1,12
 229 44 229 44 229 24 c 1,13,-1
 290 24 l 1,14,-1
 290 0 l 1,15,-1
 50 0 l 1,16,-1
 50 24 l 1,17,-1
 93 24 l 1,18,19
 91 81 91 81 112.5 153 c 128,-1,20
 134 225 134 225 181 293 c 0,21,22
 223 353 223 353 279.5 394.5 c 128,-1,23
 336 436 336 436 393 449 c 1,24,25
 376 466 376 466 360.5 490 c 128,-1,26
 345 514 345 514 331 540 c 0,27,28
 315 569 315 569 300 595.5 c 128,-1,29
 285 622 285 622 271 636 c 0,30,31
 251 656 251 656 215 656 c 0,32,33
 198 656 198 656 182 653 c 128,-1,34
 166 650 166 650 150 642 c 0,35,36
 145 639 145 639 141 641 c 128,-1,37
 137 643 137 643 138 649 c 0,38,39
 140 685 140 685 133 714 c 128,-1,40
 126 743 126 743 98 759 c 0,41,42
 94 761 94 761 93.5 769 c 128,-1,43
 93 777 93 777 99 778 c 0,44,45
 113 780 113 780 130.5 779.5 c 128,-1,46
 148 779 148 779 177 778 c 0,47,48
 202 778 202 778 222 768.5 c 128,-1,49
 242 759 242 759 258 744.5 c 128,-1,50
 274 730 274 730 286.5 711 c 128,-1,51
 299 692 299 692 309 672 c 0,52,53
 323 644 323 644 332.5 616.5 c 128,-1,54
 342 589 342 589 359 553 c 0,55,56
 373 524 373 524 387.5 503 c 128,-1,57
 402 482 402 482 420 465 c 1,58,-1
 420 746 l 1,59,-1
 360 746 l 1,60,-1
 360 770 l 1,61,-1
 600 770 l 1,62,-1
 600 746 l 1,63,-1
 540 746 l 1,64,-1
 540 465 l 1,65,66
 557 482 557 482 572 503 c 128,-1,67
 587 524 587 524 601 553 c 0,68,69
 618 589 618 589 627.5 616.5 c 128,-1,70
 637 644 637 644 651 672 c 0,71,72
 661 692 661 692 673.5 711 c 128,-1,73
 686 730 686 730 702 744.5 c 128,-1,74
 718 759 718 759 738 768.5 c 128,-1,75
 758 778 758 778 783 778 c 0,76,77
 812 779 812 779 829.5 779.5 c 128,-1,78
 847 780 847 780 861 778 c 0,79,80
 867 777 867 777 866.5 769 c 128,-1,81
 866 761 866 761 862 759 c 0,82,83
 834 743 834 743 827 714 c 128,-1,84
 820 685 820 685 822 649 c 0,85,86
 823 643 823 643 819 641 c 128,-1,87
 815 639 815 639 810 642 c 0,88,89
 794 650 794 650 778 653 c 128,-1,90
 762 656 762 656 745 656 c 0,91,92
 709 656 709 656 689 636 c 0,93,94
 675 622 675 622 660 595.5 c 128,-1,95
 645 569 645 569 629 540 c 0,96,97
 615 514 615 514 599 490 c 128,-1,98
 583 466 583 466 566 449 c 1,99,100
 623 436 623 436 679.5 394.5 c 128,-1,101
 736 353 736 353 779 293 c 0,102,103
 803 259 803 259 820 223.5 c 128,-1,104
 837 188 837 188 847.5 153 c 128,-1,105
 858 118 858 118 863 85 c 128,-1,106
 868 52 868 52 867 24 c 1,107,-1
 910 24 l 1,108,-1
 910 0 l 1,109,-1
 670 0 l 1,110,-1
 670 24 l 1,111,-1
 731 24 l 1,112,113
 731 44 731 44 729.5 70.5 c 128,-1,114
 728 97 728 97 724 126.5 c 128,-1,115
 720 156 720 156 712.5 186.5 c 128,-1,116
 705 217 705 217 692 246 c 0,117,118
 680 273 680 273 664.5 301 c 128,-1,119
 649 329 649 329 630 354 c 128,-1,120
 611 379 611 379 588.5 398.5 c 128,-1,121
 566 418 566 418 540 426 c 1,122,-1
 540 24 l 1,123,-1
 600 24 l 1,124,-1
 600 0 l 1,125,-1
 360 0 l 1,0,-1
EndSplineSet
Validated: 33
EndChar

StartChar: afii10025
Encoding: 1047 1047 35
Width: 733
Flags: W
HStem: -8 32<329.793 454.454> 740 38<301.728 427.449>
VStem: 518.637 128<489.568 659.837> 551.637 130<119.025 293.843>
LayerCount: 2
Fore
SplineSet
81.6367 -14 m 0,0,1
 66.6367 -13 66.6367 -13 55.6367 -4.5 c 128,-1,2
 44.6367 4 44.6367 4 37.6367 16.5 c 128,-1,3
 30.6367 29 30.6367 29 28.1367 43.5 c 128,-1,4
 25.6367 58 25.6367 58 28.6367 73 c 0,5,6
 33.6367 102 33.6367 102 55.6367 120.5 c 128,-1,7
 77.6367 139 77.6367 139 110.637 136 c 0,8,9
 145.637 133 145.637 133 180.137 112.5 c 128,-1,10
 214.637 92 214.637 92 252.637 69 c 0,11,12
 276.637 54 276.637 54 314.137 39 c 128,-1,13
 351.637 24 351.637 24 391.637 24 c 0,14,15
 428.637 24 428.637 24 458.637 42 c 128,-1,16
 488.637 60 488.637 60 509.637 87 c 128,-1,17
 530.637 114 530.637 114 541.137 146.5 c 128,-1,18
 551.637 179 551.637 179 551.637 208 c 0,19,20
 550.637 281 550.637 281 525.637 326.5 c 128,-1,21
 500.637 372 500.637 372 456.637 383 c 1,22,23
 454.637 382 454.637 382 451.637 382 c 2,24,25
 447.637 381 447.637 381 444.137 381 c 128,-1,26
 440.637 381 440.637 381 437.637 381 c 1,27,28
 399.637 366 399.637 366 370.137 343.5 c 128,-1,29
 340.637 321 340.637 321 316.637 301 c 0,30,31
 309.637 296 309.637 296 302.637 301 c 0,32,33
 281.637 320 281.637 320 253.637 344.5 c 128,-1,34
 225.637 369 225.637 369 205.637 391 c 0,35,36
 197.637 399 197.637 399 206.637 406 c 0,37,38
 226.637 425 226.637 425 251.637 445 c 128,-1,39
 276.637 465 276.637 465 302.637 488 c 0,40,41
 308.637 493 308.637 493 315.637 488 c 0,42,43
 348.637 465 348.637 465 381.137 445.5 c 128,-1,44
 413.637 426 413.637 426 441.637 417 c 1,45,46
 465.637 428 465.637 428 480.637 445 c 128,-1,47
 495.637 462 495.637 462 504.137 483 c 128,-1,48
 512.637 504 512.637 504 515.637 528 c 128,-1,49
 518.637 552 518.637 552 518.637 578 c 0,50,51
 518.637 614 518.637 614 505.137 644 c 128,-1,52
 491.637 674 491.637 674 467.637 695 c 128,-1,53
 443.637 716 443.637 716 412.137 728 c 128,-1,54
 380.637 740 380.637 740 346.637 740 c 0,55,56
 313.637 740 313.637 740 285.637 726 c 128,-1,57
 257.637 712 257.637 712 235.137 690.5 c 128,-1,58
 212.637 669 212.637 669 196.137 643.5 c 128,-1,59
 179.637 618 179.637 618 169.637 596 c 0,60,61
 167.637 591 167.637 591 161.137 590.5 c 128,-1,62
 154.637 590 154.637 590 153.637 596 c 0,63,64
 151.637 603 151.637 603 151.137 621.5 c 128,-1,65
 150.637 640 150.637 640 150.637 663 c 0,66,67
 150.637 696 150.637 696 152.137 730.5 c 128,-1,68
 153.637 765 153.637 765 157.637 782 c 0,69,70
 158.637 786 158.637 786 166.137 786 c 128,-1,71
 173.637 786 173.637 786 174.637 782 c 0,72,73
 175.637 776 175.637 776 177.637 765.5 c 128,-1,74
 179.637 755 179.637 755 183.137 744 c 128,-1,75
 186.637 733 186.637 733 192.137 722 c 128,-1,76
 197.637 711 197.637 711 205.637 705 c 1,77,78
 219.637 717 219.637 717 240.137 729.5 c 128,-1,79
 260.637 742 260.637 742 286.137 753 c 128,-1,80
 311.637 764 311.637 764 341.637 771 c 128,-1,81
 371.637 778 371.637 778 404.637 778 c 0,82,83
 450.637 778 450.637 778 494.137 764.5 c 128,-1,84
 537.637 751 537.637 751 571.137 725.5 c 128,-1,85
 604.637 700 604.637 700 625.637 663 c 128,-1,86
 646.637 626 646.637 626 646.637 580 c 0,87,88
 646.637 544 646.637 544 636.637 516 c 128,-1,89
 626.637 488 626.637 488 609.137 466 c 128,-1,90
 591.637 444 591.637 444 567.637 428 c 128,-1,91
 543.637 412 543.637 412 516.637 401 c 1,92,93
 545.637 392 545.637 392 575.137 376.5 c 128,-1,94
 604.637 361 604.637 361 628.137 337 c 128,-1,95
 651.637 313 651.637 313 666.637 280 c 128,-1,96
 681.637 247 681.637 247 681.637 203 c 0,97,98
 681.637 147 681.637 147 661.637 107.5 c 128,-1,99
 641.637 68 641.637 68 608.637 42 c 128,-1,100
 575.637 16 575.637 16 532.137 4 c 128,-1,101
 488.637 -8 488.637 -8 440.637 -8 c 0,102,103
 378.637 -8 378.637 -8 336.637 5.5 c 128,-1,104
 294.637 19 294.637 19 258.637 38 c 0,105,106
 231.637 52 231.637 52 206.137 63 c 128,-1,107
 180.637 74 180.637 74 159.637 78 c 1,108,109
 161.637 70 161.637 70 161.137 61.5 c 128,-1,110
 160.637 53 160.637 53 158.637 45 c 0,111,112
 150.637 16 150.637 16 130.137 -0.5 c 128,-1,113
 109.637 -17 109.637 -17 81.6367 -14 c 0,0,1
EndSplineSet
Validated: 33
EndChar

StartChar: afii10026
Encoding: 1048 1048 36
Width: 670
Flags: W
HStem: 0 24<55 115 235 295 375 435 555 615> 746 24<55 115 235 295 375 435 555 615>
VStem: 115 120<24 371 398 746> 435 120<24 468 495 746>
LayerCount: 2
Fore
SplineSet
55 0 m 1,0,-1
 55 24 l 1,1,-1
 115 24 l 1,2,-1
 115 746 l 1,3,-1
 55 746 l 1,4,-1
 55 770 l 1,5,-1
 295 770 l 1,6,-1
 295 746 l 1,7,-1
 235 746 l 1,8,-1
 235 398 l 1,9,-1
 435 495 l 1,10,-1
 435 746 l 1,11,-1
 375 746 l 1,12,-1
 375 770 l 1,13,-1
 615 770 l 1,14,-1
 615 746 l 1,15,-1
 555 746 l 1,16,-1
 555 24 l 1,17,-1
 615 24 l 1,18,-1
 615 0 l 1,19,-1
 375 0 l 1,20,-1
 375 24 l 1,21,-1
 435 24 l 1,22,-1
 435 468 l 1,23,-1
 235 371 l 1,24,-1
 235 24 l 1,25,-1
 295 24 l 1,26,-1
 295 0 l 1,27,-1
 55 0 l 1,0,-1
EndSplineSet
Validated: 1
EndChar

StartChar: afii10027
Encoding: 1049 1049 37
Width: 670
Flags: W
HStem: 807 47<294.875 403.19>
VStem: 438 28<897.08 915.25>
LayerCount: 2
Fore
SplineSet
295 0 m 1,0,-1
 295 24 l 1,1,-1
 235 24 l 1,2,-1
 235 371 l 1,3,-1
 435 468 l 1,4,-1
 435 24 l 1,5,-1
 375 24 l 1,6,-1
 375 0 l 1,7,-1
 615 0 l 1,8,-1
 615 24 l 1,9,-1
 555 24 l 1,10,-1
 555 746 l 1,11,-1
 615 746 l 1,12,-1
 615 770 l 1,13,-1
 375 770 l 1,14,-1
 375 746 l 1,15,-1
 435 746 l 1,16,-1
 435 495 l 1,17,-1
 235 398 l 1,18,-1
 235 746 l 1,19,-1
 295 746 l 1,20,-1
 295 770 l 1,21,-1
 55 770 l 1,22,-1
 55 746 l 1,23,-1
 115 746 l 1,24,-1
 115 24 l 1,25,-1
 55 24 l 1,26,-1
 55 0 l 1,27,-1
 295 0 l 1,0,-1
259 920 m 5,28,29
 263 909 263 909 272.5 897.5 c 132,-1,30
 282 886 282 886 294 876.5 c 132,-1,31
 306 867 306 867 320 860.5 c 132,-1,32
 334 854 334 854 347 854 c 4,33,34
 361 853 361 853 376 859.5 c 132,-1,35
 391 866 391 866 403.5 876 c 132,-1,36
 416 886 416 886 425.5 898.5 c 132,-1,37
 435 911 435 911 438 922 c 5,38,-1
 466 913 l 5,39,40
 461 896 461 896 449 876.5 c 132,-1,41
 437 857 437 857 419 841 c 132,-1,42
 401 825 401 825 379.5 815 c 132,-1,43
 358 805 358 805 335 807 c 4,44,45
 318 808 318 808 302.5 817 c 132,-1,46
 287 826 287 826 273.5 839.5 c 132,-1,47
 260 853 260 853 249 870 c 132,-1,48
 238 887 238 887 231 905 c 5,49,-1
 259 920 l 5,28,29
EndSplineSet
Validated: 41
EndChar

StartChar: afii10028
Encoding: 1050 1050 38
Width: 685
Flags: W
HStem: 0 24<55 115 235 295 398 456.195 582 630> 390 24<235 326.817> 746 24<55 115 235 295 378 438.201 558 609>
VStem: 115 120<24 390 414 746> 446 115<523.222 657 657 694.09 694.09 745.498> 469 117<24.3137 289.672>
LayerCount: 2
Fore
SplineSet
55 0 m 1,0,-1
 55 24 l 1,1,-1
 115 24 l 1,2,-1
 115 746 l 1,3,-1
 55 746 l 1,4,-1
 55 770 l 1,5,-1
 295 770 l 1,6,-1
 295 746 l 1,7,-1
 235 746 l 1,8,-1
 235 414 l 1,9,10
 253 415 253 415 275.5 417 c 128,-1,11
 298 419 298 419 319.5 424 c 128,-1,12
 341 429 341 429 360 439 c 128,-1,13
 379 449 379 449 391 465 c 0,14,15
 424 509 424 509 435 557.5 c 128,-1,16
 446 606 446 606 446 657 c 0,17,18
 446 683 446 683 443 706.5 c 128,-1,19
 440 730 440 730 435 746 c 1,20,-1
 378 746 l 1,21,-1
 378 770 l 1,22,-1
 609 770 l 1,23,-1
 609 746 l 1,24,-1
 558 746 l 1,25,26
 560 728 560 728 560.5 693 c 128,-1,27
 561 658 561 658 561 625 c 0,28,29
 561 582 561 582 548 541.5 c 128,-1,30
 535 501 535 501 502 468 c 0,31,32
 481 448 481 448 455 434 c 128,-1,33
 429 420 429 420 399 411 c 1,34,35
 418 408 418 408 437.5 402.5 c 128,-1,36
 457 397 457 397 475.5 388.5 c 128,-1,37
 494 380 494 380 510.5 367 c 128,-1,38
 527 354 527 354 540 335 c 0,39,40
 555 314 555 314 564 290.5 c 128,-1,41
 573 267 573 267 578 246 c 128,-1,42
 583 225 583 225 584.5 207.5 c 128,-1,43
 586 190 586 190 586 180 c 0,44,45
 586 165 586 165 585.5 140 c 128,-1,46
 585 115 585 115 584.5 90.5 c 128,-1,47
 584 66 584 66 583 47 c 128,-1,48
 582 28 582 28 582 24 c 1,49,-1
 630 24 l 1,50,-1
 630 0 l 1,51,-1
 398 0 l 1,52,-1
 398 24 l 1,53,-1
 454 24 l 1,54,55
 456 34 456 34 458.5 49 c 128,-1,56
 461 64 461 64 463.5 81 c 128,-1,57
 466 98 466 98 467.5 116 c 128,-1,58
 469 134 469 134 469 149 c 0,59,60
 469 203 469 203 460 253.5 c 128,-1,61
 451 304 451 304 428 333 c 0,62,63
 408 357 408 357 388 373.5 c 128,-1,64
 368 390 368 390 345 399 c 1,65,66
 293 392 293 392 235 390 c 1,67,-1
 235 24 l 1,68,-1
 295 24 l 1,69,-1
 295 0 l 1,70,-1
 55 0 l 1,0,-1
EndSplineSet
Validated: 1
EndChar

StartChar: afii10029
Encoding: 1051 1051 39
Width: 665
Flags: W
HStem: 0 24<40 103 237.621 294 370 430 550 610> 746 24<370 430 550 610>
VStem: 92 133<24.2052 175.275> 430 120<24 538 555.486 746>
LayerCount: 2
Fore
SplineSet
294 24 m 1,0,-1
 294 0 l 1,1,-1
 40 0 l 1,2,-1
 40 24 l 1,3,-1
 103 24 l 1,4,5
 101 29 101 29 96.5 45.5 c 128,-1,6
 92 62 92 62 92 78 c 0,7,8
 92 129 92 129 113.5 175 c 128,-1,9
 135 221 135 221 173 268 c 0,10,11
 198 299 198 299 222.5 323 c 128,-1,12
 247 347 247 347 270.5 368.5 c 128,-1,13
 294 390 294 390 315 411 c 128,-1,14
 336 432 336 432 354 457 c 0,15,16
 381 494 381 494 401 538.5 c 128,-1,17
 421 583 421 583 430 636 c 1,18,-1
 430 746 l 1,19,-1
 370 746 l 1,20,-1
 370 770 l 1,21,-1
 610 770 l 1,22,-1
 610 746 l 1,23,-1
 550 746 l 1,24,-1
 550 24 l 1,25,-1
 610 24 l 1,26,-1
 610 0 l 1,27,-1
 370 0 l 1,28,-1
 370 24 l 1,29,-1
 430 24 l 1,30,-1
 430 538 l 1,31,32
 421 514 421 514 408.5 489.5 c 128,-1,33
 396 465 396 465 378 439 c 0,34,35
 359 412 359 412 343.5 389 c 128,-1,36
 328 366 328 366 314 342.5 c 128,-1,37
 300 319 300 319 287 294.5 c 128,-1,38
 274 270 274 270 260 240 c 0,39,40
 240 197 240 197 232.5 158.5 c 128,-1,41
 225 120 225 120 225 76 c 0,42,43
 225 59 225 59 232 45.5 c 128,-1,44
 239 32 239 32 247 24 c 1,45,-1
 294 24 l 1,0,-1
EndSplineSet
Validated: 1
EndChar

StartChar: afii10030
Encoding: 1052 1052 40
Width: 912
Flags: W
HStem: 0 24<40 96 234 287 311 371 491 551 617 677 797 857> 746 24<311 371 491 551 617 677 797 857>
VStem: 80 124<47.2539 216.203> 371 120<24 119 182 530 549.795 746> 677 120<24 546 609 746>
LayerCount: 2
Fore
SplineSet
311 0 m 1,0,-1
 311 24 l 1,1,-1
 371 24 l 1,2,-1
 371 530 l 1,3,4
 356 488 356 488 335 447.5 c 128,-1,5
 314 407 314 407 290 365 c 0,6,7
 274 337 274 337 258.5 307 c 128,-1,8
 243 277 243 277 231 246 c 128,-1,9
 219 215 219 215 211.5 185 c 128,-1,10
 204 155 204 155 204 128 c 0,11,12
 204 110 204 110 208 92.5 c 128,-1,13
 212 75 212 75 218.5 61 c 128,-1,14
 225 47 225 47 233 37 c 128,-1,15
 241 27 241 27 249 24 c 1,16,-1
 287 24 l 1,17,-1
 287 0 l 1,18,-1
 40 0 l 1,19,-1
 40 24 l 1,20,-1
 96 24 l 1,21,22
 90 32 90 32 85 53.5 c 128,-1,23
 80 75 80 75 80 101 c 0,24,25
 80 140 80 140 88 173 c 128,-1,26
 96 206 96 206 111 237.5 c 128,-1,27
 126 269 126 269 148.5 300 c 128,-1,28
 171 331 171 331 200 365 c 0,29,30
 218 386 218 386 235 403 c 128,-1,31
 252 420 252 420 268 436 c 128,-1,32
 284 452 284 452 299 469.5 c 128,-1,33
 314 487 314 487 328 509 c 0,34,35
 348 541 348 541 357 572.5 c 128,-1,36
 366 604 366 604 371 639 c 1,37,-1
 371 746 l 1,38,-1
 311 746 l 1,39,-1
 311 770 l 1,40,-1
 551 770 l 1,41,-1
 551 746 l 1,42,-1
 491 746 l 1,43,-1
 491 182 l 1,44,-1
 677 609 l 1,45,-1
 677 746 l 1,46,-1
 617 746 l 1,47,-1
 617 770 l 1,48,-1
 857 770 l 1,49,-1
 857 746 l 1,50,-1
 797 746 l 1,51,-1
 797 24 l 1,52,-1
 857 24 l 1,53,-1
 857 0 l 1,54,-1
 617 0 l 1,55,-1
 617 24 l 1,56,-1
 677 24 l 1,57,-1
 677 546 l 1,58,-1
 491 119 l 1,59,-1
 491 24 l 1,60,-1
 551 24 l 1,61,-1
 551 0 l 1,62,-1
 311 0 l 1,0,-1
EndSplineSet
Validated: 1
EndChar

StartChar: afii10031
Encoding: 1053 1053 41
Width: 669
Flags: W
HStem: 0 24<55 115 235 295 374 434 554 614> 746 24<55 115 235 295 374 434 554 614>
VStem: 115 120<24 396 421 746> 434 120<24 347 372 746>
LayerCount: 2
Fore
SplineSet
55 0 m 1,0,-1
 55 24 l 1,1,-1
 115 24 l 1,2,-1
 115 746 l 1,3,-1
 55 746 l 1,4,-1
 55 770 l 1,5,-1
 295 770 l 1,6,-1
 295 746 l 1,7,-1
 235 746 l 1,8,-1
 235 421 l 1,9,-1
 434 372 l 1,10,-1
 434 746 l 1,11,-1
 374 746 l 1,12,-1
 374 770 l 1,13,-1
 614 770 l 1,14,-1
 614 746 l 1,15,-1
 554 746 l 1,16,-1
 554 24 l 1,17,-1
 614 24 l 1,18,-1
 614 0 l 1,19,-1
 374 0 l 1,20,-1
 374 24 l 1,21,-1
 434 24 l 1,22,-1
 434 347 l 1,23,-1
 235 396 l 1,24,-1
 235 24 l 1,25,-1
 295 24 l 1,26,-1
 295 0 l 1,27,-1
 55 0 l 1,0,-1
EndSplineSet
Validated: 1
EndChar

StartChar: afii10032
Encoding: 1054 1054 42
Width: 614
Flags: W
HStem: 753 25<304.018 370>
VStem: 55 134<313.208 537.257> 237 24<18 69.0156> 370 25<677.601 753> 429 130<236.373 475.242>
LayerCount: 2
Fore
SplineSet
399 57 m 0,0,1
 367 30 367 30 325 11 c 0,2,3
 305 3 305 3 287.5 -1.5 c 128,-1,4
 270 -6 270 -6 250 -8 c 0,5,6
 245 -9 245 -9 241 -5.5 c 128,-1,7
 237 -2 237 -2 237 2 c 2,8,-1
 237 30 l 2,9,10
 237 44 237 44 227.5 64 c 128,-1,11
 218 84 218 84 205 105 c 128,-1,12
 192 126 192 126 177 146.5 c 128,-1,13
 162 167 162 167 152 182 c 0,14,15
 134 207 134 207 117 234 c 128,-1,16
 100 261 100 261 86 291 c 128,-1,17
 72 321 72 321 63.5 356 c 128,-1,18
 55 391 55 391 55 432 c 0,19,20
 55 480 55 480 72 525 c 128,-1,21
 89 570 89 570 113.5 607.5 c 128,-1,22
 138 645 138 645 165.5 673.5 c 128,-1,23
 193 702 193 702 213 718 c 0,24,25
 246 744 246 744 289 762 c 128,-1,26
 332 780 332 780 383 778 c 0,27,28
 388 778 388 778 391.5 775 c 128,-1,29
 395 772 395 772 395 768 c 2,30,-1
 395 727 l 2,31,32
 395 703 395 703 405.5 681 c 128,-1,33
 416 659 416 659 432 636 c 128,-1,34
 448 613 448 613 466.5 589.5 c 128,-1,35
 485 566 485 566 502 539 c 0,36,37
 516 516 516 516 527 496 c 128,-1,38
 538 476 538 476 545 455.5 c 128,-1,39
 552 435 552 435 555.5 412 c 128,-1,40
 559 389 559 389 559 360 c 0,41,42
 559 306 559 306 545.5 261 c 128,-1,43
 532 216 532 216 509.5 179 c 128,-1,44
 487 142 487 142 458 112 c 128,-1,45
 429 82 429 82 399 57 c 0,0,1
429 315 m 0,46,47
 429 349 429 349 427.5 377 c 128,-1,48
 426 405 426 405 422.5 430.5 c 128,-1,49
 419 456 419 456 413.5 482 c 128,-1,50
 408 508 408 508 400 538 c 0,51,52
 388 582 388 582 379 620 c 128,-1,53
 370 658 370 658 370 695 c 2,54,-1
 370 753 l 1,55,56
 338 752 338 752 305 741 c 128,-1,57
 272 730 272 730 243 707 c 0,58,59
 230 694 230 694 220 664.5 c 128,-1,60
 210 635 210 635 203 596.5 c 128,-1,61
 196 558 196 558 192.5 514.5 c 128,-1,62
 189 471 189 471 189 431 c 0,63,64
 189 390 189 390 191 349.5 c 128,-1,65
 193 309 193 309 197.5 272.5 c 128,-1,66
 202 236 202 236 208.5 205.5 c 128,-1,67
 215 175 215 175 224 153 c 0,68,69
 228 141 228 141 234.5 125.5 c 128,-1,70
 241 110 241 110 247 94.5 c 128,-1,71
 253 79 253 79 257 64.5 c 128,-1,72
 261 50 261 50 261 40 c 2,73,-1
 261 18 l 1,74,75
 275 19 275 19 288.5 23.5 c 128,-1,76
 302 28 302 28 317 35 c 0,77,78
 334 43 334 43 349.5 53 c 128,-1,79
 365 63 365 63 377 73 c 1,80,81
 406 114 406 114 417.5 178.5 c 128,-1,82
 429 243 429 243 429 315 c 0,46,47
EndSplineSet
Validated: 33
EndChar

StartChar: afii10033
Encoding: 1055 1055 43
Width: 690
Flags: W
HStem: 0 24<55 115 235 295 395 455 575 635> 746 24<55 115 235 455 575 635>
VStem: 115 120<24 746> 455 120<24 746>
LayerCount: 2
Fore
SplineSet
235 24 m 1,0,-1
 295 24 l 1,1,-1
 295 0 l 1,2,-1
 55 0 l 1,3,-1
 55 24 l 1,4,-1
 115 24 l 1,5,-1
 115 746 l 1,6,-1
 55 746 l 1,7,-1
 55 770 l 1,8,-1
 635 770 l 1,9,-1
 635 746 l 1,10,-1
 575 746 l 1,11,-1
 575 24 l 1,12,-1
 635 24 l 1,13,-1
 635 0 l 1,14,-1
 395 0 l 1,15,-1
 395 24 l 1,16,-1
 455 24 l 1,17,-1
 455 746 l 1,18,-1
 235 746 l 1,19,-1
 235 24 l 1,0,-1
EndSplineSet
Validated: 1
EndChar

StartChar: afii10034
Encoding: 1056 1056 44
Width: 617
Flags: W
HStem: 0 24<40 100 220 280> 437 44<366.113 467> 748 30<295.569 418.905>
VStem: 100 120<24 334 371 670.312> 478 114<526.153 691.222>
LayerCount: 2
Fore
SplineSet
592 611 m 0,0,1
 592 575 592 575 582.5 543.5 c 128,-1,2
 573 512 573 512 555 488.5 c 128,-1,3
 537 465 537 465 510.5 451 c 128,-1,4
 484 437 484 437 450 437 c 0,5,6
 415 437 415 437 387 449 c 128,-1,7
 359 461 359 461 339 475 c 1,8,-1
 220 334 l 1,9,-1
 220 24 l 1,10,-1
 280 24 l 1,11,-1
 280 0 l 1,12,-1
 40 0 l 1,13,-1
 40 24 l 1,14,-1
 100 24 l 1,15,-1
 100 615 l 2,16,17
 100 639 100 639 109.5 654.5 c 128,-1,18
 119 670 119 670 134 681 c 0,19,20
 159 699 159 699 187.5 716.5 c 128,-1,21
 216 734 216 734 248.5 747.5 c 128,-1,22
 281 761 281 761 316 769.5 c 128,-1,23
 351 778 351 778 388 778 c 0,24,25
 430 778 430 778 467 766.5 c 128,-1,26
 504 755 504 755 532 733.5 c 128,-1,27
 560 712 560 712 576 681 c 128,-1,28
 592 650 592 650 592 611 c 0,0,1
220 371 m 1,29,-1
 330 501 l 2,30,31
 335 507 335 507 341 503 c 1,32,33
 342 503 342 503 343 502.5 c 128,-1,34
 344 502 344 502 345 502 c 1,35,36
 355 494 355 494 367 487.5 c 128,-1,37
 379 481 379 481 396 481 c 0,38,39
 415 481 415 481 430.5 494 c 128,-1,40
 446 507 446 507 456.5 526.5 c 128,-1,41
 467 546 467 546 472.5 569 c 128,-1,42
 478 592 478 592 478 612 c 0,43,44
 478 640 478 640 471 665 c 128,-1,45
 464 690 464 690 449 708.5 c 128,-1,46
 434 727 434 727 410.5 737.5 c 128,-1,47
 387 748 387 748 355 748 c 0,48,49
 336 748 336 748 317 741.5 c 128,-1,50
 298 735 298 735 281 726 c 128,-1,51
 264 717 264 717 251 706.5 c 128,-1,52
 238 696 238 696 231 688 c 0,53,54
 225 681 225 681 222.5 672 c 128,-1,55
 220 663 220 663 220 654 c 2,56,-1
 220 371 l 1,29,-1
EndSplineSet
Validated: 33
EndChar

StartChar: afii10035
Encoding: 1057 1057 45
Width: 628
Flags: W
HStem: -6 25<242.647 315.197> 311 25<374.001 431 561.164 590.421> 517 25<365.001 427 550.384 581.421> 756.5 21<283.373 336.156>
VStem: 55 133<312.599 553.978> 212 31<19.2499 50 50 118.25> 431 131<211.533 311>
LayerCount: 2
Fore
SplineSet
562 311 m 1,0,1
 559 260 559 260 541 213 c 128,-1,2
 523 166 523 166 493 126 c 128,-1,3
 463 86 463 86 421.5 55.5 c 128,-1,4
 380 25 380 25 329 9 c 0,5,6
 320 6 320 6 311 3.5 c 128,-1,7
 302 1 302 1 294 -1 c 0,8,9
 280 -4 280 -4 262 -5 c 128,-1,10
 244 -6 244 -6 224 -6 c 0,11,12
 208 -6 208 -6 208 10 c 0,13,14
 208 20 208 20 210.5 29.5 c 128,-1,15
 213 39 213 39 212 50 c 0,16,17
 210 97 210 97 188.5 135.5 c 128,-1,18
 167 174 167 174 137 212 c 0,19,20
 96 263 96 263 75.5 316 c 128,-1,21
 55 369 55 369 55 440 c 0,22,23
 55 495 55 495 75.5 550.5 c 128,-1,24
 96 606 96 606 130 652.5 c 128,-1,25
 164 699 164 699 207.5 731.5 c 128,-1,26
 251 764 251 764 296 775 c 0,27,28
 307 777 307 777 319 777.5 c 128,-1,29
 331 778 331 778 343 775 c 0,30,31
 381 765 381 765 417 741 c 128,-1,32
 453 717 453 717 481.5 685 c 128,-1,33
 510 653 510 653 529 616 c 128,-1,34
 548 579 548 579 552 542 c 1,35,-1
 574 542 l 2,36,37
 579 542 579 542 581.5 538 c 128,-1,38
 584 534 584 534 584 529.5 c 128,-1,39
 584 525 584 525 581.5 521 c 128,-1,40
 579 517 579 517 574 517 c 2,41,-1
 376 517 l 2,42,43
 371 517 371 517 368 521 c 128,-1,44
 365 525 365 525 365 529.5 c 128,-1,45
 365 534 365 534 368 538 c 128,-1,46
 371 542 371 542 376 542 c 2,47,-1
 427 542 l 1,48,49
 424 573 424 573 416.5 605.5 c 128,-1,50
 409 638 409 638 396 667 c 128,-1,51
 383 696 383 696 365.5 718.5 c 128,-1,52
 348 741 348 741 325 753 c 0,53,54
 317 758 317 758 308 756.5 c 128,-1,55
 299 755 299 755 293 752 c 0,56,57
 264 738 264 738 244 704 c 128,-1,58
 224 670 224 670 211.5 626.5 c 128,-1,59
 199 583 199 583 193.5 534.5 c 128,-1,60
 188 486 188 486 188 442 c 0,61,62
 188 376 188 376 195 322.5 c 128,-1,63
 202 269 202 269 214 220 c 0,64,65
 220 196 220 196 225 176 c 128,-1,66
 230 156 230 156 233.5 136.5 c 128,-1,67
 237 117 237 117 239.5 96.5 c 128,-1,68
 242 76 242 76 243 51 c 0,69,70
 243 42 243 42 242 34.5 c 128,-1,71
 241 27 241 27 243 19 c 1,72,73
 254 18 254 18 266.5 19 c 128,-1,74
 279 20 279 20 290 22 c 0,75,76
 313 27 313 27 330 42 c 0,77,78
 376 83 376 83 401 143 c 128,-1,79
 426 203 426 203 431 279 c 2,80,-1
 431 311 l 1,81,-1
 385 311 l 2,82,83
 380 311 380 311 377 315 c 128,-1,84
 374 319 374 319 374 323.5 c 128,-1,85
 374 328 374 328 377 332 c 128,-1,86
 380 336 380 336 385 336 c 2,87,-1
 583 336 l 2,88,89
 588 336 588 336 590.5 332 c 128,-1,90
 593 328 593 328 593 323.5 c 128,-1,91
 593 319 593 319 590.5 315 c 128,-1,92
 588 311 588 311 583 311 c 2,93,-1
 562 311 l 1,0,1
EndSplineSet
Validated: 33
EndChar

StartChar: afii10036
Encoding: 1058 1058 46
Width: 716
Flags: W
HStem: 0 24<237.167 297.167 417.167 477.167> 746 24<199.261 297.167 417.167 514.548>
VStem: 297.167 120<24 746>
LayerCount: 2
Fore
SplineSet
207.167 746 m 5,0,1
 196.167 731 196.167 731 185.167 710.5 c 132,-1,2
 174.167 690 174.167 690 163.167 667 c 132,-1,3
 152.167 644 152.167 644 142.167 620 c 132,-1,4
 132.167 596 132.167 596 124.167 575 c 4,5,6
 122.167 571 122.167 571 117.667 571 c 132,-1,7
 113.167 571 113.167 571 113.167 575 c 4,8,9
 111.167 600 111.167 600 105.167 627 c 132,-1,10
 99.167 654 99.167 654 88.667 678 c 132,-1,11
 78.167 702 78.167 702 63.167 721 c 132,-1,12
 48.167 740 48.167 740 29.167 751 c 5,13,14
 24.167 753 24.167 753 25.167 761.5 c 132,-1,15
 26.167 770 26.167 770 32.167 770 c 6,16,-1
 682.167 770 l 2,17,18
 688.167 770 688.167 770 689.167 761.5 c 128,-1,19
 690.167 753 690.167 753 685.167 751 c 1,20,21
 666.167 740 666.167 740 651.167 721 c 128,-1,22
 636.167 702 636.167 702 625.667 678 c 128,-1,23
 615.167 654 615.167 654 609.167 627 c 128,-1,24
 603.167 600 603.167 600 601.167 575 c 0,25,26
 601.167 571 601.167 571 596.667 571 c 128,-1,27
 592.167 571 592.167 571 590.167 575 c 0,28,29
 582.167 596 582.167 596 572.167 620 c 128,-1,30
 562.167 644 562.167 644 551.167 667 c 128,-1,31
 540.167 690 540.167 690 528.667 710.5 c 128,-1,32
 517.167 731 517.167 731 507.167 746 c 1,33,-1
 417.167 746 l 5,34,-1
 417.167 24 l 1,35,-1
 477.167 24 l 1,36,-1
 477.167 0 l 1,37,-1
 237.167 0 l 1,38,-1
 237.167 24 l 1,39,-1
 297.167 24 l 1,40,-1
 297.167 746 l 5,41,-1
 207.167 746 l 5,0,1
EndSplineSet
Validated: 33
EndChar

StartChar: afii10037
Encoding: 1059 1059 47
Width: 711
Flags: W
HStem: 344 24<141.01 150> 746 24<39.0059 45 286 291.994>
LayerCount: 2
Fore
SplineSet
308 6 m 20,0,1
 309.942 10.8383 309.942 10.8383 350 164 c 2,2,-1
 367 229 l 1,3,-1
 460 607 l 2,4,5
 469.772 646.718 469.772 646.718 489 670.5 c 0,6,7
 508 694 508 694 523 697 c 1,8,-1
 611 600 l 2,9,10
 618.5 591.733 618.5 591.733 626.5 596 c 0,11,12
 634 600 634 600 632 606 c 0,13,14
 628 618 628 618 628 642 c 0,15,16
 628 676 628 676 641.5 708 c 0,17,18
 653.854 737.283 653.854 737.283 681 759 c 0,19,20
 686 763 686 763 682.5 769.5 c 128,-1,21
 679 776 679 776 673 777 c 1,22,23
 668 777 668 777 660 777.5 c 128,-1,24
 652 778 652 778 642 778 c 256,25,26
 632 778 632 778 623 777.5 c 128,-1,27
 614 777 614 777 609 777 c 0,28,29
 584.48 777 584.48 777 552 762.5 c 0,30,31
 524 750 524 750 505 735 c 0,32,33
 490 723 490 723 469.5 694.5 c 128,-1,34
 448.969 665.957 448.969 665.957 436 613 c 2,35,-1
 376 368 l 1,36,-1
 329 368 l 1,37,-1
 219 746 l 1,38,-1
 286 746 l 2,39,40
 289 746 289 746 290.5 749.5 c 128,-1,41
 292 753 292 753 292 757.5 c 128,-1,42
 292 762 292 762 290.5 766 c 128,-1,43
 289 770 289 770 286 770 c 2,44,-1
 45 770 l 2,45,46
 42 770 42 770 40.5 766 c 128,-1,47
 39 762 39 762 39 757.5 c 128,-1,48
 39 753 39 753 40.5 749.5 c 128,-1,49
 42 746 42 746 45 746 c 2,50,-1
 93 746 l 1,51,-1
 203 368 l 1,52,-1
 150 368 l 2,53,54
 145 368 145 368 143 364 c 128,-1,55
 141 360 141 360 141 355.5 c 128,-1,56
 141 351 141 351 143.5 347.5 c 128,-1,57
 146 344 146 344 150 344 c 2,58,-1
 370 344 l 1,59,-1
 347 253 l 1,60,-1
 326 171 l 2,61,62
 284.076 7.29815 284.076 7.29815 282 6 c 4,63,64
 258 -9 258 -9 304 -10 c 28,65,-1
 308 6 l 20,0,1
EndSplineSet
EndChar

StartChar: afii10038
Encoding: 1060 1060 48
Width: 842
Flags: W
HStem: 0 24<301 361 481 541> 124 34<230.178 347.658 494.08 611.822> 746 24<301 361 481 541>
VStem: 55 128<213.322 385.308> 361 120<24 147 166.245 584 595.251 746> 659 128<213.322 385.308>
CounterMasks: 1 1c
LayerCount: 2
Fore
SplineSet
301 0 m 1,0,-1
 301 24 l 1,1,-1
 361 24 l 1,2,-1
 361 147 l 1,3,4
 343 138 343 138 320 131 c 128,-1,5
 297 124 297 124 274 124 c 0,6,7
 227 124 227 124 187 134.5 c 128,-1,8
 147 145 147 145 117.5 167.5 c 128,-1,9
 88 190 88 190 71.5 223.5 c 128,-1,10
 55 257 55 257 55 304 c 0,11,12
 55 348 55 348 73.5 380 c 128,-1,13
 92 412 92 412 121 437.5 c 128,-1,14
 150 463 150 463 185 484.5 c 128,-1,15
 220 506 220 506 253 529 c 0,16,17
 285 551 285 551 312.5 572 c 128,-1,18
 340 593 340 593 361 620 c 1,19,-1
 361 746 l 1,20,-1
 301 746 l 1,21,-1
 301 770 l 1,22,-1
 541 770 l 1,23,-1
 541 746 l 1,24,-1
 481 746 l 1,25,-1
 481 620 l 1,26,27
 501 593 501 593 529 572 c 128,-1,28
 557 551 557 551 589 529 c 0,29,30
 622 506 622 506 657 484.5 c 128,-1,31
 692 463 692 463 721 437.5 c 128,-1,32
 750 412 750 412 768.5 380 c 128,-1,33
 787 348 787 348 787 304 c 0,34,35
 787 257 787 257 770.5 223.5 c 128,-1,36
 754 190 754 190 724.5 167.5 c 128,-1,37
 695 145 695 145 655 134.5 c 128,-1,38
 615 124 615 124 568 124 c 0,39,40
 545 124 545 124 521.5 131 c 128,-1,41
 498 138 498 138 481 147 c 1,42,-1
 481 24 l 1,43,-1
 541 24 l 1,44,-1
 541 0 l 1,45,-1
 301 0 l 1,0,-1
550 502 m 256,46,47
 531 523 531 523 513 543.5 c 128,-1,48
 495 564 495 564 481 584 c 1,49,-1
 481 173 l 1,50,51
 498 167 498 167 517.5 162.5 c 128,-1,52
 537 158 537 158 560 158 c 0,53,54
 587 158 587 158 606 170.5 c 128,-1,55
 625 183 625 183 636.5 203 c 128,-1,56
 648 223 648 223 653.5 248.5 c 128,-1,57
 659 274 659 274 659 300 c 0,58,59
 659 333 659 333 649 361 c 128,-1,60
 639 389 639 389 623 413.5 c 128,-1,61
 607 438 607 438 588 459.5 c 128,-1,62
 569 481 569 481 550 502 c 256,46,47
282 158 m 0,63,64
 305 158 305 158 324.5 162.5 c 128,-1,65
 344 167 344 167 361 173 c 1,66,-1
 361 584 l 1,67,68
 347 564 347 564 329 543.5 c 128,-1,69
 311 523 311 523 292 502 c 256,70,71
 273 481 273 481 253.5 459.5 c 128,-1,72
 234 438 234 438 218.5 413.5 c 128,-1,73
 203 389 203 389 193 361 c 128,-1,74
 183 333 183 333 183 300 c 0,75,76
 183 274 183 274 188.5 248.5 c 128,-1,77
 194 223 194 223 205.5 203 c 128,-1,78
 217 183 217 183 236 170.5 c 128,-1,79
 255 158 255 158 282 158 c 0,63,64
EndSplineSet
Validated: 1
EndChar

StartChar: afii10039
Encoding: 1061 1061 49
Width: 708
Flags: W
HStem: 0 24<64 126 154 235 385 463 596 658> 670 105<512.908 597.767> 746 24<50 112 245 323>
VStem: 155 136<136.052 235.364>
LayerCount: 2
Fore
SplineSet
381 464 m 1,0,-1
 596 24 l 1,1,-1
 658 24 l 1,2,-1
 658 0 l 1,3,-1
 385 0 l 1,4,-1
 385 24 l 1,5,-1
 463 24 l 1,6,-1
 313 332 l 1,7,-1
 265 239 l 1,8,9
 278 229 278 229 284.5 214.5 c 128,-1,10
 291 200 291 200 291 184 c 256,11,12
 291 168 291 168 284 154 c 0,13,14
 273 131 273 131 250 122 c 128,-1,15
 227 113 227 113 204 120 c 1,16,-1
 154 24 l 1,17,-1
 235 24 l 1,18,-1
 235 0 l 1,19,-1
 64 0 l 1,20,-1
 64 24 l 1,21,-1
 126 24 l 1,22,-1
 181 132 l 1,23,24
 155 153 155 153 155 187 c 0,25,26
 155 203 155 203 162 216 c 0,27,28
 173 238 173 238 196.5 247.5 c 128,-1,29
 220 257 220 257 243 250 c 1,30,-1
 299 360 l 1,31,-1
 112 746 l 1,32,-1
 50 746 l 1,33,-1
 50 770 l 1,34,-1
 323 770 l 1,35,-1
 323 746 l 1,36,-1
 245 746 l 1,37,-1
 368 492 l 1,38,-1
 438 628 l 2,39,40
 447 645 447 645 457.5 662.5 c 128,-1,41
 468 680 468 680 478.5 696 c 128,-1,42
 489 712 489 712 498.5 724.5 c 128,-1,43
 508 737 508 737 516 744 c 0,44,45
 528 755 528 755 549.5 765 c 128,-1,46
 571 775 571 775 601 775 c 0,47,48
 613 775 613 775 623.5 773.5 c 128,-1,49
 634 772 634 772 645 770 c 0,50,51
 654 768 654 768 656 761.5 c 128,-1,52
 658 755 658 755 653 749 c 0,53,54
 643 738 643 738 634 720.5 c 128,-1,55
 625 703 625 703 625 676 c 0,56,57
 625 662 625 662 628.5 644.5 c 128,-1,58
 632 627 632 627 640 607 c 0,59,60
 643 599 643 599 637.5 596 c 128,-1,61
 632 593 632 593 627 600 c 0,62,63
 618 612 618 612 607.5 624 c 128,-1,64
 597 636 597 636 584.5 646.5 c 128,-1,65
 572 657 572 657 557.5 663.5 c 128,-1,66
 543 670 543 670 527 670 c 0,67,68
 498 670 498 670 485 654.5 c 128,-1,69
 472 639 472 639 461 618 c 2,70,-1
 381 464 l 1,0,-1
EndSplineSet
Validated: 33
EndChar

StartChar: afii10040
Encoding: 1062 1062 50
Width: 674
Flags: W
HStem: 0 24<55 115 235 429> 746 24<55 115 235 295 369 429 549 609>
VStem: 115 120<24 746> 429 120<24 746> 526 107<-136.798 0>
LayerCount: 2
Fore
SplineSet
55 0 m 1,0,-1
 55 24 l 1,1,-1
 115 24 l 1,2,-1
 115 746 l 1,3,-1
 55 746 l 1,4,-1
 55 770 l 1,5,-1
 295 770 l 1,6,-1
 295 746 l 1,7,-1
 235 746 l 1,8,-1
 235 24 l 1,9,-1
 429 24 l 1,10,-1
 429 746 l 1,11,-1
 369 746 l 1,12,-1
 369 770 l 1,13,-1
 609 770 l 1,14,-1
 609 746 l 1,15,-1
 549 746 l 1,16,-1
 549 24 l 1,17,-1
 633 24 l 1,18,-1
 633 -120 l 1,19,20
 616 -135 616 -135 584.5 -155 c 128,-1,21
 553 -175 553 -175 516.5 -196 c 128,-1,22
 480 -217 480 -217 443.5 -236 c 128,-1,23
 407 -255 407 -255 380 -267 c 1,24,25
 367 -257 367 -257 340.5 -238.5 c 128,-1,26
 314 -220 314 -220 283.5 -199.5 c 128,-1,27
 253 -179 253 -179 223 -160 c 128,-1,28
 193 -141 193 -141 174 -131 c 1,29,30
 159 -142 159 -142 145.5 -153.5 c 128,-1,31
 132 -165 132 -165 118 -177 c 1,32,33
 113 -174 113 -174 109.5 -169 c 128,-1,34
 106 -164 106 -164 103 -159 c 1,35,36
 112 -149 112 -149 127.5 -134.5 c 128,-1,37
 143 -120 143 -120 161 -105 c 128,-1,38
 179 -90 179 -90 197.5 -76 c 128,-1,39
 216 -62 216 -62 231 -52 c 1,40,41
 252 -61 252 -61 284 -80.5 c 128,-1,42
 316 -100 316 -100 349.5 -122.5 c 128,-1,43
 383 -145 383 -145 413.5 -166 c 128,-1,44
 444 -187 444 -187 461 -199 c 1,45,46
 473 -192 473 -192 492.5 -181 c 128,-1,47
 512 -170 512 -170 526 -162 c 1,48,-1
 526 0 l 1,49,-1
 55 0 l 1,0,-1
EndSplineSet
Validated: 1
EndChar

StartChar: afii10041
Encoding: 1063 1063 51
Width: 668
Flags: W
HStem: 0 20<373 433 553 613> 746 24<55 115 235 295 373 433 553 613>
VStem: 115 120<397.984 746> 433 120<20 308.88 325 746>
LayerCount: 2
Fore
SplineSet
235 406 m 1,0,1
 252 400 252 400 277.5 390 c 128,-1,2
 303 380 303 380 325 372 c 0,3,4
 353 361 353 361 380.5 349 c 128,-1,5
 408 337 408 337 433 325 c 1,6,-1
 433 746 l 1,7,-1
 373 746 l 1,8,-1
 373 770 l 1,9,-1
 613 770 l 1,10,-1
 613 746 l 1,11,-1
 553 746 l 1,12,-1
 553 20 l 1,13,-1
 613 20 l 1,14,-1
 613 0 l 1,15,-1
 373 0 l 1,16,-1
 373 20 l 1,17,-1
 433 20 l 1,18,-1
 433 298 l 1,19,20
 408 311 408 311 379 323.5 c 128,-1,21
 350 336 350 336 319 346 c 0,22,23
 268 362 268 362 219.5 369.5 c 128,-1,24
 171 377 171 377 124 382 c 0,25,26
 115 383 115 383 115 393 c 2,27,-1
 115 746 l 1,28,-1
 55 746 l 1,29,-1
 55 770 l 1,30,-1
 295 770 l 1,31,-1
 295 746 l 1,32,-1
 235 746 l 1,33,-1
 235 406 l 1,0,1
EndSplineSet
Validated: 5
EndChar

StartChar: afii10042
Encoding: 1064 1064 52
Width: 970
Flags: W
HStem: 0 24<55 115 235 425 545 735 855 915> 746 24<55 115 235 295 365 425 545 605 675 735 855 915>
VStem: 115 120<24 746> 425 120<24 746> 735 120<24 746>
CounterMasks: 1 38
LayerCount: 2
Fore
SplineSet
55 24 m 1,0,-1
 115 24 l 1,1,-1
 115 746 l 1,2,-1
 55 746 l 1,3,-1
 55 770 l 1,4,-1
 295 770 l 1,5,-1
 295 746 l 1,6,-1
 235 746 l 1,7,-1
 235 24 l 1,8,-1
 425 24 l 1,9,-1
 425 746 l 1,10,-1
 365 746 l 1,11,-1
 365 770 l 1,12,-1
 605 770 l 1,13,-1
 605 746 l 1,14,-1
 545 746 l 1,15,-1
 545 24 l 1,16,-1
 735 24 l 1,17,-1
 735 746 l 1,18,-1
 675 746 l 1,19,-1
 675 770 l 1,20,-1
 915 770 l 1,21,-1
 915 746 l 1,22,-1
 855 746 l 1,23,-1
 855 24 l 1,24,-1
 915 24 l 1,25,-1
 915 0 l 1,26,-1
 55 0 l 1,27,-1
 55 24 l 1,0,-1
EndSplineSet
Validated: 1
EndChar

StartChar: afii10043
Encoding: 1065 1065 53
Width: 970
Flags: W
HStem: 0 24<55 115 235 425 545 735 855 915> 746 24<55 115 235 295 365 425 545 605 675 735 855 915>
VStem: 115 120<24 746> 425 120<-146.676 0 24 746> 735 120<24 746>
CounterMasks: 1 38
LayerCount: 2
Fore
SplineSet
485 -330 m 5,0,1
 469 -328 469 -328 465 -315 c 4,2,3
 461 -301 461 -301 449.5 -285.5 c 132,-1,4
 438 -270 438 -270 422 -257 c 132,-1,5
 406 -244 406 -244 387 -234 c 132,-1,6
 368 -224 368 -224 350 -220 c 4,7,8
 343 -219 343 -219 339.5 -213.5 c 132,-1,9
 336 -208 336 -208 336 -202 c 132,-1,10
 336 -196 336 -196 339.5 -191 c 132,-1,11
 343 -186 343 -186 350 -184 c 4,12,13
 387 -173 387 -173 406 -143 c 132,-1,14
 425 -113 425 -113 425 -77 c 6,15,-1
 425 0 l 1,16,-1
 55 0 l 1,17,-1
 55 24 l 1,18,-1
 115 24 l 1,19,-1
 115 746 l 1,20,-1
 55 746 l 1,21,-1
 55 770 l 1,22,-1
 295 770 l 1,23,-1
 295 746 l 1,24,-1
 235 746 l 1,25,-1
 235 24 l 1,26,-1
 425 24 l 1,27,-1
 425 746 l 1,28,-1
 365 746 l 1,29,-1
 365 770 l 1,30,-1
 605 770 l 1,31,-1
 605 746 l 1,32,-1
 545 746 l 1,33,-1
 545 24 l 1,34,-1
 735 24 l 1,35,-1
 735 746 l 1,36,-1
 675 746 l 1,37,-1
 675 770 l 1,38,-1
 915 770 l 1,39,-1
 915 746 l 1,40,-1
 855 746 l 1,41,-1
 855 24 l 1,42,-1
 915 24 l 1,43,-1
 915 0 l 1,44,-1
 545 0 l 1,45,-1
 545 -77 l 6,46,47
 545 -113 545 -113 564 -143 c 132,-1,48
 583 -173 583 -173 620 -184 c 4,49,50
 627 -186 627 -186 630 -191 c 132,-1,51
 633 -196 633 -196 633 -202 c 132,-1,52
 633 -208 633 -208 630 -213.5 c 132,-1,53
 627 -219 627 -219 620 -220 c 4,54,55
 602 -224 602 -224 583 -234 c 132,-1,56
 564 -244 564 -244 548 -257 c 132,-1,57
 532 -270 532 -270 520.5 -285.5 c 132,-1,58
 509 -301 509 -301 505 -315 c 4,59,60
 501 -328 501 -328 485 -330 c 5,0,1
EndSplineSet
Validated: 1
EndChar

StartChar: afii10044
Encoding: 1066 1066 54
Width: 682
Flags: W
HStem: 0 24<50 111 237 448 571 632> 368 24<489 549> 746 24<254.826 373 499 560>
LayerCount: 2
Fore
SplineSet
560 770 m 5,0,-1
 560 746 l 1,1,-1
 499 746 l 1,2,-1
 370 392 l 1,3,-1
 549 392 l 1,4,-1
 549 368 l 1,5,-1
 489 368 l 1,6,-1
 571 24 l 1,7,-1
 632 24 l 1,8,-1
 632 0 l 1,9,-1
 50 0 l 1,10,-1
 50 24 l 1,11,-1
 111 24 l 1,12,-1
 373 746 l 1,13,-1
 263 746 l 5,14,15
 255 734 255 734 239 712 c 132,-1,16
 223 690 223 690 205.5 666.5 c 132,-1,17
 188 643 188 643 172.5 623 c 132,-1,18
 157 603 157 603 151 595 c 4,19,20
 148 590 148 590 139 592.5 c 132,-1,21
 130 595 130 595 130 600 c 4,22,23
 131 617 131 617 128.5 638 c 132,-1,24
 126 659 126 659 120 680 c 132,-1,25
 114 701 114 701 104.5 718.5 c 132,-1,26
 95 736 95 736 81 746 c 4,27,28
 75 751 75 751 74.5 760.5 c 132,-1,29
 74 770 74 770 88 770 c 6,30,-1
 560 770 l 5,0,-1
362 368 m 1,31,-1
 237 24 l 1,32,-1
 448 24 l 1,33,-1
 366 368 l 1,34,-1
 362 368 l 1,31,-1
EndSplineSet
EndChar

StartChar: afii10045
Encoding: 1067 1067 55
Width: 870
Flags: W
HStem: 0 24<55 115 235 383 503 543 575 635 755 815> 746 24<55 115 235 295 575 635 755 815>
VStem: 115 120<24 421 436.41 746> 383 120<24 340> 635 120<24 746>
LayerCount: 2
Fore
SplineSet
295 770 m 1,0,-1
 295 746 l 1,1,-1
 235 746 l 1,2,-1
 235 452 l 1,3,4
 248 442 248 442 262 433 c 128,-1,5
 276 424 276 424 293 415 c 0,6,7
 314 403 314 403 333.5 394 c 128,-1,8
 353 385 353 385 371 378 c 0,9,10
 383 373 383 373 398.5 370.5 c 128,-1,11
 414 368 414 368 434 365 c 0,12,13
 467 360 467 360 494 359 c 0,14,15
 503 359 503 359 503 349 c 2,16,-1
 503 24 l 1,17,-1
 543 24 l 1,18,-1
 543 0 l 1,19,-1
 55 0 l 1,20,-1
 55 24 l 1,21,-1
 115 24 l 1,22,-1
 115 746 l 1,23,-1
 55 746 l 1,24,-1
 55 770 l 1,25,-1
 295 770 l 1,0,-1
575 0 m 1,26,-1
 575 24 l 1,27,-1
 635 24 l 1,28,-1
 635 746 l 1,29,-1
 575 746 l 1,30,-1
 575 770 l 1,31,-1
 815 770 l 1,32,-1
 815 746 l 1,33,-1
 755 746 l 1,34,-1
 755 24 l 1,35,-1
 815 24 l 1,36,-1
 815 0 l 1,37,-1
 575 0 l 1,26,-1
283 392 m 0,38,39
 269 400 269 400 257.5 406.5 c 128,-1,40
 246 413 246 413 235 421 c 1,41,-1
 235 24 l 1,42,-1
 383 24 l 1,43,-1
 383 340 l 1,44,45
 366 349 366 349 337.5 363.5 c 128,-1,46
 309 378 309 378 283 392 c 0,38,39
EndSplineSet
Validated: 1
EndChar

StartChar: afii10046
Encoding: 1068 1068 56
Width: 598
Flags: W
HStem: 0 24<55 115 235 383 503 543> 746 24<55 115 235 295>
VStem: 115 120<24 421 436.41 746> 383 120<24 340>
LayerCount: 2
Fore
SplineSet
295 770 m 1,0,-1
 295 746 l 1,1,-1
 235 746 l 1,2,-1
 235 452 l 1,3,4
 248 442 248 442 262 433 c 128,-1,5
 276 424 276 424 293 415 c 0,6,7
 314 403 314 403 333.5 394 c 128,-1,8
 353 385 353 385 371 378 c 0,9,10
 383 373 383 373 398.5 370.5 c 128,-1,11
 414 368 414 368 434 365 c 0,12,13
 467 360 467 360 494 359 c 0,14,15
 503 359 503 359 503 349 c 2,16,-1
 503 24 l 1,17,-1
 543 24 l 1,18,-1
 543 0 l 1,19,-1
 55 0 l 1,20,-1
 55 24 l 1,21,-1
 115 24 l 1,22,-1
 115 746 l 1,23,-1
 55 746 l 1,24,-1
 55 770 l 1,25,-1
 295 770 l 1,0,-1
283 392 m 0,26,27
 269 400 269 400 257.5 406.5 c 128,-1,28
 246 413 246 413 235 421 c 1,29,-1
 235 24 l 1,30,-1
 383 24 l 1,31,-1
 383 340 l 1,32,33
 366 349 366 349 337.5 363.5 c 128,-1,34
 309 378 309 378 283 392 c 0,26,27
EndSplineSet
Validated: 1
EndChar

StartChar: afii10048
Encoding: 1070 1070 57
Width: 853
Flags: W
HStem: -7 25<507 582.479> 0 24<55 115 235 295> 746 24<55 115 235 295> 758 20G<645 672>
VStem: 115 120<24 398 424 746> 345 129<462 556.19> 486 34<18.8147 131.648> 642 28<631.5 752.403> 694 114<219.822 406.004>
LayerCount: 2
Fore
SplineSet
55 0 m 1,0,-1
 55 24 l 1,1,-1
 115 24 l 1,2,-1
 115 746 l 1,3,-1
 55 746 l 1,4,-1
 55 770 l 1,5,-1
 295 770 l 1,6,-1
 295 746 l 1,7,-1
 235 746 l 1,8,-1
 235 424 l 1,9,-1
 346 462 l 1,10,11
 347 526 347 526 380 583.5 c 128,-1,12
 413 641 413 641 461 684 c 132,-1,13
 509 727 509 727 565 752.5 c 128,-1,14
 621 778 621 778 669 778 c 0,15,16
 675 778 675 778 678.5 773 c 128,-1,17
 682 768 682 768 680 762 c 0,18,19
 677 747 677 747 673 722 c 128,-1,20
 669 697 669 697 670 670 c 0,21,22
 670 656 670 656 679 640 c 128,-1,23
 688 624 688 624 699.5 608 c 128,-1,24
 711 592 711 592 723 577.5 c 128,-1,25
 735 563 735 563 742 552 c 0,26,27
 757 529 757 529 769 508 c 128,-1,28
 781 487 781 487 789.5 464.5 c 128,-1,29
 798 442 798 442 803 416 c 128,-1,30
 808 390 808 390 808 357 c 0,31,32
 808 269 808 269 776.5 193.5 c 128,-1,33
 745 118 745 118 693 67 c 0,34,35
 656 31 656 31 609 12 c 128,-1,36
 562 -7 562 -7 493 -7 c 0,37,38
 486 -7 486 -7 482 -1.5 c 128,-1,39
 478 4 478 4 479 11 c 0,40,41
 481 26 481 26 483.5 40.5 c 128,-1,42
 486 55 486 55 486 75 c 0,43,44
 486 93 486 93 480 108.5 c 128,-1,45
 474 124 474 124 465 138.5 c 128,-1,46
 456 153 456 153 445 167.5 c 128,-1,47
 434 182 434 182 423 199 c 0,48,49
 389 250 389 250 368 307 c 128,-1,50
 347 364 347 364 345 438 c 1,51,-1
 235 398 l 1,52,-1
 235 24 l 1,53,-1
 295 24 l 1,54,-1
 295 0 l 1,55,-1
 55 0 l 1,0,-1
694 208 m 0,56,57
 694 237 694 237 692.5 263 c 128,-1,58
 691 289 691 289 688 313.5 c 128,-1,59
 685 338 685 338 680.5 363 c 128,-1,60
 676 388 676 388 670 416 c 256,61,62
 664 444 664 444 660 466.5 c 128,-1,63
 656 489 656 489 653 510 c 128,-1,64
 650 531 650 531 647.5 553 c 128,-1,65
 645 575 645 575 643 602 c 0,66,67
 642 611 642 611 642 620 c 128,-1,68
 642 629 642 629 642 638 c 0,69,70
 642 673 642 673 645.5 703.5 c 128,-1,71
 649 734 649 734 654 753 c 1,72,73
 615 750 615 750 585.5 735.5 c 128,-1,74
 556 721 556 721 535 701.5 c 128,-1,75
 514 682 514 682 502 660.5 c 128,-1,76
 490 639 490 639 486 622 c 0,77,78
 481 598 481 598 478.5 581.5 c 128,-1,79
 476 565 476 565 475 552 c 128,-1,80
 474 539 474 539 474 526.5 c 128,-1,81
 474 514 474 514 474 497 c 0,82,83
 474 474 474 474 476 447.5 c 128,-1,84
 478 421 478 421 481 396 c 128,-1,85
 484 371 484 371 488 348.5 c 128,-1,86
 492 326 492 326 497 311 c 0,87,88
 506 279 506 279 512.5 236 c 128,-1,89
 519 193 519 193 520 156 c 0,90,91
 521 114 521 114 518 79 c 128,-1,92
 515 44 515 44 507 18 c 1,93,94
 564 19 564 19 609.5 41 c 128,-1,95
 655 63 655 63 679 120 c 0,96,97
 689 144 689 144 691.5 163 c 128,-1,98
 694 182 694 182 694 208 c 0,56,57
EndSplineSet
Validated: 33
EndChar

StartChar: afii10065
Encoding: 1072 1072 58
Width: 396
Flags: W
HStem: -3 21G<53.75 81.5>
VStem: 188 113<297.901 404.438 404.438 436.455>
LayerCount: 2
Fore
SplineSet
251 3 m 5,0,1
 245 27 245 27 239 57.5 c 132,-1,2
 233 88 233 88 228 123 c 5,3,4
 216 113 216 113 202.5 100 c 132,-1,5
 189 87 189 87 177 72 c 4,6,7
 160 51 160 51 152 35.5 c 132,-1,8
 144 20 144 20 136 3 c 5,9,10
 125 1 125 1 107.5 -1 c 132,-1,11
 90 -3 90 -3 73 -3 c 4,12,13
 65 -3 65 -3 57.5 -3 c 132,-1,14
 50 -3 50 -3 43 -1 c 5,15,16
 41 18 41 18 43 33.5 c 132,-1,17
 45 49 45 49 52 72 c 4,18,19
 59 97 59 97 69 118.5 c 132,-1,20
 79 140 79 140 90.5 161 c 132,-1,21
 102 182 102 182 115.5 204 c 132,-1,22
 129 226 129 226 143 252 c 4,23,24
 160 281 160 281 171 309.5 c 132,-1,25
 182 338 182 338 191 369 c 5,26,27
 189 387 189 387 188 405 c 132,-1,28
 187 423 187 423 187 440 c 5,29,30
 212 441 212 441 242.5 439.5 c 132,-1,31
 273 438 273 438 296 434 c 5,32,33
 296 405 296 405 297.5 378.5 c 132,-1,34
 299 352 299 352 301 326.5 c 132,-1,35
 303 301 303 301 306.5 275 c 132,-1,36
 310 249 310 249 314 219 c 4,37,38
 323 153 323 153 334.5 96 c 132,-1,39
 346 39 346 39 355 -3 c 5,40,41
 332 -4 332 -4 301 -2.5 c 132,-1,42
 270 -1 270 -1 251 3 c 5,0,1
215 208 m 4,43,44
 211 234 211 234 207 259 c 132,-1,45
 203 284 203 284 199 307 c 5,46,47
 191 289 191 289 183 273 c 132,-1,48
 175 257 175 257 165 240 c 4,49,50
 143 201 143 201 126.5 169 c 132,-1,51
 110 137 110 137 96 102 c 5,52,53
 98 94 98 94 103.5 82 c 132,-1,54
 109 70 109 70 114 65 c 5,55,56
 117 64 117 64 126 65 c 132,-1,57
 135 66 135 66 139 68 c 5,58,59
 143 73 143 73 152 83 c 132,-1,60
 161 93 161 93 166 99 c 4,61,62
 181 116 181 116 195 130.5 c 132,-1,63
 209 145 209 145 222 157 c 5,64,65
 220 170 220 170 218.5 182.5 c 132,-1,66
 217 195 217 195 215 208 c 4,43,44
EndSplineSet
Validated: 33
EndChar

StartChar: afii10066
Encoding: 1073 1073 59
Width: 455
Flags: W
HStem: 0 24<168 298> 413 24<183.797 305.327>
VStem: 62 105<24 167.263 192.25 412.625>
LayerCount: 2
Fore
SplineSet
62 0 m 1,0,1
 62 15 62 15 62 42.5 c 128,-1,2
 62 70 62 70 63 103 c 128,-1,3
 64 136 64 136 64.5 169 c 128,-1,4
 65 202 65 202 66 227 c 0,5,6
 67 251 67 251 69 282.5 c 128,-1,7
 71 314 71 314 73 345 c 128,-1,8
 75 376 75 376 78 401 c 128,-1,9
 81 426 81 426 83 437 c 1,10,-1
 374 437 l 2,11,12
 385 437 385 437 388.5 430 c 128,-1,13
 392 423 392 423 388 415 c 0,14,15
 382 402 382 402 378.5 392 c 128,-1,16
 375 382 375 382 372 373 c 128,-1,17
 369 364 369 364 366.5 354.5 c 128,-1,18
 364 345 364 345 361 333 c 0,19,20
 359 323 359 323 349.5 324.5 c 128,-1,21
 340 326 340 326 338 333 c 0,22,23
 329 358 329 358 319 378.5 c 128,-1,24
 309 399 309 399 295 413 c 1,25,-1
 185 413 l 1,26,27
 184 404 184 404 182 382.5 c 128,-1,28
 180 361 180 361 178 334 c 128,-1,29
 176 307 176 307 174 278 c 128,-1,30
 172 249 172 249 171 225 c 0,31,32
 170 217 170 217 170 208.5 c 128,-1,33
 170 200 170 200 169 192 c 1,34,-1
 199 198 l 2,35,36
 221 203 221 203 245 209.5 c 128,-1,37
 269 216 269 216 290 222 c 0,38,39
 301 225 301 225 312.5 220.5 c 128,-1,40
 324 216 324 216 329 206 c 0,41,42
 339 186 339 186 350.5 160 c 128,-1,43
 362 134 362 134 371.5 106.5 c 128,-1,44
 381 79 381 79 389 51.5 c 128,-1,45
 397 24 397 24 402 0 c 1,46,-1
 62 0 l 1,0,1
205 170 m 0,47,48
 201 169 201 169 190.5 167.5 c 128,-1,49
 180 166 180 166 169 164 c 1,50,51
 168 138 168 138 167.5 113 c 128,-1,52
 167 88 167 88 167 68 c 0,53,54
 167 54 167 54 167.5 43 c 128,-1,55
 168 32 168 32 168 24 c 1,56,-1
 298 24 l 1,57,58
 294 38 294 38 286 55.5 c 128,-1,59
 278 73 278 73 267.5 92 c 128,-1,60
 257 111 257 111 246 129 c 128,-1,61
 235 147 235 147 225 162 c 0,62,63
 219 172 219 172 205 170 c 0,47,48
EndSplineSet
Validated: 37
EndChar

StartChar: afii10067
Encoding: 1074 1074 60
Width: 485
Flags: W
HStem: 0 24<168.333 320.146> 223 24<229.333 245.333> 412 25<172.333 324>
VStem: 65.333 106.667<74.3472 174 238 412.18> 323.833 112.5<24 71.0312>
LayerCount: 2
Fore
SplineSet
60.333 0 m 1,0,1
 59.333 56 59.333 56 61.333 110 c 128,-1,2
 63.333 164 63.333 164 65.333 232 c 0,3,4
 67.333 292 67.333 292 67.333 343 c 128,-1,5
 67.333 394 67.333 394 69.333 437 c 1,6,-1
 360.333 437 l 2,7,8
 367.333 437 367.333 437 369.333 426.5 c 128,-1,9
 371.333 416 371.333 416 366.333 411 c 2,10,-1
 229.333 247 l 1,11,-1
 328.333 247 l 2,12,13
 337.333 247 337.333 247 341.833 242 c 128,-1,14
 346.333 237 346.333 237 348.333 232 c 2,15,-1
 432.333 30 l 2,16,17
 436.333 22 436.333 22 436.333 11 c 128,-1,18
 436.333 0 436.333 0 421.333 0 c 2,19,-1
 60.333 0 l 1,0,1
209.333 223 m 1,20,-1
 169.333 174 l 1,21,22
 168.333 129 168.333 129 168.333 91 c 128,-1,23
 168.333 53 168.333 53 168.333 24 c 1,24,-1
 315.333 24 l 2,25,26
 323.333 24 323.333 24 323.833 29.5 c 128,-1,27
 324.333 35 324.333 35 321.333 42 c 2,28,-1
 245.333 223 l 1,29,-1
 209.333 223 l 1,20,-1
172 276 m 0,30,31
 172 270 172 270 172 256.5 c 128,-1,32
 172 243 172 243 172 238 c 1,33,-1
 310 398 l 2,34,-1
 324 412 l 0,35,36
 322.923 411.82 322.923 411.82 300 412 c 2,37,-1
 172.333 413 l 1,38,39
 171.333 376 171.333 376 172.167 352 c 128,-1,40
 173 328 173 328 172 276 c 0,30,31
EndSplineSet
EndChar

StartChar: afii10068
Encoding: 1075 1075 61
Width: 412
Flags: W
HStem: 416 23.5<180 269.948> 421 20G<363.5 379.5>
VStem: 65 106<3.72351 412.498>
LayerCount: 2
Fore
SplineSet
376 441 m 1,0,1
 383 439 383 439 380 428.5 c 128,-1,2
 377 418 377 418 372 411 c 0,3,4
 364 400 364 400 358 389 c 128,-1,5
 352 378 352 378 350 367 c 0,6,7
 348 359 348 359 347 346 c 128,-1,8
 346 333 346 333 347 323 c 0,9,10
 348 312 348 312 339 310.5 c 128,-1,11
 330 309 330 309 325 314 c 0,12,13
 314 324 314 324 305.5 334.5 c 128,-1,14
 297 345 297 345 289 361 c 256,15,16
 281 377 281 377 276.5 387.5 c 128,-1,17
 272 398 272 398 266 416 c 1,18,19
 260 416 260 416 248 416 c 128,-1,20
 236 416 236 416 223 415.5 c 128,-1,21
 210 415 210 415 198 414 c 128,-1,22
 186 413 186 413 181 413 c 1,23,24
 179 397 179 397 177 372.5 c 128,-1,25
 175 348 175 348 173.5 319 c 128,-1,26
 172 290 172 290 171 258.5 c 128,-1,27
 170 227 170 227 170 199 c 0,28,29
 169 143 169 143 172 91 c 128,-1,30
 175 39 175 39 180 -3 c 1,31,32
 156 -5 156 -5 123.5 -3 c 128,-1,33
 91 -1 91 -1 69 3 c 1,34,35
 67 26 67 26 66 68.5 c 128,-1,36
 65 111 65 111 65 159 c 2,37,-1
 65 200 l 2,38,39
 66 269 66 269 69.5 329 c 128,-1,40
 73 389 73 389 77 434 c 1,41,42
 108 436 108 436 149.5 437.5 c 128,-1,43
 191 439 191 439 233 439.5 c 128,-1,44
 275 440 275 440 313 440.5 c 128,-1,45
 351 441 351 441 376 441 c 1,0,1
EndSplineSet
Validated: 33
EndChar

StartChar: afii10069
Encoding: 1076 1076 62
Width: 430
Flags: W
HStem: 0 24<118.68 249.68> 420 20G<172.68 176.18>
VStem: 88.6797 30.0003<24 67.3125> 171.68 110<297.373 436.838>
LayerCount: 2
Fore
SplineSet
88.6797 24 m 1,0,1
 94.6797 47 94.6797 47 106.18 74 c 128,-1,2
 117.68 101 117.68 101 131.68 132 c 0,3,4
 144.68 160 144.68 160 155.18 182 c 128,-1,5
 165.68 204 165.68 204 173.68 233 c 0,6,7
 178.68 250 178.68 250 181.68 265.5 c 128,-1,8
 184.68 281 184.68 281 187.68 296 c 1,9,10
 181.68 340 181.68 340 177.68 377.5 c 128,-1,11
 173.68 415 173.68 415 171.68 440 c 1,12,13
 180.68 440 180.68 440 195.68 439.5 c 128,-1,14
 210.68 439 210.68 439 226.68 438.5 c 128,-1,15
 242.68 438 242.68 438 257.68 437 c 128,-1,16
 272.68 436 272.68 436 281.68 434 c 1,17,18
 283.68 393 283.68 393 289.18 342.5 c 128,-1,19
 294.68 292 294.68 292 303.68 235 c 0,20,21
 313.68 172 313.68 172 326.18 119 c 128,-1,22
 338.68 66 338.68 66 358.68 24 c 1,23,-1
 404.68 24 l 2,24,25
 413.68 24 413.68 24 416.18 11 c 128,-1,26
 418.68 -2 418.68 -2 412.68 -13 c 256,27,28
 406.68 -24 406.68 -24 395.18 -44 c 128,-1,29
 383.68 -64 383.68 -64 375.68 -87 c 256,30,31
 367.68 -110 367.68 -110 362.68 -128.5 c 128,-1,32
 357.68 -147 357.68 -147 353.68 -168 c 0,33,34
 352.68 -174 352.68 -174 346.18 -173 c 128,-1,35
 339.68 -172 339.68 -172 337.68 -166 c 0,36,37
 332.68 -146 332.68 -146 326.18 -109 c 128,-1,38
 319.68 -72 319.68 -72 313.68 -32 c 0,39,40
 311.68 -16 311.68 -16 309.68 -10.5 c 128,-1,41
 307.68 -5 307.68 -5 305.68 0 c 1,42,-1
 114.68 0 l 1,43,44
 112.68 -5 112.68 -5 112.68 -12 c 128,-1,45
 112.68 -19 112.68 -19 110.68 -28 c 0,46,47
 108.68 -43 108.68 -43 107.18 -53.5 c 128,-1,48
 105.68 -64 105.68 -64 104.18 -74 c 128,-1,49
 102.68 -84 102.68 -84 101.18 -94.5 c 128,-1,50
 99.6797 -105 99.6797 -105 96.6797 -119 c 0,51,52
 94.6797 -132 94.6797 -132 90.6797 -146.5 c 128,-1,53
 86.6797 -161 86.6797 -161 84.6797 -173 c 0,54,55
 83.6797 -177 83.6797 -177 77.6797 -175.5 c 128,-1,56
 71.6797 -174 71.6797 -174 70.6797 -170 c 0,57,58
 67.6797 -146 67.6797 -146 61.6797 -120.5 c 128,-1,59
 55.6797 -95 55.6797 -95 47.6797 -69 c 0,60,61
 40.6797 -47 40.6797 -47 34.6797 -30.5 c 128,-1,62
 28.6797 -14 28.6797 -14 16.6797 0 c 0,63,64
 11.6797 6 11.6797 6 10.1797 15 c 128,-1,65
 8.67969 24 8.67969 24 19.6797 24 c 2,66,-1
 88.6797 24 l 1,0,1
249.68 24 m 1,67,68
 238.68 59 238.68 59 225.18 109 c 128,-1,69
 211.68 159 211.68 159 200.68 214 c 1,70,71
 189.68 191 189.68 191 178.18 171.5 c 128,-1,72
 166.68 152 166.68 152 154.68 123 c 0,73,74
 142.68 95 142.68 95 133.68 70 c 128,-1,75
 124.68 45 124.68 45 118.68 24 c 1,76,-1
 249.68 24 l 1,67,68
EndSplineSet
Validated: 37
EndChar

StartChar: afii10070
Encoding: 1077 1077 63
Width: 330
Flags: W
HStem: 375 67<198.25 235.874 235.874 285.938>
VStem: 55 93<236.094 320.805> 70.5 79.5<76 161.44>
LayerCount: 2
Fore
SplineSet
75 -1 m 0,0,1
 73 -1 73 -1 72 3 c 128,-1,2
 71 7 71 7 70 12.5 c 128,-1,3
 69 18 69 18 69 23 c 128,-1,4
 69 28 69 28 69 31 c 0,5,6
 70 43 70 43 70.5 56 c 128,-1,7
 71 69 71 69 69 86 c 0,8,9
 67 107 67 107 64.5 124.5 c 128,-1,10
 62 142 62 142 60 165 c 256,11,12
 58 188 58 188 56.5 207 c 128,-1,13
 55 226 55 226 55 245 c 0,14,15
 55 269 55 269 58 301 c 0,16,17
 63 342 63 342 83 370 c 1,18,19
 101 388 101 388 126 403 c 128,-1,20
 151 418 151 418 179 428 c 128,-1,21
 207 438 207 438 235 442 c 128,-1,22
 263 446 263 446 286 443 c 1,23,24
 289 426 289 426 288 415 c 128,-1,25
 287 404 287 404 285 390 c 0,26,27
 283 377 283 377 271 375 c 0,28,29
 256 373 256 373 239 368 c 128,-1,30
 222 363 222 363 206 356.5 c 128,-1,31
 190 350 190 350 176.5 341 c 128,-1,32
 163 332 163 332 154 321 c 1,33,34
 152 315 152 315 150 308.5 c 128,-1,35
 148 302 148 302 148 294 c 2,36,-1
 148 236 l 1,37,38
 175 253 175 253 211 268.5 c 128,-1,39
 247 284 247 284 273 293 c 1,40,41
 274 286 274 286 274.5 277 c 128,-1,42
 275 268 275 268 275 258 c 0,43,44
 275 245 275 245 274 233 c 128,-1,45
 273 221 273 221 271 213 c 1,46,47
 259 209 259 209 244 202 c 128,-1,48
 229 195 229 195 212.5 186.5 c 128,-1,49
 196 178 196 178 180 167.5 c 128,-1,50
 164 157 164 157 150 145 c 1,51,-1
 150 76 l 1,52,53
 183 77 183 77 210.5 90 c 128,-1,54
 238 103 238 103 255 120 c 0,55,56
 261 126 261 126 265 116 c 128,-1,57
 269 106 269 106 267 99 c 0,58,59
 262 71 262 71 246.5 54.5 c 128,-1,60
 231 38 231 38 209 24 c 0,61,62
 197 18 197 18 179 12.5 c 128,-1,63
 161 7 161 7 142 3.5 c 128,-1,64
 123 0 123 0 105 -1.5 c 128,-1,65
 87 -3 87 -3 75 -1 c 0,0,1
EndSplineSet
Validated: 33
EndChar

StartChar: afii10072
Encoding: 1078 1078 64
Width: 750
Flags: W
HStem: -3 21G<99 130 363.5 387 634.5 657.5> 256 181<69.3135 170> 384.5 50.5<532.875 586.547>
VStem: 55 112<-1.7688 14.2657 14.2657 98.9031> 65.5 102.5<256 371.357> 313 110.5<-2.15332 250.375> 323.5 102.5<355 438.367> 580 112<-2.10278 25.5938 25.5938 89.1172>
LayerCount: 2
Fore
SplineSet
310 0 m 1,0,1
 310 22 310 22 311 51 c 128,-1,2
 312 80 312 80 313 114 c 128,-1,3
 314 148 314 148 315.5 184 c 128,-1,4
 317 220 317 220 319 256 c 1,5,6
 275 232 275 232 241.5 194.5 c 128,-1,7
 208 157 208 157 182 107 c 1,8,9
 172 78 172 78 169.5 52 c 128,-1,10
 167 26 167 26 167 0 c 1,11,12
 144 -3 144 -3 116 -3 c 0,13,14
 82 -3 82 -3 57 0 c 1,15,16
 55 7 55 7 55 14.5 c 128,-1,17
 55 22 55 22 55 31 c 0,18,19
 56 60 56 60 71 88.5 c 128,-1,20
 86 117 86 117 103 143 c 0,21,22
 119 162 119 162 148.5 184.5 c 128,-1,23
 178 207 178 207 210.5 228.5 c 128,-1,24
 243 250 243 250 272.5 268 c 128,-1,25
 302 286 302 286 320 296 c 1,26,-1
 320 301 l 1,27,28
 306 309 306 309 288.5 319.5 c 128,-1,29
 271 330 271 330 253.5 340 c 128,-1,30
 236 350 236 350 220 358.5 c 128,-1,31
 204 367 204 367 192 373 c 0,32,33
 186 376 186 376 177 371.5 c 128,-1,34
 168 367 168 367 168 352 c 0,35,36
 168 347 168 347 168.5 332.5 c 128,-1,37
 169 318 169 318 169 302 c 128,-1,38
 169 286 169 286 169.5 272.5 c 128,-1,39
 170 259 170 259 170 256 c 1,40,41
 162 256 162 256 148.5 254.5 c 128,-1,42
 135 253 135 253 121 250.5 c 128,-1,43
 107 248 107 248 93 245.5 c 128,-1,44
 79 243 79 243 69 240 c 1,45,46
 69 253 69 253 68.5 274 c 128,-1,47
 68 295 68 295 67 319 c 128,-1,48
 66 343 66 343 65.5 367.5 c 128,-1,49
 65 392 65 392 65 413 c 0,50,51
 65 424 65 424 77.5 430.5 c 128,-1,52
 90 437 90 437 104 437 c 2,53,-1
 176 437 l 2,54,55
 183 437 183 437 194.5 433 c 128,-1,56
 206 429 206 429 214 424 c 0,57,58
 225 418 225 418 238.5 409 c 128,-1,59
 252 400 252 400 266.5 390.5 c 128,-1,60
 281 381 281 381 295.5 371.5 c 128,-1,61
 310 362 310 362 322 355 c 1,62,63
 323 381 323 381 323.5 402 c 128,-1,64
 324 423 324 423 324 437 c 1,65,66
 335 438 335 438 348.5 438.5 c 128,-1,67
 362 439 362 439 376 439 c 256,68,69
 390 439 390 439 403.5 438.5 c 128,-1,70
 417 438 417 438 428 437 c 1,71,72
 427 415 427 415 426 392.5 c 128,-1,73
 425 370 425 370 425 347 c 1,74,75
 440 357 440 357 458.5 368.5 c 128,-1,76
 477 380 477 380 495.5 391 c 128,-1,77
 514 402 514 402 531 412 c 128,-1,78
 548 422 548 422 561 429 c 0,79,80
 571 434 571 434 582.5 435.5 c 128,-1,81
 594 437 594 437 607 436 c 0,82,83
 618 435 618 435 628 435 c 128,-1,84
 638 435 638 435 648 435 c 256,85,86
 658 435 658 435 667 435 c 128,-1,87
 676 435 676 435 687 437 c 1,88,89
 686 426 686 426 687 427.5 c 128,-1,90
 688 429 688 429 688 425 c 1,91,92
 681 416 681 416 673.5 400.5 c 128,-1,93
 666 385 666 385 661 371 c 0,94,95
 656 355 656 355 654.5 333.5 c 128,-1,96
 653 312 653 312 655 295 c 1,97,98
 653 290 653 290 650 293 c 0,99,100
 630 307 630 307 615 331 c 0,101,102
 607 345 607 345 596.5 354 c 128,-1,103
 586 363 586 363 572 375 c 0,104,105
 561 385 561 385 546 384.5 c 128,-1,106
 531 384 531 384 518 376 c 0,107,108
 475 351 475 351 428 317 c 1,109,110
 457 302 457 302 488 284 c 128,-1,111
 519 266 519 266 554 243 c 0,112,113
 577 225 577 225 599.5 198.5 c 128,-1,114
 622 172 622 172 641 142 c 128,-1,115
 660 112 660 112 673.5 81.5 c 128,-1,116
 687 51 687 51 693 26 c 0,117,118
 696 13 696 13 692 0 c 1,119,120
 672 -3 672 -3 643 -3 c 0,121,122
 626 -3 626 -3 610 -2.5 c 128,-1,123
 594 -2 594 -2 580 0 c 1,124,125
 580 24 580 24 576 43 c 128,-1,126
 572 62 572 62 565.5 79 c 128,-1,127
 559 96 559 96 549.5 113.5 c 128,-1,128
 540 131 540 131 528 151 c 0,129,130
 506 180 506 180 476 207 c 128,-1,131
 446 234 446 234 423 251 c 1,132,-1
 423 198 l 2,133,134
 423 139 423 139 423.5 87.5 c 128,-1,135
 424 36 424 36 426 0 c 1,136,137
 402 -3 402 -3 372 -3 c 0,138,139
 355 -3 355 -3 339 -2.5 c 128,-1,140
 323 -2 323 -2 310 0 c 1,0,1
EndSplineSet
Validated: 33
EndChar

StartChar: afii10073
Encoding: 1079 1079 65
Width: 602
Flags: W
HStem: -224 41<305.588 405.399> -164 82<82.8599 208.985> 424 22<247.228 351.076>
VStem: 50.1426 112<253.157 354.187> 420.143 109<249.564 377.688> 463.143 101<-130.701 45.189>
LayerCount: 2
Fore
SplineSet
166.143 85 m 1,0,1
 172.143 100 172.143 100 183.643 119.5 c 128,-1,2
 195.143 139 195.143 139 209.143 158.5 c 128,-1,3
 223.143 178 223.143 178 236.643 195.5 c 128,-1,4
 250.143 213 250.143 213 260.143 225 c 0,5,6
 264.143 229 264.143 229 269.143 230 c 128,-1,7
 274.143 231 274.143 231 278.143 230 c 0,8,9
 297.143 226 297.143 226 320.143 219.5 c 128,-1,10
 343.143 213 343.143 213 367.143 204 c 1,11,12
 378.143 219 378.143 219 391.143 238.5 c 128,-1,13
 404.143 258 404.143 258 408.143 266 c 0,14,15
 415.143 280 415.143 280 418.143 289.5 c 128,-1,16
 421.143 299 421.143 299 420.143 313 c 0,17,18
 418.143 364 418.143 364 382.643 394 c 128,-1,19
 347.143 424 347.143 424 295.143 424 c 0,20,21
 269.143 424 269.143 424 246.143 413 c 128,-1,22
 223.143 402 223.143 402 205.143 385.5 c 128,-1,23
 187.143 369 187.143 369 176.143 348.5 c 128,-1,24
 165.143 328 165.143 328 164.143 309 c 0,25,26
 163.143 298 163.143 298 163.143 287 c 0,27,28
 162.143 278 162.143 278 162.143 268 c 128,-1,29
 162.143 258 162.143 258 161.143 253 c 1,30,31
 150.143 251 150.143 251 135.643 250 c 128,-1,32
 121.143 249 121.143 249 105.143 249 c 0,33,34
 76.1426 249 76.1426 249 51.1426 252 c 1,35,36
 50.1426 256 50.1426 256 50.1426 263 c 128,-1,37
 50.1426 270 50.1426 270 50.1426 277 c 2,38,-1
 50.1426 294 l 2,39,40
 50.1426 299 50.1426 299 53.1426 309 c 128,-1,41
 56.1426 319 56.1426 319 60.6426 330 c 128,-1,42
 65.1426 341 65.1426 341 71.1426 352.5 c 128,-1,43
 77.1426 364 77.1426 364 83.1426 373 c 0,44,45
 114.143 408 114.143 408 170.143 427.5 c 128,-1,46
 226.143 447 226.143 447 295.143 446 c 0,47,48
 333.143 446 333.143 446 368.643 441.5 c 128,-1,49
 404.143 437 404.143 437 433.643 429 c 128,-1,50
 463.143 421 463.143 421 483.643 410 c 128,-1,51
 504.143 399 504.143 399 511.143 384 c 0,52,53
 514.143 379 514.143 379 516.143 374 c 128,-1,54
 518.143 369 518.143 369 520.643 363 c 128,-1,55
 523.143 357 523.143 357 524.643 348.5 c 128,-1,56
 526.143 340 526.143 340 528.143 327 c 0,57,58
 530.143 315 530.143 315 529.143 294.5 c 128,-1,59
 528.143 274 528.143 274 526.143 260 c 256,60,61
 524.143 246 524.143 246 508.643 231.5 c 128,-1,62
 493.143 217 493.143 217 478.143 209 c 1,63,64
 463.143 208 463.143 208 443.143 206 c 128,-1,65
 423.143 204 423.143 204 412.143 202 c 1,66,67
 410.143 198 410.143 198 408.143 195 c 128,-1,68
 406.143 192 406.143 192 404.143 189 c 1,69,70
 442.143 172 442.143 172 474.143 152 c 128,-1,71
 506.143 132 506.143 132 523.143 110 c 1,72,73
 540.143 79 540.143 79 552.143 37.5 c 128,-1,74
 564.143 -4 564.143 -4 564.143 -48 c 0,75,76
 564.143 -80 564.143 -80 555.143 -110.5 c 128,-1,77
 546.143 -141 546.143 -141 526.143 -165 c 0,78,79
 516.143 -177 516.143 -177 499.143 -187.5 c 128,-1,80
 482.143 -198 482.143 -198 462.143 -206 c 128,-1,81
 442.143 -214 442.143 -214 421.643 -219 c 128,-1,82
 401.143 -224 401.143 -224 383.143 -224 c 0,83,84
 368.143 -224 368.143 -224 353.143 -220 c 128,-1,85
 338.143 -216 338.143 -216 321.143 -210 c 0,86,87
 309.143 -205 309.143 -205 289.643 -197 c 128,-1,88
 270.143 -189 270.143 -189 250.143 -180 c 0,89,90
 226.143 -169 226.143 -169 205.143 -166 c 128,-1,91
 184.143 -163 184.143 -163 154.143 -164 c 0,92,93
 122.143 -165 122.143 -165 100.143 -176 c 128,-1,94
 78.1426 -187 78.1426 -187 55.1426 -207 c 0,95,96
 47.1426 -214 47.1426 -214 42.6426 -218.5 c 128,-1,97
 38.1426 -223 38.1426 -223 33.1426 -223 c 256,98,99
 28.1426 -223 28.1426 -223 22.1426 -213.5 c 128,-1,100
 16.1426 -204 16.1426 -204 17.1426 -199 c 0,101,102
 19.1426 -175 19.1426 -175 21.6426 -160.5 c 128,-1,103
 24.1426 -146 24.1426 -146 27.6426 -136.5 c 128,-1,104
 31.1426 -127 31.1426 -127 37.1426 -120 c 128,-1,105
 43.1426 -113 43.1426 -113 51.1426 -103 c 0,106,107
 61.1426 -91 61.1426 -91 77.6426 -86.5 c 128,-1,108
 94.1426 -82 94.1426 -82 113.143 -82 c 0,109,110
 128.143 -82 128.143 -82 142.643 -84 c 128,-1,111
 157.143 -86 157.143 -86 170.143 -89 c 128,-1,112
 183.143 -92 183.143 -92 193.643 -95 c 128,-1,113
 204.143 -98 204.143 -98 209.143 -99 c 1,114,115
 216.143 -104 216.143 -104 228.643 -113 c 128,-1,116
 241.143 -122 241.143 -122 253.643 -132 c 128,-1,117
 266.143 -142 266.143 -142 276.643 -152 c 128,-1,118
 287.143 -162 287.143 -162 292.143 -170 c 1,119,120
 306.143 -176 306.143 -176 319.643 -180 c 128,-1,121
 333.143 -184 333.143 -184 351.143 -183 c 0,122,123
 378.143 -182 378.143 -182 403.143 -164.5 c 128,-1,124
 428.143 -147 428.143 -147 442.143 -130 c 0,125,126
 453.143 -112 453.143 -112 457.643 -91 c 128,-1,127
 462.143 -70 462.143 -70 463.143 -44 c 0,128,129
 464.143 -13 464.143 -13 454.143 14.5 c 128,-1,130
 444.143 42 444.143 42 435.143 57 c 1,131,132
 429.143 61 429.143 61 417.643 69 c 128,-1,133
 406.143 77 406.143 77 393.643 85.5 c 128,-1,134
 381.143 94 381.143 94 368.643 101 c 128,-1,135
 356.143 108 356.143 108 347.143 111 c 0,136,137
 328.143 117 328.143 117 316.143 106 c 1,138,139
 307.143 92 307.143 92 293.143 71 c 128,-1,140
 279.143 50 279.143 50 271.143 34 c 1,141,142
 262.143 32 262.143 32 246.143 35 c 128,-1,143
 230.143 38 230.143 38 214.143 45 c 128,-1,144
 198.143 52 198.143 52 184.143 62.5 c 128,-1,145
 170.143 73 170.143 73 166.143 85 c 1,0,1
EndSplineSet
Validated: 33
EndChar

StartChar: afii10074
Encoding: 1080 1080 66
Width: 485
Flags: W
HStem: -2 21G<106 126.5 339.5 405.75> 423 20G<168 180 413 425.5>
VStem: 69 103<-2.58984 81.3494 81.3494 229 257 429.308> 75 103<98.0323 229 257 367.5 367.5 368.761 368.761 434.782> 316 105<-1.80469 0 0 0 0.816895 69 391 430.559 431 434.254>
LayerCount: 2
Fore
SplineSet
181 443 m 1,0,1
 179 408 179 408 178 359.5 c 128,-1,2
 177 311 177 311 175 257 c 1,3,-1
 318 319 l 1,4,5
 319 357 319 357 320.5 387 c 128,-1,6
 322 417 322 417 324 431 c 1,7,8
 346 437 346 437 373 439.5 c 128,-1,9
 400 442 400 442 426 442 c 1,10,11
 425 422 425 422 424 391 c 128,-1,12
 423 360 423 360 422.5 323 c 128,-1,13
 422 286 422 286 421.5 245 c 128,-1,14
 421 204 421 204 421 165 c 0,15,16
 421 114 421 114 422 70 c 128,-1,17
 423 26 423 26 426 0 c 1,18,19
 412 -2 412 -2 399.5 -2 c 128,-1,20
 387 -2 387 -2 373 -2 c 256,21,22
 359 -2 359 -2 346 -2 c 128,-1,23
 333 -2 333 -2 320 0 c 1,24,25
 318 26 318 26 317 69 c 128,-1,26
 316 112 316 112 316 163 c 0,27,28
 316 195 316 195 316 227.5 c 128,-1,29
 316 260 316 260 317 291 c 1,30,-1
 175 229 l 1,31,32
 173 161 173 161 172.5 99 c 128,-1,33
 172 37 172 37 172 0 c 1,34,35
 158 -2 158 -2 145.5 -3 c 128,-1,36
 133 -4 133 -4 120 -4 c 0,37,38
 92 -4 92 -4 69 0 c 1,39,40
 66 30 66 30 66 83 c 0,41,42
 66 126 66 126 67.5 177.5 c 128,-1,43
 69 229 69 229 71 278 c 128,-1,44
 73 327 73 327 75 367.5 c 128,-1,45
 77 408 77 408 79 430 c 1,46,47
 101 437 101 437 128 439.5 c 128,-1,48
 155 442 155 442 181 443 c 1,0,1
EndSplineSet
Validated: 1
EndChar

StartChar: afii10075
Encoding: 1081 1081 67
Width: 480
Flags: W
HStem: -2 21G<114 126 333.75 402.25> 423 20G<166 177 407 419.5> 521 68<207.173 305.393>
VStem: 65 106<-2.19434 62.7847 62.7847 217 244 429.434> 148 37<614.234 702.033> 310 105<0.911743 278 305 430.527> 314 109<-1.91748 70.5674 383.542 435.153> 343 31.5<637.93 733.492>
LayerCount: 2
Fore
SplineSet
179 443 m 1,0,1
 175 406 175 406 173.5 353.5 c 128,-1,2
 172 301 172 301 171 244 c 1,3,-1
 311 305 l 1,4,5
 313 349 313 349 314.5 382.5 c 128,-1,6
 316 416 316 416 318 431 c 1,7,8
 340 437 340 437 367 439.5 c 128,-1,9
 394 442 394 442 420 442 c 1,10,11
 419 424 419 424 418 396 c 128,-1,12
 417 368 417 368 416.5 335 c 128,-1,13
 416 302 416 302 415.5 265 c 128,-1,14
 415 228 415 228 415 191 c 0,15,16
 415 132 415 132 416.5 80.5 c 128,-1,17
 418 29 418 29 423 0 c 1,18,19
 409 -2 409 -2 395.5 -2 c 128,-1,20
 382 -2 382 -2 368 -2 c 256,21,22
 354 -2 354 -2 340.5 -2 c 128,-1,23
 327 -2 327 -2 314 0 c 1,24,25
 312 26 312 26 311 72 c 128,-1,26
 310 118 310 118 310 172 c 0,27,28
 310 198 310 198 310 225 c 128,-1,29
 310 252 310 252 311 278 c 1,30,-1
 171 217 l 1,31,-1
 171 133 l 1,32,-1
 171 0 l 1,33,34
 157 -2 157 -2 144.5 -3 c 128,-1,35
 132 -4 132 -4 120 -4 c 256,36,37
 108 -4 108 -4 95.5 -3 c 128,-1,38
 83 -2 83 -2 70 0 c 1,39,40
 67 25 67 25 66 64 c 128,-1,41
 65 103 65 103 65 150 c 0,42,43
 65 190 65 190 65.5 232 c 128,-1,44
 66 274 66 274 67.5 312 c 128,-1,45
 69 350 69 350 70 381 c 128,-1,46
 71 412 71 412 73 430 c 1,47,48
 95 437 95 437 124 439.5 c 128,-1,49
 153 442 153 442 179 443 c 1,0,1
343 712 m 4,50,51
 343 717 343 717 344 725 c 132,-1,52
 345 733 345 733 353 734 c 260,53,54
 361 735 361 735 365 728 c 132,-1,55
 369 721 369 721 371 716 c 4,56,57
 373 708 373 708 374.5 692.5 c 132,-1,58
 376 677 376 677 374 663 c 4,59,60
 371 637 371 637 361.5 611.5 c 132,-1,61
 352 586 352 586 335.5 565 c 132,-1,62
 319 544 319 544 296.5 531.5 c 132,-1,63
 274 519 274 519 245 521 c 4,64,65
 196 523 196 523 172.5 552 c 132,-1,66
 149 581 149 581 148 625 c 4,67,68
 147 656 147 656 158.5 685.5 c 132,-1,69
 170 715 170 715 186 725 c 4,70,71
 192 729 192 729 197 726.5 c 132,-1,72
 202 724 202 724 197 717 c 4,73,74
 185 699 185 699 185 669 c 4,75,76
 185 631 185 631 206.5 610 c 132,-1,77
 228 589 228 589 256 589 c 4,78,79
 272 589 272 589 286.5 597 c 132,-1,80
 301 605 301 605 312 617 c 132,-1,81
 323 629 323 629 330.5 643.5 c 132,-1,82
 338 658 338 658 341 672 c 4,83,84
 343 683 343 683 343 693.5 c 132,-1,85
 343 704 343 704 343 712 c 4,50,51
EndSplineSet
Validated: 33
EndChar

StartChar: afii10076
Encoding: 1082 1082 68
Width: 517
Flags: W
HStem: -2 21G<111 141 401.5 429> 348 92<355.631 423.654>
VStem: 64 102<0.695312 284.125> 70 107<217.5 433.45> 357 106<-1.7688 90.6035>
LayerCount: 2
Fore
SplineSet
65 0 m 1,0,1
 64 14 64 14 64 33 c 128,-1,2
 64 52 64 52 64 75 c 0,3,4
 64 119 64 119 65 172.5 c 128,-1,5
 66 226 66 226 67.5 276.5 c 128,-1,6
 69 327 69 327 70 368.5 c 128,-1,7
 71 410 71 410 72 429 c 1,8,9
 99 436 99 436 125.5 438.5 c 128,-1,10
 152 441 152 441 178 440 c 1,11,12
 178 416 178 416 177 378 c 128,-1,13
 176 340 176 340 174 295.5 c 128,-1,14
 172 251 172 251 170 204.5 c 128,-1,15
 168 158 168 158 166 117 c 128,-1,16
 164 76 164 76 161.5 44.5 c 128,-1,17
 159 13 159 13 158 0 c 1,18,19
 146 -2 146 -2 136 -2 c 128,-1,20
 126 -2 126 -2 117 -2 c 0,21,22
 105 -2 105 -2 93 -1.5 c 128,-1,23
 81 -1 81 -1 65 0 c 1,0,1
357 0 m 1,24,25
 351 54 351 54 332.5 100 c 128,-1,26
 314 146 314 146 276 184 c 1,27,28
 269 186 269 186 265.5 186 c 128,-1,29
 262 186 262 186 257 187 c 0,30,31
 248 189 248 189 238 196.5 c 128,-1,32
 228 204 228 204 228 212 c 0,33,34
 228 218 228 218 227.5 223 c 128,-1,35
 227 228 227 228 227 233 c 1,36,37
 236 255 236 255 244.5 273.5 c 128,-1,38
 253 292 253 292 267 315 c 0,39,40
 277 332 277 332 287 345 c 128,-1,41
 297 358 297 358 307 369.5 c 128,-1,42
 317 381 317 381 328.5 392.5 c 128,-1,43
 340 404 340 404 354 417 c 1,44,45
 380 434 380 434 412 440 c 128,-1,46
 444 446 444 446 460 445 c 1,47,48
 466 441 466 441 465 436 c 1,49,50
 454 426 454 426 445 413 c 128,-1,51
 436 400 436 400 433 387 c 0,52,53
 429 372 429 372 429.5 356 c 128,-1,54
 430 340 430 340 432 331 c 1,55,56
 430 325 430 325 424 326 c 1,57,58
 413 334 413 334 394.5 340.5 c 128,-1,59
 376 347 376 347 358 349 c 0,60,61
 348 350 348 350 338 348 c 128,-1,62
 328 346 328 346 320 341 c 1,63,64
 312 332 312 332 304 322 c 128,-1,65
 296 312 296 312 288 300 c 0,66,67
 276 281 276 281 268 263 c 128,-1,68
 260 245 260 245 257 233 c 1,69,70
 260 223 260 223 263 220 c 128,-1,71
 266 217 266 217 275 215 c 0,72,73
 282 214 282 214 295.5 212 c 128,-1,74
 309 210 309 210 324 207 c 128,-1,75
 339 204 339 204 354.5 201 c 128,-1,76
 370 198 370 198 382 195 c 1,77,78
 395 178 395 178 409 155.5 c 128,-1,79
 423 133 423 133 434.5 107 c 128,-1,80
 446 81 446 81 453.5 53.5 c 128,-1,81
 461 26 461 26 463 0 c 1,82,83
 442 -3 442 -3 416 -3 c 0,84,85
 387 -3 387 -3 357 0 c 1,24,25
EndSplineSet
Validated: 33
EndChar

StartChar: afii10077
Encoding: 1083 1083 69
Width: 450
Flags: W
HStem: -3 21G<84.25 98.75 332.25 361.75> 421 20G<232.75 244.75>
VStem: 45.25 102<-2.32971 17.7495 17.7495 77.6445>
LayerCount: 2
Fore
SplineSet
294.25 0 m 1,0,1
 281.25 44 281.25 44 272.75 98.5 c 128,-1,2
 264.25 153 264.25 153 255.25 217 c 0,3,4
 252.25 236 252.25 236 249.75 254.5 c 128,-1,5
 247.25 273 247.25 273 245.25 291 c 1,6,7
 229.25 268 229.25 268 213.75 246 c 128,-1,8
 198.25 224 198.25 224 183.25 196 c 4,9,10
 161.25 156 161.25 156 152.25 116 c 132,-1,11
 143.25 76 143.25 76 142.25 57 c 4,12,13
 141.25 46 141.25 46 142.25 36 c 132,-1,14
 143.25 26 143.25 26 145.25 18 c 4,15,16
 147.25 8 147.25 8 147.25 0 c 5,17,18
 136.25 -2 136.25 -2 121.25 -2.5 c 132,-1,19
 106.25 -3 106.25 -3 91.25 -3 c 4,20,21
 77.25 -3 77.25 -3 65.25 -2.5 c 132,-1,22
 53.25 -2 53.25 -2 45.25 0 c 5,23,24
 42.25 10 42.25 10 43.25 18 c 4,25,26
 45.25 38 45.25 38 59.25 64 c 4,27,28
 71.25 86 71.25 86 82.75 104 c 132,-1,29
 94.25 122 94.25 122 105.75 138.5 c 132,-1,30
 117.25 155 117.25 155 129.75 172 c 132,-1,31
 142.25 189 142.25 189 156.25 209 c 4,32,33
 172.25 231 172.25 231 184.25 248 c 128,-1,34
 196.25 265 196.25 265 209.25 282 c 0,35,36
 218.25 297 218.25 297 225.25 320 c 128,-1,37
 232.25 343 232.25 343 236.25 384 c 1,38,39
 234.25 399 234.25 399 233.75 413 c 128,-1,40
 233.25 427 233.25 427 232.25 441 c 1,41,42
 257.25 440 257.25 440 285.25 439 c 128,-1,43
 313.25 438 313.25 438 337.25 433 c 1,44,45
 341.25 387 341.25 387 347.25 336 c 128,-1,46
 353.25 285 353.25 285 360.25 236 c 0,47,48
 370.25 166 370.25 166 380.25 111.5 c 128,-1,49
 390.25 57 390.25 57 398.25 0 c 1,50,51
 375.25 -3 375.25 -3 348.25 -3 c 0,52,53
 316.25 -3 316.25 -3 294.25 0 c 1,0,1
EndSplineSet
Validated: 33
EndChar

StartChar: afii10078
Encoding: 1084 1084 70
Width: 701
Flags: W
HStem: -3 21G<100.833 115.833 330.333 357.833 589.833 615.333>
VStem: 285.333 111<-1.7688 64.9072>
LayerCount: 2
Fore
SplineSet
396.333 0 m 1,0,1
 370.333 -3 370.333 -3 345.333 -3 c 0,2,3
 315.333 -3 315.333 -3 285.333 0 c 1,4,5
 282.333 43 282.333 43 271.833 95 c 128,-1,6
 261.333 147 261.333 147 247.333 209 c 0,7,8
 241.333 235 241.333 235 236.833 261 c 128,-1,9
 232.333 287 232.333 287 228.333 313 c 1,10,11
 219.333 300 219.333 300 210.333 284 c 128,-1,12
 201.333 268 201.333 268 192.333 251 c 0,13,14
 168.333 202 168.333 202 154.833 154 c 128,-1,15
 141.333 106 141.333 106 142.333 74 c 0,16,17
 143.333 55 143.333 55 152.833 37.5 c 128,-1,18
 162.333 20 162.333 20 162.333 12 c 2,19,-1
 162.333 0 l 1,20,21
 151.333 -2 151.333 -2 137.333 -2.5 c 128,-1,22
 123.333 -3 123.333 -3 108.333 -3 c 256,23,24
 93.333 -3 93.333 -3 77.833 -2.5 c 128,-1,25
 62.333 -2 62.333 -2 49.333 0 c 1,26,27
 47.333 5 47.333 5 45.333 9 c 128,-1,28
 43.333 13 43.333 13 44.333 18 c 0,29,30
 49.333 51 49.333 51 61.833 81.5 c 128,-1,31
 74.333 112 74.333 112 91.333 141.5 c 128,-1,32
 108.333 171 108.333 171 128.833 201 c 128,-1,33
 149.333 231 149.333 231 170.333 264 c 0,34,35
 179.333 279 179.333 279 186.833 291 c 128,-1,36
 194.333 303 194.333 303 200.333 314.5 c 128,-1,37
 206.333 326 206.333 326 210.833 338 c 128,-1,38
 215.333 350 215.333 350 220.333 364 c 1,39,40
 218.333 384 218.333 384 216.333 403.5 c 128,-1,41
 214.333 423 214.333 423 213.333 440 c 1,42,43
 239.333 442 239.333 442 267.833 439 c 128,-1,44
 296.333 436 296.333 436 324.333 434 c 1,45,46
 325.333 417 325.333 417 327.333 393.5 c 128,-1,47
 329.333 370 329.333 370 332.833 342.5 c 128,-1,48
 336.333 315 336.333 315 340.833 285 c 128,-1,49
 345.333 255 345.333 255 351.333 226 c 0,50,51
 356.333 198 356.333 198 361.833 172.5 c 128,-1,52
 367.333 147 367.333 147 372.333 123 c 1,53,54
 381.333 155 381.333 155 393.833 186.5 c 128,-1,55
 406.333 218 406.333 218 422.333 254 c 0,56,57
 428.333 267 428.333 267 436.333 284 c 128,-1,58
 444.333 301 444.333 301 453.833 319 c 128,-1,59
 463.333 337 463.333 337 473.333 354.5 c 128,-1,60
 483.333 372 483.333 372 491.333 386 c 1,61,62
 490.333 400 490.333 400 489.333 413.5 c 128,-1,63
 488.333 427 488.333 427 487.333 440 c 1,64,65
 513.333 443 513.333 443 540.333 440 c 128,-1,66
 567.333 437 567.333 437 594.333 434 c 1,67,68
 595.333 386 595.333 386 602.333 323 c 128,-1,69
 609.333 260 609.333 260 618.333 197.5 c 128,-1,70
 627.333 135 627.333 135 636.333 81.5 c 128,-1,71
 645.333 28 645.333 28 651.333 0 c 1,72,73
 627.333 -3 627.333 -3 603.333 -3 c 0,74,75
 576.333 -3 576.333 -3 548.333 0 c 1,76,77
 541.333 13 541.333 13 534.333 47 c 128,-1,78
 527.333 81 527.333 81 520.833 127.5 c 128,-1,79
 514.333 174 514.333 174 507.833 227.5 c 128,-1,80
 501.333 281 501.333 281 496.333 332 c 1,81,82
 481.333 310 481.333 310 467.333 287 c 128,-1,83
 453.333 264 453.333 264 445.333 244 c 0,84,85
 424.333 194 424.333 194 409.333 152.5 c 128,-1,86
 394.333 111 394.333 111 384.333 66 c 1,87,88
 390.333 31 390.333 31 396.333 0 c 1,0,1
EndSplineSet
Validated: 33
EndChar

StartChar: afii10079
Encoding: 1085 1085 71
Width: 497
Flags: W
HStem: -4 22G<110.5 123.5 381 407> 242 27<249.719 310> 275 26<178 222.948>
VStem: 62 106<-2.39819 25.0785 25.0785 25.5 25.5 190.173> 313 107.5<26.4902 244.534 269 352.827>
LayerCount: 2
Fore
SplineSet
190 440 m 1,0,1
 187 420 187 420 183.5 383 c 128,-1,2
 180 346 180 346 178 301 c 1,3,4
 195 298 195 298 209.5 293.5 c 128,-1,5
 224 289 224 289 244 284 c 0,6,7
 258 280 258 280 274.5 275.5 c 128,-1,8
 291 271 291 271 310 269 c 1,9,10
 310 290 310 290 312 313 c 128,-1,11
 314 336 314 336 317 357.5 c 128,-1,12
 320 379 320 379 324 397.5 c 128,-1,13
 328 416 328 416 333 429 c 1,14,15
 353 435 353 435 378.5 438.5 c 128,-1,16
 404 442 404 442 427 440 c 1,17,18
 423 408 423 408 419.5 354.5 c 128,-1,19
 416 301 416 301 417 243 c 0,20,21
 418 207 418 207 420.5 172.5 c 128,-1,22
 423 138 423 138 427 106.5 c 128,-1,23
 431 75 431 75 435.5 48 c 128,-1,24
 440 21 440 21 444 0 c 1,25,26
 421 -3 421 -3 393 -3 c 0,27,28
 369 -3 369 -3 344 0 c 1,29,30
 337 16 337 16 331 41.5 c 128,-1,31
 325 67 325 67 320.5 99 c 128,-1,32
 316 131 316 131 313 167.5 c 128,-1,33
 310 204 310 204 310 242 c 1,34,35
 289 244 289 244 271.5 249 c 128,-1,36
 254 254 254 254 238 258 c 0,37,38
 219 263 219 263 205.5 267.5 c 128,-1,39
 192 272 192 272 176 275 c 1,40,41
 174 234 174 234 172 191.5 c 128,-1,42
 170 149 170 149 169 111.5 c 128,-1,43
 168 74 168 74 168 44.5 c 128,-1,44
 168 15 168 15 168 0 c 1,45,46
 154 -2 154 -2 142 -3 c 128,-1,47
 130 -4 130 -4 117 -4 c 256,48,49
 104 -4 104 -4 91 -3 c 128,-1,50
 78 -2 78 -2 63 0 c 1,51,52
 62 12 62 12 62 25.5 c 128,-1,53
 62 39 62 39 62 54 c 0,54,55
 62 105 62 105 64.5 165.5 c 128,-1,56
 67 226 67 226 71.5 280.5 c 128,-1,57
 76 335 76 335 82 376.5 c 128,-1,58
 88 418 88 418 95 432 c 1,59,60
 117 437 117 437 143.5 439.5 c 128,-1,61
 170 442 170 442 190 440 c 1,0,1
EndSplineSet
Validated: 33
EndChar

StartChar: afii10080
Encoding: 1086 1086 72
Width: 480
Flags: W
VStem: 45 75<184.379 310.473> 357 78<113.5 230.5>
LayerCount: 2
Fore
SplineSet
193 -11 m 0,0,1
 190 -12 190 -12 188.5 -12.5 c 128,-1,2
 187 -13 187 -13 184 -11 c 0,3,4
 157 1 157 1 140 16 c 128,-1,5
 123 31 123 31 104 55 c 0,6,7
 75 92 75 92 60 126.5 c 128,-1,8
 45 161 45 161 45 209 c 0,9,10
 45 274 45 274 73.5 323 c 128,-1,11
 102 372 102 372 162 403 c 0,12,13
 198 422 198 422 225.5 431.5 c 128,-1,14
 253 441 253 441 278 446 c 0,15,16
 281 447 281 447 283 447.5 c 128,-1,17
 285 448 285 448 288 446 c 0,18,19
 308 436 308 436 334 417 c 128,-1,20
 360 398 360 398 380 369 c 0,21,22
 393 350 393 350 403.5 333.5 c 128,-1,23
 414 317 414 317 421 300 c 128,-1,24
 428 283 428 283 431.5 263 c 128,-1,25
 435 243 435 243 435 218 c 0,26,27
 435 163 435 163 406.5 116.5 c 128,-1,28
 378 70 378 70 329 41 c 0,29,30
 292 18 292 18 259.5 7.5 c 128,-1,31
 227 -3 227 -3 193 -11 c 0,0,1
320 59 m 0,32,33
 340 70 340 70 348.5 86.5 c 128,-1,34
 357 103 357 103 357 124 c 0,35,36
 357 157 357 157 342 196 c 128,-1,37
 327 235 327 235 312 268 c 0,38,39
 303 289 303 289 290.5 310 c 128,-1,40
 278 331 278 331 263 348 c 128,-1,41
 248 365 248 365 230 376 c 128,-1,42
 212 387 212 387 193 387 c 0,43,44
 178 387 178 387 160 378 c 0,45,46
 138 367 138 367 129 347 c 128,-1,47
 120 327 120 327 120 302 c 0,48,49
 120 270 120 270 132 234.5 c 128,-1,50
 144 199 144 199 160 170 c 0,51,52
 172 148 172 148 185.5 126.5 c 128,-1,53
 199 105 199 105 215 88 c 128,-1,54
 231 71 231 71 248.5 60.5 c 128,-1,55
 266 50 266 50 286 50 c 0,56,57
 302 50 302 50 320 59 c 0,32,33
EndSplineSet
Validated: 1
EndChar

StartChar: afii10081
Encoding: 1087 1087 73
Width: 510
Flags: W
HStem: -6 21G<122.5 135.5 387 405> 413 24<175.928 340>
VStem: 65 106<1.56616 411.975> 78 104<-2.55249 40.6747 40.6747 241.031 244.654 247.781 250.686 413> 334 105<0.944946 413>
LayerCount: 2
Fore
SplineSet
78 0 m 5,0,1
 75 15 75 15 72.5 41.5 c 132,-1,2
 70 68 70 68 68.5 101 c 132,-1,3
 67 134 67 134 66 172 c 132,-1,4
 65 210 65 210 65 249 c 4,5,6
 65 303 65 303 67 352 c 132,-1,7
 69 401 69 401 73 437 c 5,8,-1
 444 437 l 5,9,10
 442 395 442 395 440.5 337.5 c 132,-1,11
 439 280 439 280 439 220 c 4,12,13
 439 151 439 151 441 90.5 c 132,-1,14
 443 30 443 30 449 0 c 5,15,16
 435 -3 435 -3 423 -4.5 c 132,-1,17
 411 -6 411 -6 399 -6 c 4,18,19
 375 -6 375 -6 345 0 c 5,20,21
 339 23 339 23 336.5 72.5 c 132,-1,22
 334 122 334 122 334 180 c 4,23,24
 334 213 334 213 334.5 246.5 c 132,-1,25
 335 280 335 280 336 310.5 c 132,-1,26
 337 341 337 341 338 367.5 c 132,-1,27
 339 394 339 394 340 413 c 5,28,-1
 177 413 l 5,29,30
 174 385 174 385 172.5 340.5 c 132,-1,31
 171 296 171 296 171 243 c 4,32,33
 171 180 171 180 173.5 115 c 132,-1,34
 176 50 176 50 182 0 c 5,35,36
 168 -2 168 -2 155 -3 c 132,-1,37
 142 -4 142 -4 129 -4 c 260,38,39
 116 -4 116 -4 104 -3 c 132,-1,40
 92 -2 92 -2 78 0 c 5,0,1
EndSplineSet
Validated: 1
EndChar

StartChar: afii10082
Encoding: 1088 1088 74
Width: 351
Flags: W
HStem: 425 20G<247.533 275.033>
VStem: 63.0332 59.4998<77.9061 268.842> 70.5332 83.9998<-341.825 -13.4048> 229.033 57.5<114.89 321.5>
LayerCount: 2
Fore
SplineSet
54.5332 -416 m 0,0,1
 67.5332 -390 67.5332 -390 77.0332 -364.5 c 128,-1,2
 86.5332 -339 86.5332 -339 85.5332 -307 c 0,3,4
 85.5332 -282 85.5332 -282 83.5332 -254.5 c 128,-1,5
 81.5332 -227 81.5332 -227 79.0332 -200 c 128,-1,6
 76.5332 -173 76.5332 -173 74.0332 -147 c 128,-1,7
 71.5332 -121 71.5332 -121 70.5332 -100 c 0,8,9
 68.5332 -69 68.5332 -69 66.5332 -41.5 c 128,-1,10
 64.5332 -14 64.5332 -14 63.0332 14 c 128,-1,11
 61.5332 42 61.5332 42 60.0332 71.5 c 128,-1,12
 58.5332 101 58.5332 101 58.5332 136 c 0,13,14
 57.5332 198 57.5332 198 71.0332 253.5 c 128,-1,15
 84.5332 309 84.5332 309 113.533 351 c 0,16,17
 141.533 392 141.533 392 182.533 416.5 c 128,-1,18
 223.533 441 223.533 441 271.533 445 c 0,19,20
 278.533 445 278.533 445 278.533 435 c 256,21,22
 278.533 425 278.533 425 277.033 409 c 128,-1,23
 275.533 393 275.533 393 275.533 380 c 0,24,25
 277.533 317 277.533 317 281.533 272 c 0,26,27
 283.533 246 283.533 246 285.033 227 c 128,-1,28
 286.533 208 286.533 208 286.533 187 c 0,29,30
 286.533 177 286.533 177 286.033 166.5 c 128,-1,31
 285.533 156 285.533 156 285.533 144 c 0,32,33
 284.533 109 284.533 109 277.533 76 c 128,-1,34
 270.533 43 270.533 43 246.533 22 c 0,35,36
 232.533 9 232.533 9 202.533 0.5 c 128,-1,37
 172.533 -8 172.533 -8 143.533 -12 c 1,38,39
 149.533 -57 149.533 -57 152.033 -96 c 128,-1,40
 154.533 -135 154.533 -135 154.533 -187 c 0,41,42
 154.533 -241 154.533 -241 147.033 -284.5 c 128,-1,43
 139.533 -328 139.533 -328 122.533 -369 c 0,44,45
 113.533 -391 113.533 -391 96.0332 -405.5 c 128,-1,46
 78.5332 -420 78.5332 -420 67.5332 -422 c 0,47,48
 63.5332 -423 63.5332 -423 58.0332 -421 c 128,-1,49
 52.5332 -419 52.5332 -419 54.5332 -416 c 0,0,1
122.533 198 m 0,50,51
 124.533 163 124.533 163 126.533 134.5 c 128,-1,52
 128.533 106 128.533 106 131.533 77 c 1,53,54
 161.533 84 161.533 84 188.533 99.5 c 128,-1,55
 215.533 115 215.533 115 229.533 152 c 1,56,57
 230.533 173 230.533 173 229.033 196 c 128,-1,58
 227.533 219 227.533 219 224.033 242 c 128,-1,59
 220.533 265 220.533 265 217.033 286 c 128,-1,60
 213.533 307 213.533 307 212.533 323 c 1,61,62
 194.533 320 194.533 320 178.033 307.5 c 128,-1,63
 161.533 295 161.533 295 149.533 277.5 c 128,-1,64
 137.533 260 137.533 260 130.533 239 c 128,-1,65
 123.533 218 123.533 218 122.533 198 c 0,50,51
EndSplineSet
Validated: 33
EndChar

StartChar: afii10083
Encoding: 1089 1089 75
Width: 318
Flags: W
HStem: 349 98<189.125 254.655>
VStem: 65 92<99.4219 315.719>
LayerCount: 2
Fore
SplineSet
83 -6 m 4,0,1
 81 -6 81 -6 79.5 -4 c 132,-1,2
 78 -2 78 -2 79 0 c 5,3,4
 84 23 84 23 81 51 c 4,5,6
 75 115 75 115 70.5 182 c 132,-1,7
 66 249 66 249 65 309 c 4,8,9
 65 344 65 344 81.5 370.5 c 132,-1,10
 98 397 98 397 125 414.5 c 132,-1,11
 152 432 152 432 185 440.5 c 132,-1,12
 218 449 218 449 251 447 c 5,13,14
 253 438 253 438 254.5 426.5 c 132,-1,15
 256 415 256 415 256.5 402 c 132,-1,16
 257 389 257 389 257 377 c 132,-1,17
 257 365 257 365 257 355 c 4,18,19
 257 353 257 353 253 351 c 132,-1,20
 249 349 249 349 247 349 c 4,21,22
 227 349 227 349 206.5 337.5 c 132,-1,23
 186 326 186 326 173 316 c 5,24,25
 167 307 167 307 163.5 298 c 132,-1,26
 160 289 160 289 159 275 c 4,27,28
 158 252 158 252 157.5 225.5 c 132,-1,29
 157 199 157 199 157 174 c 132,-1,30
 157 149 157 149 156.5 128.5 c 132,-1,31
 156 108 156 108 156 98 c 5,32,33
 161 98 161 98 167.5 99 c 132,-1,34
 174 100 174 100 179 100 c 5,35,36
 186 104 186 104 194 112.5 c 132,-1,37
 202 121 202 121 210.5 130.5 c 132,-1,38
 219 140 219 140 227 148.5 c 132,-1,39
 235 157 235 157 241 163 c 4,40,41
 246 167 246 167 251 157 c 132,-1,42
 256 147 256 147 256 140 c 4,43,44
 254 102 254 102 239 73.5 c 132,-1,45
 224 45 224 45 200 27 c 132,-1,46
 176 9 176 9 145.5 0.5 c 132,-1,47
 115 -8 115 -8 83 -6 c 4,0,1
EndSplineSet
Validated: 33
EndChar

StartChar: afii10084
Encoding: 1090 1090 76
Width: 652
Flags: W
HStem: -4 21G<344 356> 413 24<24.063 71 178 297 401 504>
VStem: 73 103.5<190.764 226.769 226.769 239.066 239.066 413> 293.5 104.5<-2.02246 38.2214 38.2214 337.011 337.011 413>
LayerCount: 2
Fore
SplineSet
299 0 m 1,0,1
 297 14 297 14 296 39 c 128,-1,2
 295 64 295 64 294.5 95 c 128,-1,3
 294 126 294 126 293.5 161.5 c 128,-1,4
 293 197 293 197 293 233 c 0,5,6
 293 287 293 287 294 335.5 c 128,-1,7
 295 384 295 384 297 413 c 1,8,-1
 178 413 l 5,9,10
 178 395 178 395 177.5 365 c 132,-1,11
 177 335 177 335 176.5 302.5 c 132,-1,12
 176 270 176 270 175 240 c 132,-1,13
 174 210 174 210 173 193 c 5,14,15
 159 191 159 191 146.5 190 c 132,-1,16
 134 189 134 189 121 189 c 4,17,18
 109 189 109 189 97 190 c 132,-1,19
 85 191 85 191 71 193 c 5,20,21
 72 204 72 204 72.5 227.5 c 132,-1,22
 73 251 73 251 73 278 c 4,23,24
 73 299 73 299 73 320.5 c 132,-1,25
 73 342 73 342 72.5 361 c 132,-1,26
 72 380 72 380 71.5 393.5 c 132,-1,27
 71 407 71 407 71 413 c 5,28,-1
 30 413 l 6,29,30
 26 413 26 413 24 416.5 c 132,-1,31
 22 420 22 420 22 424.5 c 132,-1,32
 22 429 22 429 24 433 c 132,-1,33
 26 437 26 437 30 437 c 6,34,-1
 615 437 l 6,35,36
 621 437 621 437 623 434 c 128,-1,37
 625 431 625 431 624.5 426.5 c 128,-1,38
 624 422 624 422 622 417.5 c 128,-1,39
 620 413 620 413 618 411 c 0,40,41
 595 388 595 388 583.5 353.5 c 128,-1,42
 572 319 572 319 568 286 c 0,43,44
 567 282 567 282 561.5 281.5 c 128,-1,45
 556 281 556 281 554 284 c 0,46,47
 544 297 544 297 536.5 313.5 c 128,-1,48
 529 330 529 330 523 347.5 c 128,-1,49
 517 365 517 365 512.5 382 c 128,-1,50
 508 399 508 399 504 413 c 1,51,-1
 401 413 l 1,52,53
 401 397 401 397 400.5 370 c 128,-1,54
 400 343 400 343 399.5 309 c 128,-1,55
 399 275 399 275 398.5 236.5 c 128,-1,56
 398 198 398 198 398 159 c 0,57,58
 398 115 398 115 398.5 73.5 c 128,-1,59
 399 32 399 32 400 0 c 1,60,61
 386 -2 386 -2 374 -3 c 128,-1,62
 362 -4 362 -4 350 -4 c 256,63,64
 338 -4 338 -4 325.5 -3 c 128,-1,65
 313 -2 313 -2 299 0 c 1,0,1
EndSplineSet
Validated: 1
EndChar

StartChar: afii10085
Encoding: 1091 1091 77
Width: 544
Flags: W
HStem: -9 21G<147.833 167.333> 326 117<392.988 470.88 470.88 494.021>
VStem: 280.333 59<-367.071 4 28 63.2175>
LayerCount: 2
Fore
SplineSet
249.333 -442 m 0,0,1
 259.333 -429 259.333 -429 262.833 -413 c 128,-1,2
 266.333 -397 266.333 -397 269.333 -375 c 0,3,4
 271.333 -360 271.333 -360 273.333 -340 c 128,-1,5
 275.333 -320 275.333 -320 276.833 -298 c 128,-1,6
 278.333 -276 278.333 -276 279.333 -253.5 c 128,-1,7
 280.333 -231 280.333 -231 280.333 -211 c 2,8,-1
 280.333 -114 l 2,9,10
 280.333 -85 280.333 -85 280.333 -55 c 128,-1,11
 280.333 -25 280.333 -25 281.333 4 c 1,12,13
 251.333 2 251.333 2 217.333 -1.5 c 128,-1,14
 183.333 -5 183.333 -5 151.333 -9 c 1,15,16
 144.333 25 144.333 25 133.333 78.5 c 128,-1,17
 122.333 132 122.333 132 107.833 192 c 128,-1,18
 93.333 252 93.333 252 74.833 313 c 128,-1,19
 56.333 374 56.333 374 34.333 424 c 0,20,21
 32.333 428 32.333 428 33.333 430.5 c 128,-1,22
 34.333 433 34.333 433 36.333 437 c 1,23,24
 52.333 440 52.333 440 79.333 440 c 0,25,26
 97.333 440 97.333 440 116.333 439 c 128,-1,27
 135.333 438 135.333 438 151.333 436 c 1,28,29
 160.333 412 160.333 412 171.833 376.5 c 128,-1,30
 183.333 341 183.333 341 194.833 300.5 c 128,-1,31
 206.333 260 206.333 260 217.333 217.5 c 128,-1,32
 228.333 175 228.333 175 237.333 138 c 128,-1,33
 246.333 101 246.333 101 252.333 72 c 128,-1,34
 258.333 43 258.333 43 260.333 29 c 1,35,36
 266.333 29 266.333 29 271.833 28.5 c 128,-1,37
 277.333 28 277.333 28 283.333 28 c 1,38,39
 286.333 78 286.333 78 289.833 120 c 128,-1,40
 293.333 162 293.333 162 302.333 214 c 0,41,42
 305.333 233 305.333 233 310.333 256 c 128,-1,43
 315.333 279 315.333 279 321.333 301 c 128,-1,44
 327.333 323 327.333 323 333.333 342 c 128,-1,45
 339.333 361 339.333 361 345.333 373 c 0,46,47
 360.333 405 360.333 405 382.833 423.5 c 128,-1,48
 405.333 442 405.333 442 434.333 443 c 2,49,-1
 464.333 443 l 2,50,51
 478.333 443 478.333 443 492.333 442.5 c 128,-1,52
 506.333 442 506.333 442 514.333 439 c 0,53,54
 517.333 438 517.333 438 518.333 435 c 128,-1,55
 519.333 432 519.333 432 517.333 429 c 0,56,57
 510.333 421 510.333 421 504.333 407 c 128,-1,58
 498.333 393 498.333 393 496.333 379 c 0,59,60
 493.333 361 493.333 361 494.333 351.5 c 128,-1,61
 495.333 342 495.333 342 497.333 329 c 0,62,63
 497.333 327 497.333 327 495.333 325 c 128,-1,64
 493.333 323 493.333 323 491.333 323 c 0,65,66
 483.333 324 483.333 324 472.333 325 c 128,-1,67
 461.333 326 461.333 326 450.333 326 c 0,68,69
 437.333 326 437.333 326 424.833 323.5 c 128,-1,70
 412.333 321 412.333 321 402.333 316 c 0,71,72
 398.333 314 398.333 314 391.833 303 c 128,-1,73
 385.333 292 385.333 292 378.333 277 c 128,-1,74
 371.333 262 371.333 262 365.833 244.5 c 128,-1,75
 360.333 227 360.333 227 357.333 212 c 0,76,77
 354.333 183 354.333 183 352.333 159 c 128,-1,78
 350.333 135 350.333 135 348.833 112 c 128,-1,79
 347.333 89 347.333 89 346.333 64 c 128,-1,80
 345.333 39 345.333 39 344.333 9 c 0,81,82
 342.333 -24 342.333 -24 341.833 -48.5 c 128,-1,83
 341.333 -73 341.333 -73 340.833 -95.5 c 128,-1,84
 340.333 -118 340.333 -118 339.333 -142 c 128,-1,85
 338.333 -166 338.333 -166 336.333 -199 c 0,86,87
 332.333 -253 332.333 -253 327.833 -305.5 c 128,-1,88
 323.333 -358 323.333 -358 308.333 -404 c 0,89,90
 302.333 -422 302.333 -422 290.833 -436 c 128,-1,91
 279.333 -450 279.333 -450 262.333 -458 c 0,92,93
 255.333 -461 255.333 -461 246.833 -458.5 c 128,-1,94
 238.333 -456 238.333 -456 249.333 -442 c 0,0,1
EndSplineSet
Validated: 33
EndChar

StartChar: afii10086
Encoding: 1092 1092 78
Width: 712
Flags: W
HStem: -223 22<249.003 301 417 432.266 432.266 457.906> -11 52<149 275.967 448.454 565.5> 546 22<264.003 289.734 289.734 305 409 429.172> 555 22<409.313 435.024 435.024 460.906>
VStem: 47 112<69.3818 193.235> 301 116<-198 -20.6667> 305 104<-141 30 396.136 546> 315.5 85.5<54.5852 393> 557 110<62.3928 195.875>
LayerCount: 2
Fore
SplineSet
451 -218 m 4,0,1
 425 -220 425 -220 405.5 -220.5 c 132,-1,2
 386 -221 386 -221 360 -222 c 4,3,4
 331 -223 331 -223 310 -223 c 132,-1,5
 289 -223 289 -223 260 -223 c 4,6,7
 249 -223 249 -223 249 -212 c 132,-1,8
 249 -201 249 -201 260 -201 c 6,9,-1
 301 -201 l 5,10,-1
 309 33 l 5,11,12
 281 10 281 10 250 -0.5 c 132,-1,13
 219 -11 219 -11 179 -11 c 4,14,15
 119 -11 119 -11 83 23.5 c 132,-1,16
 47 58 47 58 47 121 c 4,17,18
 47 154 47 154 62 181.5 c 132,-1,19
 77 209 77 209 100.5 232 c 132,-1,20
 124 255 124 255 152 274 c 132,-1,21
 180 293 180 293 206 311 c 4,22,23
 235 331 235 331 261.5 363.5 c 132,-1,24
 288 396 288 396 305 444 c 5,25,-1
 305 546 l 5,26,27
 297 545 297 545 289.5 545.5 c 132,-1,28
 282 546 282 546 275 546 c 4,29,30
 264 546 264 546 264 557 c 132,-1,31
 264 568 264 568 275 568 c 4,32,33
 292 568 292 568 312.5 568.5 c 132,-1,34
 333 569 333 569 357 570 c 4,35,36
 371 571 371 571 382.5 571.5 c 132,-1,37
 394 572 394 572 404.5 572.5 c 132,-1,38
 415 573 415 573 426.5 574 c 132,-1,39
 438 575 438 575 452 577 c 4,40,41
 458 578 458 578 461 575 c 132,-1,42
 464 572 464 572 464.5 567.5 c 132,-1,43
 465 563 465 563 462.5 559.5 c 132,-1,44
 460 556 460 556 454 555 c 4,45,46
 440 553 440 553 429.5 552.5 c 132,-1,47
 419 552 419 552 409 551 c 5,48,-1
 409 423 l 5,49,50
 432 388 432 388 461 361 c 132,-1,51
 490 334 490 334 516 315 c 4,52,53
 541 297 541 297 568 277 c 132,-1,54
 595 257 595 257 617 233.5 c 132,-1,55
 639 210 639 210 653 182 c 132,-1,56
 667 154 667 154 667 121 c 4,57,58
 667 89 667 89 656.5 65.5 c 132,-1,59
 646 42 646 42 629.5 25.5 c 132,-1,60
 613 9 613 9 593.5 1 c 132,-1,61
 574 -7 574 -7 557 -7 c 4,62,63
 518 -7 518 -7 479 2 c 132,-1,64
 440 11 440 11 408 30 c 5,65,-1
 417 -198 l 5,66,67
 425 -197 425 -197 432.5 -196.5 c 132,-1,68
 440 -196 440 -196 449 -196 c 4,69,70
 455 -196 455 -196 458 -199 c 132,-1,71
 461 -202 461 -202 461.5 -206 c 132,-1,72
 462 -210 462 -210 459.5 -214 c 132,-1,73
 457 -218 457 -218 451 -218 c 4,0,1
254 41 m 4,74,75
 271 41 271 41 288 51 c 132,-1,76
 305 61 305 61 317 76 c 5,77,78
 317 104 317 104 316.5 149 c 132,-1,79
 316 194 316 194 315.5 241 c 132,-1,80
 315 288 315 288 315 330.5 c 132,-1,81
 315 373 315 373 315 397 c 5,82,83
 296 365 296 365 272.5 330.5 c 132,-1,84
 249 296 249 296 227 267 c 4,85,86
 213 249 213 249 201 235 c 132,-1,87
 189 221 189 221 179.5 206.5 c 132,-1,88
 170 192 170 192 164.5 176.5 c 132,-1,89
 159 161 159 161 159 140 c 4,90,91
 159 97 159 97 181 69 c 132,-1,92
 203 41 203 41 254 41 c 4,74,75
486 272 m 4,93,94
 468 298 468 298 444 331 c 132,-1,95
 420 364 420 364 400 393 c 5,96,97
 400 380 400 380 400 355 c 132,-1,98
 400 330 400 330 400.5 299 c 132,-1,99
 401 268 401 268 401 234 c 132,-1,100
 401 200 401 200 401.5 168 c 132,-1,101
 402 136 402 136 402 108.5 c 132,-1,102
 402 81 402 81 402 65 c 5,103,104
 419 52 419 52 440.5 44 c 132,-1,105
 462 36 462 36 480 36 c 260,106,107
 498 36 498 36 512.5 44 c 132,-1,108
 527 52 527 52 537 64.5 c 132,-1,109
 547 77 547 77 552 92.5 c 132,-1,110
 557 108 557 108 557 123 c 4,111,112
 557 142 557 142 550.5 161 c 132,-1,113
 544 180 544 180 533.5 199 c 132,-1,114
 523 218 523 218 510.5 236 c 132,-1,115
 498 254 498 254 486 272 c 4,93,94
EndSplineSet
Validated: 33
EndChar

StartChar: afii10087
Encoding: 1093 1093 79
Width: 474
Flags: W
HStem: 343 98.5<303.618 384.337>
LayerCount: 2
Fore
SplineSet
58.2354 437 m 0,0,1
 67.2354 437 67.2354 437 78.2354 437.5 c 128,-1,2
 89.2354 438 89.2354 438 101.235 438 c 0,3,4
 121.235 438 121.235 438 139.235 436.5 c 128,-1,5
 157.235 435 157.235 435 165.235 430 c 1,6,7
 176.235 398 176.235 398 190.735 355.5 c 128,-1,8
 205.235 313 205.235 313 222.235 265 c 1,9,10
 227.235 279 227.235 279 232.735 292.5 c 128,-1,11
 238.235 306 238.235 306 244.235 320 c 0,12,13
 264.235 371 264.235 371 285.235 400 c 128,-1,14
 306.235 429 306.235 429 335.235 436 c 0,15,16
 352.235 441 352.235 441 376.235 441.5 c 128,-1,17
 400.235 442 400.235 442 424.235 445 c 0,18,19
 429.235 446 429.235 446 431.235 438 c 128,-1,20
 433.235 430 433.235 430 431.235 425 c 0,21,22
 424.235 408 424.235 408 419.235 391 c 128,-1,23
 414.235 374 414.235 374 414.235 353 c 0,24,25
 414.235 342 414.235 342 415.235 331 c 128,-1,26
 416.235 320 416.235 320 420.235 308 c 0,27,28
 421.235 303 421.235 303 413.235 304 c 128,-1,29
 405.235 305 405.235 305 401.235 308 c 0,30,31
 383.235 325 383.235 325 359.235 334 c 128,-1,32
 335.235 343 335.235 343 319.235 343 c 0,33,34
 304.235 343 304.235 343 289.235 333 c 128,-1,35
 274.235 323 274.235 323 267.235 309 c 0,36,37
 259.235 292 259.235 292 251.235 270.5 c 128,-1,38
 243.235 249 243.235 249 235.235 225 c 1,39,40
 262.235 147 262.235 147 290.735 61.5 c 128,-1,41
 319.235 -24 319.235 -24 345.735 -102.5 c 128,-1,42
 372.235 -181 372.235 -181 394.235 -246 c 128,-1,43
 416.235 -311 416.235 -311 429.235 -348 c 0,44,45
 431.235 -356 431.235 -356 424.235 -358 c 0,46,47
 409.235 -364 409.235 -364 380.235 -364 c 0,48,49
 366.235 -364 366.235 -364 351.235 -363 c 128,-1,50
 336.235 -362 336.235 -362 325.235 -360 c 1,51,52
 313.235 -329 313.235 -329 297.235 -282 c 128,-1,53
 281.235 -235 281.235 -235 261.735 -178 c 128,-1,54
 242.235 -121 242.235 -121 220.235 -56.5 c 128,-1,55
 198.235 8 198.235 8 175.235 74 c 1,56,57
 164.235 34 164.235 34 152.735 -9.5 c 128,-1,58
 141.235 -53 141.235 -53 130.235 -94.5 c 128,-1,59
 119.235 -136 119.235 -136 109.735 -173 c 128,-1,60
 100.235 -210 100.235 -210 93.2354 -237 c 0,61,62
 79.2354 -285 79.2354 -285 70.2354 -323 c 128,-1,63
 61.2354 -361 61.2354 -361 46.2354 -402 c 0,64,65
 39.2354 -422 39.2354 -422 21.2354 -435 c 128,-1,66
 3.23535 -448 3.23535 -448 -13.7646 -441 c 0,67,68
 -28.7646 -435 -28.7646 -435 -26.7646 -416.5 c 128,-1,69
 -24.7646 -398 -24.7646 -398 -16.7646 -383 c 0,70,71
 -5.76465 -363 -5.76465 -363 9.23535 -331 c 128,-1,72
 24.2354 -299 24.2354 -299 36.2354 -264 c 0,73,74
 46.2354 -235 46.2354 -235 61.2354 -190 c 128,-1,75
 76.2354 -145 76.2354 -145 92.7354 -92.5 c 128,-1,76
 109.235 -40 109.235 -40 127.235 14.5 c 128,-1,77
 145.235 69 145.235 69 161.235 117 c 1,78,79
 132.235 201 132.235 201 105.235 281 c 128,-1,80
 78.2354 361 78.2354 361 55.2354 428 c 0,81,82
 54.2354 431 54.2354 431 54.7354 434 c 128,-1,83
 55.2354 437 55.2354 437 58.2354 437 c 0,0,1
EndSplineSet
Validated: 33
EndChar

StartChar: afii10088
Encoding: 1094 1094 80
Width: 549
Flags: W
HStem: 0 24<184.516 334 443.868 451.792> 422 20G<170 178.5>
VStem: 69.5 102.5<24.8811 431.498> 77 103<220.969 393.233 393.233 436.138> 325 105<24.2831 431.435> 446.5 44.5<-399.37 -341.5 -341.5 -210.109> 456 79<-209.234 -0.624756>
LayerCount: 2
Fore
SplineSet
78 0 m 1,0,1
 73 45 73 45 69.5 100 c 128,-1,2
 66 155 66 155 66 220 c 0,3,4
 66 251 66 251 67 282 c 128,-1,5
 68 313 68 313 69.5 341 c 128,-1,6
 71 369 71 369 73 392.5 c 128,-1,7
 75 416 75 416 77 432 c 1,8,9
 97 437 97 437 128.5 439.5 c 128,-1,10
 160 442 160 442 180 442 c 1,11,12
 177 411 177 411 174.5 362 c 128,-1,13
 172 313 172 313 172 257 c 2,14,-1
 172 216 l 2,15,16
 174 158 174 158 177 105 c 128,-1,17
 180 52 180 52 187 24 c 1,18,-1
 334 24 l 1,19,20
 332 33 332 33 330.5 49.5 c 128,-1,21
 329 66 329 66 328 86 c 128,-1,22
 327 106 327 106 326 128.5 c 128,-1,23
 325 151 325 151 325 174 c 0,24,25
 325 212 325 212 327 250 c 128,-1,26
 329 288 329 288 332 322.5 c 128,-1,27
 335 357 335 357 338 385.5 c 128,-1,28
 341 414 341 414 342 432 c 1,29,30
 365 437 365 437 394 440 c 128,-1,31
 423 443 423 443 447 441 c 1,32,33
 444 418 444 418 441 388 c 128,-1,34
 438 358 438 358 435.5 323 c 128,-1,35
 433 288 433 288 431.5 250 c 128,-1,36
 430 212 430 212 430 174 c 0,37,38
 430 151 430 151 432 128.5 c 128,-1,39
 434 106 434 106 436.5 85.5 c 128,-1,40
 439 65 439 65 441.5 49 c 128,-1,41
 444 33 444 33 447 24 c 1,42,-1
 519 24 l 5,43,44
 521 19 521 19 524 7 c 132,-1,45
 527 -5 527 -5 530 -21 c 132,-1,46
 533 -37 533 -37 534.5 -53.5 c 132,-1,47
 536 -70 536 -70 535 -83 c 4,48,49
 533 -111 533 -111 529.5 -133 c 132,-1,50
 526 -155 526 -155 521.5 -174.5 c 132,-1,51
 517 -194 517 -194 512 -213.5 c 132,-1,52
 507 -233 507 -233 502 -256 c 4,53,54
 493 -297 493 -297 491.5 -333 c 132,-1,55
 490 -369 490 -369 491 -398 c 4,56,57
 491 -406 491 -406 482 -406 c 132,-1,58
 473 -406 473 -406 468 -400 c 4,59,60
 451 -380 451 -380 446.5 -341.5 c 132,-1,61
 442 -303 442 -303 444 -262 c 4,62,63
 445 -239 445 -239 447 -217.5 c 132,-1,64
 449 -196 449 -196 451.5 -174.5 c 132,-1,65
 454 -153 454 -153 456 -130.5 c 132,-1,66
 458 -108 458 -108 459 -82 c 4,67,68
 460 -58 460 -58 457 -39 c 132,-1,69
 454 -20 454 -20 449 0 c 5,70,-1
 78 0 l 1,0,1
EndSplineSet
Validated: 37
EndChar

StartChar: afii10089
Encoding: 1095 1095 81
Width: 452
Flags: W
HStem: -2 21G<304 371> 253 24<222.318 278 278 278> 420 20G<381 391.5>
VStem: 49 105<330.883 432.532> 278.5 103.5<-1.69482 39.7365 39.7365 79.5652 79.5652 253 277 434.307> 296 96<278.468 437.308>
LayerCount: 2
Fore
SplineSet
283 0 m 1,0,1
 282 16 282 16 281 40.5 c 128,-1,2
 280 65 280 65 279.5 94 c 128,-1,3
 279 123 279 123 278.5 154.5 c 128,-1,4
 278 186 278 186 278 216 c 2,5,-1
 278 253 l 1,6,7
 265 253 265 253 250.5 253 c 128,-1,8
 236 253 236 253 223 254 c 0,9,10
 208 254 208 254 193 255 c 0,11,12
 163 255 163 255 137 266.5 c 128,-1,13
 111 278 111 278 92 298 c 128,-1,14
 73 318 73 318 61.5 346 c 128,-1,15
 50 374 50 374 49 406 c 0,16,17
 49 418 49 418 52 433 c 1,18,19
 61 434 61 434 73.5 436 c 128,-1,20
 86 438 86 438 100 439 c 128,-1,21
 114 440 114 440 128 440.5 c 128,-1,22
 142 441 142 441 153 440 c 1,23,24
 153 434 153 434 153.5 425.5 c 128,-1,25
 154 417 154 417 154 409 c 2,26,-1
 154 390 l 2,27,28
 154 369 154 369 164.5 349 c 128,-1,29
 175 329 175 329 190.5 313.5 c 128,-1,30
 206 298 206 298 224 288 c 128,-1,31
 242 278 242 278 258 278 c 2,32,33
 260 277 260 277 264 277 c 2,34,-1
 278 277 l 1,35,36
 281 324 281 324 286 368.5 c 128,-1,37
 291 413 291 413 296 435 c 1,38,39
 319 438 319 438 344.5 439 c 128,-1,40
 370 440 370 440 392 440 c 1,41,42
 391 419 391 419 389.5 390.5 c 128,-1,43
 388 362 388 362 386.5 328 c 128,-1,44
 385 294 385 294 383.5 256.5 c 128,-1,45
 382 219 382 219 382 181 c 0,46,47
 381 127 381 127 383 81 c 128,-1,48
 385 35 385 35 388 0 c 1,49,50
 377 -2 377 -2 365 -2 c 128,-1,51
 353 -2 353 -2 339 -2 c 256,52,53
 325 -2 325 -2 311 -2 c 128,-1,54
 297 -2 297 -2 283 0 c 1,0,1
EndSplineSet
Validated: 33
EndChar

StartChar: afii10090
Encoding: 1096 1096 82
Width: 860
Flags: W
HStem: 0 24<184.749 379.25 490.62 688.25> 421 20G<480.75 492.75 785.25 789.25>
VStem: 72.25 106.5<25.0977 430.901> 373.25 112<25.0647 111 111 429.685> 677.25 106<25.0988 233 233 429.997> 688.25 99.5<24.4333 226.047 226.047 227.703 227.703 350.26 350.26 436.697>
LayerCount: 2
Fore
SplineSet
78.25 0 m 1,0,1
 75.25 45 75.25 45 72.25 100.5 c 128,-1,2
 69.25 156 69.25 156 70.25 221 c 0,3,4
 71.25 283 71.25 283 74.25 340 c 128,-1,5
 77.25 397 77.25 397 82.25 432 c 1,6,7
 99.25 438 99.25 438 131.25 440 c 128,-1,8
 163.25 442 163.25 442 194.25 441 c 1,9,10
 186.25 393 186.25 393 182.25 340 c 128,-1,11
 178.25 287 178.25 287 177.25 221 c 0,12,13
 176.25 161 176.25 161 178.75 110 c 128,-1,14
 181.25 59 181.25 59 186.25 24 c 1,15,-1
 379.25 24 l 1,16,17
 376.25 57 376.25 57 373.25 111 c 128,-1,18
 370.25 165 370.25 165 371.25 225 c 0,19,20
 372.25 286 372.25 286 375.25 337.5 c 128,-1,21
 378.25 389 378.25 389 384.25 431 c 1,22,23
 404.25 437 404.25 437 435.25 439 c 128,-1,24
 466.25 441 466.25 441 495.25 441 c 1,25,26
 490.25 405 490.25 405 487.25 350 c 128,-1,27
 484.25 295 484.25 295 483.25 233 c 2,28,-1
 483.25 195 l 2,29,30
 483.25 144 483.25 144 485.25 101 c 128,-1,31
 487.25 58 487.25 58 492.25 24 c 1,32,-1
 688.25 24 l 1,33,34
 685.25 59 685.25 59 681.75 114.5 c 128,-1,35
 678.25 170 678.25 170 677.25 233 c 2,36,-1
 677.25 263 l 2,37,38
 677.25 313 677.25 313 679.25 356 c 128,-1,39
 681.25 399 681.25 399 683.25 431 c 1,40,41
 692.25 434 692.25 434 705.25 436 c 128,-1,42
 718.25 438 718.25 438 733.25 438.5 c 128,-1,43
 748.25 439 748.25 439 763.75 439.5 c 128,-1,44
 779.25 440 779.25 440 791.25 440 c 1,45,46
 787.25 405 787.25 405 784.75 348.5 c 128,-1,47
 782.25 292 782.25 292 783.25 229 c 0,48,49
 784.25 162 784.25 162 787.75 103 c 128,-1,50
 791.25 44 791.25 44 795.25 0 c 1,51,-1
 78.25 0 l 1,0,1
EndSplineSet
Validated: 33
EndChar

StartChar: afii10091
Encoding: 1097 1097 83
Width: 806
Flags: W
HStem: 0 24<190.562 356 469 631> 422 20G<172.5 184>
VStem: 70 105<24.4641 431.592> 347 111.5<25.6549 430.901> 362 105<-122.438 0 24 218.5 222.06 232.822 232.822 435.875> 407 22<-396.002 -371.781> 416 59<-325.998 -170.931> 624 105<24.1809 431.963> 626.5 111.5<24 276.516>
LayerCount: 2
Fore
SplineSet
467 441 m 1,0,1
 462 396 462 396 458.5 342.5 c 128,-1,2
 455 289 455 289 456 221 c 0,3,4
 457 166 457 166 458.5 117.5 c 128,-1,5
 460 69 460 69 465 24 c 1,6,-1
 631 24 l 1,7,8
 629 53 629 53 626.5 92.5 c 128,-1,9
 624 132 624 132 624 178 c 0,10,11
 624 191 624 191 624 203.5 c 128,-1,12
 624 216 624 216 625 229 c 0,13,14
 627 289 627 289 631.5 344.5 c 128,-1,15
 636 400 636 400 644 433 c 1,16,17
 663 437 663 437 688.5 439.5 c 128,-1,18
 714 442 714 442 740 441 c 1,19,20
 735 403 735 403 731.5 348 c 128,-1,21
 728 293 728 293 729 231 c 0,22,23
 730 163 730 163 733.5 107 c 128,-1,24
 737 51 737 51 738 0 c 1,25,-1
 469 0 l 5,26,27
 471 -17 471 -17 472 -31.5 c 132,-1,28
 473 -46 473 -46 474 -59.5 c 132,-1,29
 475 -73 475 -73 475 -87.5 c 132,-1,30
 475 -102 475 -102 475 -120 c 4,31,32
 474 -159 474 -159 471 -199 c 132,-1,33
 468 -239 468 -239 462.5 -276 c 132,-1,34
 457 -313 457 -313 448.5 -344.5 c 132,-1,35
 440 -376 440 -376 429 -396 c 4,36,37
 424 -406 424 -406 414.5 -403 c 132,-1,38
 405 -400 405 -400 407 -392 c 4,39,40
 409 -378 409 -378 413.5 -355.5 c 132,-1,41
 418 -333 418 -333 416 -316 c 4,42,43
 413 -277 413 -277 407 -240 c 132,-1,44
 401 -203 401 -203 393 -165 c 132,-1,45
 385 -127 385 -127 376 -86.5 c 132,-1,46
 367 -46 367 -46 358 0 c 5,47,-1
 81 0 l 1,48,49
 79 11 79 11 77.5 35 c 128,-1,50
 76 59 76 59 74 90 c 128,-1,51
 72 121 72 121 71 156.5 c 128,-1,52
 70 192 70 192 70 225 c 256,53,54
 70 258 70 258 71.5 289.5 c 128,-1,55
 73 321 73 321 75 348 c 128,-1,56
 77 375 77 375 79 397 c 128,-1,57
 81 419 81 419 83 432 c 1,58,59
 108 437 108 437 134 439.5 c 128,-1,60
 160 442 160 442 185 442 c 1,61,62
 183 427 183 427 181 403 c 128,-1,63
 179 379 179 379 177.5 350.5 c 128,-1,64
 176 322 176 322 175.5 289.5 c 128,-1,65
 175 257 175 257 175 225 c 256,66,67
 175 193 175 193 177 162.5 c 128,-1,68
 179 132 179 132 181.5 105.5 c 128,-1,69
 184 79 184 79 187 58 c 128,-1,70
 190 37 190 37 193 24 c 1,71,-1
 356 24 l 1,72,73
 351 77 351 77 349 124.5 c 128,-1,74
 347 172 347 172 347 220 c 0,75,76
 347 286 347 286 352 341.5 c 128,-1,77
 357 397 357 397 362 432 c 1,78,79
 381 436 381 436 409.5 439.5 c 128,-1,80
 438 443 438 443 467 441 c 1,0,1
EndSplineSet
Validated: 33
EndChar

StartChar: afii10092
Encoding: 1098 1098 84
Width: 468
Flags: W
HStem: 0 24<191 305> 413 24<162.705 298>
VStem: 68 94<255.337 292.315 292.315 383.015 383.015 391.296 391.296 413> 298 113.5<24.4698 48.1575 48.1575 139.458>
LayerCount: 2
Fore
SplineSet
70 258 m 5,0,1
 68 271 68 271 68 293 c 132,-1,2
 68 315 68 315 68 340 c 260,3,4
 68 365 68 365 68 390.5 c 132,-1,5
 68 416 68 416 70 437 c 5,6,-1
 405 437 l 6,7,8
 411 437 411 437 411.5 432 c 128,-1,9
 412 427 412 427 410 424 c 0,10,11
 399 407 399 407 383.5 381.5 c 128,-1,12
 368 356 368 356 350 325.5 c 128,-1,13
 332 295 332 295 313 262 c 128,-1,14
 294 229 294 229 276 196 c 1,15,16
 278 197 278 197 281 196.5 c 128,-1,17
 284 196 284 196 286 197 c 1,18,19
 305 201 305 201 319 203.5 c 128,-1,20
 333 206 333 206 360 209 c 0,21,22
 364 210 364 210 367 207 c 128,-1,23
 370 204 370 204 372 200 c 0,24,25
 378 182 378 182 385 157 c 128,-1,26
 392 132 392 132 398 104 c 128,-1,27
 404 76 404 76 408.5 49 c 128,-1,28
 413 22 413 22 415 0 c 1,29,-1
 70 0 l 1,30,31
 69 6 69 6 70.5 15 c 128,-1,32
 72 24 72 24 74 28 c 0,33,34
 94 67 94 67 123.5 119 c 128,-1,35
 153 171 153 171 184.5 224.5 c 128,-1,36
 216 278 216 278 246.5 326.5 c 128,-1,37
 277 375 277 375 298 406 c 1,38,-1
 298 413 l 5,39,-1
 164 413 l 5,40,41
 162 399 162 399 162 382.5 c 132,-1,42
 162 366 162 366 162 348 c 4,43,44
 162 324 162 324 162.5 300 c 132,-1,45
 163 276 163 276 164 258 c 5,46,47
 144 254 144 254 118 254 c 4,48,49
 106 254 106 254 93.5 255 c 132,-1,50
 81 256 81 256 70 258 c 5,0,1
261 168 m 1,51,52
 237 124 237 124 218 88.5 c 128,-1,53
 199 53 199 53 191 35 c 1,54,55
 191 30 191 30 190.5 29.5 c 128,-1,56
 190 29 190 29 191 24 c 1,57,-1
 305 24 l 1,58,59
 305 39 305 39 302.5 58.5 c 128,-1,60
 300 78 300 78 296.5 98 c 128,-1,61
 293 118 293 118 288.5 136 c 128,-1,62
 284 154 284 154 280 168 c 1,63,-1
 261 168 l 1,51,52
EndSplineSet
Validated: 33
EndChar

StartChar: afii10093
Encoding: 1099 1099 85
Width: 667
Flags: W
HStem: 0 24<166 302> 422 20G<205 210>
VStem: 62 104<24 181.724> 488 103<192.969 436.514> 493.5 104.5<0.756836 316.969> 510 107<-1.82812 260.504>
LayerCount: 2
Fore
SplineSet
61 0 m 1,0,1
 61 23 61 23 62 58 c 128,-1,2
 63 93 63 93 65 134.5 c 128,-1,3
 67 176 67 176 70 219.5 c 128,-1,4
 73 263 73 263 76.5 303 c 128,-1,5
 80 343 80 343 83.5 375.5 c 128,-1,6
 87 408 87 408 91 428 c 1,7,8
 102 431 102 431 117 434 c 128,-1,9
 132 437 132 437 148.5 438.5 c 128,-1,10
 165 440 165 440 181.5 441 c 128,-1,11
 198 442 198 442 212 442 c 1,12,13
 208 424 208 424 204 399.5 c 128,-1,14
 200 375 200 375 196 346.5 c 128,-1,15
 192 318 192 318 188 286 c 128,-1,16
 184 254 184 254 181 222 c 1,17,18
 216 236 216 236 253.5 251 c 128,-1,19
 291 266 291 266 319 278 c 0,20,21
 323 280 323 280 326 276.5 c 128,-1,22
 329 273 329 273 331 270 c 0,23,24
 349 234 349 234 365 197 c 128,-1,25
 381 160 381 160 393 125 c 128,-1,26
 405 90 405 90 413.5 58 c 128,-1,27
 422 26 422 26 425 0 c 1,28,-1
 61 0 l 1,0,1
617 0 m 1,29,30
 588 -3 588 -3 566 -3 c 0,31,32
 540 -3 540 -3 510 0 c 1,33,34
 504 17 504 17 500 58.5 c 128,-1,35
 496 100 496 100 493.5 154 c 128,-1,36
 491 208 491 208 489.5 268.5 c 128,-1,37
 488 329 488 329 488 386 c 2,38,-1
 488 440 l 1,39,40
 514 441 514 441 541 439.5 c 128,-1,41
 568 438 568 438 591 432 c 1,42,43
 591 384 591 384 593 319 c 128,-1,44
 595 254 595 254 598 191 c 128,-1,45
 601 128 601 128 606 76 c 128,-1,46
 611 24 611 24 617 0 c 1,29,30
202 202 m 0,47,48
 192 191 192 191 185.5 177 c 128,-1,49
 179 163 179 163 174 148 c 1,50,51
 170 110 170 110 168 78.5 c 128,-1,52
 166 47 166 47 166 24 c 1,53,-1
 302 24 l 1,54,55
 297 69 297 69 278.5 119.5 c 128,-1,56
 260 170 260 170 231 215 c 1,57,58
 230 215 230 215 226 213 c 128,-1,59
 222 211 222 211 217 209 c 128,-1,60
 212 207 212 207 207.5 205 c 128,-1,61
 203 203 203 203 202 202 c 0,47,48
EndSplineSet
Validated: 37
EndChar

StartChar: afii10094
Encoding: 1100 1100 86
Width: 440
Flags: W
HStem: 0 24<172 283> 190 26<178 193.719 193.719 194.281 194.281 221.416>
VStem: 68 104<24 188.906>
LayerCount: 2
Fore
SplineSet
68 0 m 1,0,1
 68 59 68 59 70 124 c 128,-1,2
 72 189 72 189 75.5 248.5 c 128,-1,3
 79 308 79 308 83.5 356 c 128,-1,4
 88 404 88 404 92 430 c 1,5,6
 118 436 118 436 142.5 439.5 c 128,-1,7
 167 443 167 443 199 442 c 1,8,9
 194 407 194 407 188.5 347 c 128,-1,10
 183 287 183 287 178 216 c 1,11,12
 187 216 187 216 197 216.5 c 128,-1,13
 207 217 207 217 219 218 c 0,14,15
 245 220 245 220 261 226 c 128,-1,16
 277 232 277 232 301 237 c 1,17,18
 303 238 303 238 307.5 234 c 128,-1,19
 312 230 312 230 314 227 c 0,20,21
 326 208 326 208 337.5 184 c 128,-1,22
 349 160 349 160 360 134 c 128,-1,23
 371 108 371 108 380.5 81 c 128,-1,24
 390 54 390 54 396 29 c 0,25,26
 398 19 398 19 398 11 c 2,27,-1
 398 0 l 1,28,-1
 68 0 l 1,0,1
211 192 m 1,29,30
 203 191 203 191 194 191 c 128,-1,31
 185 191 185 191 176 190 c 1,32,33
 174 155 174 155 173 121 c 128,-1,34
 172 87 172 87 172 53 c 2,35,-1
 172 24 l 1,36,-1
 283 24 l 1,37,38
 278 45 278 45 270.5 69 c 128,-1,39
 263 93 263 93 253.5 115.5 c 128,-1,40
 244 138 244 138 233 158 c 128,-1,41
 222 178 222 178 211 192 c 1,29,30
EndSplineSet
Validated: 37
EndChar

StartChar: afii10096
Encoding: 1102 1102 87
Width: 551
Flags: W
HStem: -6 109<377.543 434.837> 326 116.5<378.281 434.301>
VStem: 68 104<-1.94238 32.892 32.892 260.131 282 428.463> 84 96<282.591 429 429 430.566> 294 65<119.242 280.406> 453 53<118.371 309.165>
LayerCount: 2
Fore
SplineSet
180 440 m 1,0,1
 179 421 179 421 177.5 378.5 c 128,-1,2
 176 336 176 336 175 282 c 1,3,4
 198 289 198 289 229 295 c 0,5,6
 245 298 245 298 260.5 300 c 128,-1,7
 276 302 276 302 290 306 c 0,8,9
 300 309 300 309 309 315 c 1,10,11
 322 357 322 357 343.5 389.5 c 128,-1,12
 365 422 365 422 394 438 c 0,13,14
 400 441 400 441 406.5 442.5 c 128,-1,15
 413 444 413 444 418 439 c 0,16,17
 434 425 434 425 449.5 402 c 128,-1,18
 465 379 465 379 477.5 349.5 c 128,-1,19
 490 320 490 320 498 286 c 128,-1,20
 506 252 506 252 506 216 c 0,21,22
 506 176 506 176 496 136.5 c 128,-1,23
 486 97 486 97 470 65.5 c 128,-1,24
 454 34 454 34 434 14 c 128,-1,25
 414 -6 414 -6 394 -6 c 0,26,27
 376 -6 376 -6 358 12.5 c 128,-1,28
 340 31 340 31 325.5 61 c 128,-1,29
 311 91 311 91 302.5 128.5 c 128,-1,30
 294 166 294 166 294 204 c 0,31,32
 294 224 294 224 295.5 243 c 128,-1,33
 297 262 297 262 301 281 c 1,34,35
 285 279 285 279 268.5 276 c 128,-1,36
 252 273 252 273 233 269 c 0,37,38
 216 265 216 265 202 262 c 128,-1,39
 188 259 188 259 174 255 c 1,40,41
 173 218 173 218 172.5 181 c 128,-1,42
 172 144 172 144 172 110 c 256,43,44
 172 76 172 76 172.5 47.5 c 128,-1,45
 173 19 173 19 174 0 c 1,46,47
 147 -3 147 -3 123 -3 c 0,48,49
 94 -3 94 -3 69 0 c 1,50,51
 68 14 68 14 68 33.5 c 128,-1,52
 68 53 68 53 68 76 c 0,53,54
 68 121 68 121 69 175.5 c 128,-1,55
 70 230 70 230 72 281 c 128,-1,56
 74 332 74 332 77 372 c 128,-1,57
 80 412 80 412 84 429 c 1,58,59
 133 442 133 442 180 440 c 1,0,1
453 208 m 0,60,61
 453 227 453 227 450.5 248 c 128,-1,62
 448 269 448 269 442 286.5 c 128,-1,63
 436 304 436 304 427 315 c 128,-1,64
 418 326 418 326 406 326 c 256,65,66
 394 326 394 326 385 314.5 c 128,-1,67
 376 303 376 303 370 286 c 128,-1,68
 364 269 364 269 361.5 249 c 128,-1,69
 359 229 359 229 359 212 c 0,70,71
 359 194 359 194 362 174.5 c 128,-1,72
 365 155 365 155 371 139 c 128,-1,73
 377 123 377 123 385.5 113 c 128,-1,74
 394 103 394 103 406 103 c 256,75,76
 418 103 418 103 426.5 112.5 c 128,-1,77
 435 122 435 122 441 137.5 c 128,-1,78
 447 153 447 153 450 171.5 c 128,-1,79
 453 190 453 190 453 208 c 0,60,61
EndSplineSet
Validated: 33
EndChar

StartChar: periodcentered
Encoding: 183 183 88
Width: 159
Flags: W
LayerCount: 2
Fore
SplineSet
37 215 m 256,0,1
 37 234 37 234 50 247 c 128,-1,2
 63 260 63 260 81 260 c 256,3,4
 99 260 99 260 112 247 c 128,-1,5
 125 234 125 234 125 215 c 256,6,7
 125 196 125 196 112 183 c 128,-1,8
 99 170 99 170 81 170 c 256,9,10
 63 170 63 170 50 183 c 128,-1,11
 37 196 37 196 37 215 c 256,0,1
EndSplineSet
Validated: 1
EndChar

StartChar: quotedbl
Encoding: 34 34 89
Width: 393
Flags: W
LayerCount: 2
Fore
SplineSet
154.777 632 m 0,0,1
 139.777 594 139.777 594 110.277 564 c 128,-1,2
 80.7773 534 80.7773 534 52.7773 518 c 0,3,4
 48.7773 516 48.7773 516 45.7773 518 c 128,-1,5
 42.7773 520 42.7773 520 47.7773 528 c 0,6,7
 74.7773 562 74.7773 562 93.7773 596.5 c 128,-1,8
 112.777 631 112.777 631 112.777 662 c 0,9,10
 112.777 691 112.777 691 94.7773 710 c 0,11,12
 87.7773 719 87.7773 719 76.2773 720.5 c 128,-1,13
 64.7773 722 64.7773 722 51.7773 718.5 c 128,-1,14
 38.7773 715 38.7773 715 25.7773 706 c 128,-1,15
 12.7773 697 12.7773 697 3.77734 684 c 0,16,17
 0.777344 679 0.777344 679 -4.22266 681 c 128,-1,18
 -9.22266 683 -9.22266 683 -5.22266 690 c 0,19,20
 4.77734 714 4.77734 714 21.2773 736 c 128,-1,21
 37.7773 758 37.7773 758 55.7773 773 c 128,-1,22
 73.7773 788 73.7773 788 92.7773 794.5 c 128,-1,23
 111.777 801 111.777 801 126.777 795 c 0,24,25
 146.777 786 146.777 786 157.277 761 c 128,-1,26
 167.777 736 167.777 736 167.777 704 c 0,27,28
 167.777 667 167.777 667 154.777 632 c 0,0,1
387.777 632 m 0,29,30
 373.777 594 373.777 594 344.277 564 c 128,-1,31
 314.777 534 314.777 534 287.777 518 c 0,32,33
 283.777 516 283.777 516 280.277 518 c 128,-1,34
 276.777 520 276.777 520 282.777 528 c 0,35,36
 308.777 562 308.777 562 327.777 597 c 128,-1,37
 346.777 632 346.777 632 346.777 664 c 0,38,39
 346.777 691 346.777 691 330.777 711 c 0,40,41
 323.777 719 323.777 719 311.777 720.5 c 128,-1,42
 299.777 722 299.777 722 286.277 718.5 c 128,-1,43
 272.777 715 272.777 715 259.277 706 c 128,-1,44
 245.777 697 245.777 697 236.777 684 c 0,45,46
 233.777 679 233.777 679 229.777 681 c 128,-1,47
 225.777 683 225.777 683 227.777 690 c 1,48,49
 238.777 714 238.777 714 255.277 736 c 128,-1,50
 271.777 758 271.777 758 290.277 773 c 128,-1,51
 308.777 788 308.777 788 327.277 794.5 c 128,-1,52
 345.777 801 345.777 801 360.777 795 c 0,53,54
 380.777 786 380.777 786 391.277 762 c 128,-1,55
 401.777 738 401.777 738 401.777 706 c 0,56,57
 401.777 671 401.777 671 387.777 632 c 0,29,30
EndSplineSet
Validated: 33
EndChar

StartChar: exclam
Encoding: 33 33 90
Width: 222
Flags: W
LayerCount: 2
Fore
SplineSet
116.2 178 m 0,0,1
 116.2 175 116.2 175 110.2 175 c 128,-1,2
 104.2 175 104.2 175 104.2 178 c 0,3,4
 99.2002 230 99.2002 230 91.2002 307 c 128,-1,5
 83.2002 384 83.2002 384 74.2002 465 c 128,-1,6
 65.2002 546 65.2002 546 56.2002 618.5 c 128,-1,7
 47.2002 691 47.2002 691 39.2002 734 c 0,8,9
 38.2002 740 38.2002 740 42.2002 746.5 c 128,-1,10
 46.2002 753 46.2002 753 53.2002 752 c 0,11,12
 78.2002 750 78.2002 750 106.2 748 c 128,-1,13
 134.2 746 134.2 746 155.2 744 c 0,14,15
 160.2 743 160.2 743 163.2 738 c 128,-1,16
 166.2 733 166.2 733 165.2 728 c 0,17,18
 162.2 705 162.2 705 158.2 663.5 c 128,-1,19
 154.2 622 154.2 622 149.2 571.5 c 128,-1,20
 144.2 521 144.2 521 139.2 464.5 c 128,-1,21
 134.2 408 134.2 408 130.2 355 c 128,-1,22
 126.2 302 126.2 302 122.2 255.5 c 128,-1,23
 118.2 209 118.2 209 116.2 178 c 0,0,1
107.2 131 m 256,24,25
 136.2 132 136.2 132 157.2 112 c 128,-1,26
 178.2 92 178.2 92 179.2 63 c 256,27,28
 180.2 34 180.2 34 160.7 13.5 c 128,-1,29
 141.2 -7 141.2 -7 112.2 -8 c 256,30,31
 83.2002 -9 83.2002 -9 61.7002 10.5 c 128,-1,32
 40.2002 30 40.2002 30 39.2002 59 c 256,33,34
 38.2002 88 38.2002 88 58.2002 109 c 128,-1,35
 78.2002 130 78.2002 130 107.2 131 c 256,24,25
EndSplineSet
Validated: 33
EndChar

StartChar: parenleft
Encoding: 40 40 91
Width: 319
Flags: W
LayerCount: 2
Fore
SplineSet
362.096 -434 m 1,0,1
 315.096 -427 315.096 -427 274.096 -393.5 c 128,-1,2
 233.096 -360 233.096 -360 198.096 -306.5 c 128,-1,3
 163.096 -253 163.096 -253 135.596 -184 c 128,-1,4
 108.096 -115 108.096 -115 89.0957 -37.5 c 128,-1,5
 70.0957 40 70.0957 40 60.0957 122.5 c 128,-1,6
 50.0957 205 50.0957 205 50.0957 285 c 0,7,8
 49.0957 363 49.0957 363 58.5957 445 c 128,-1,9
 68.0957 527 68.0957 527 87.0957 605.5 c 128,-1,10
 106.096 684 106.096 684 133.096 755 c 128,-1,11
 160.096 826 160.096 826 195.096 882 c 128,-1,12
 230.096 938 230.096 938 272.096 975 c 128,-1,13
 314.096 1012 314.096 1012 362.096 1023 c 1,14,-1
 362.096 1000 l 1,15,16
 319.096 986 319.096 986 288.096 950 c 128,-1,17
 257.096 914 257.096 914 235.096 862 c 128,-1,18
 213.096 810 213.096 810 199.596 745.5 c 128,-1,19
 186.096 681 186.096 681 178.096 609.5 c 128,-1,20
 170.096 538 170.096 538 167.596 464 c 128,-1,21
 165.096 390 165.096 390 165.096 319 c 2,22,-1
 165.096 285 l 2,23,24
 165.096 215 165.096 215 169.096 140.5 c 128,-1,25
 173.096 66 173.096 66 181.596 -6 c 128,-1,26
 190.096 -78 190.096 -78 204.596 -144.5 c 128,-1,27
 219.096 -211 219.096 -211 240.596 -264.5 c 128,-1,28
 262.096 -318 262.096 -318 292.096 -354.5 c 128,-1,29
 322.096 -391 322.096 -391 362.096 -404 c 1,30,-1
 362.096 -434 l 1,31,-1
 362.096 -434 l 1,0,1
EndSplineSet
Validated: 37
EndChar

StartChar: quotesingle
Encoding: 39 39 92
Width: 254
Flags: W
LayerCount: 2
Fore
SplineSet
200.92 750 m 0,0,1
 200.92 744 200.92 744 199.92 740.5 c 128,-1,2
 198.92 737 198.92 737 194.92 732 c 2,3,-1
 44.9199 548 l 2,4,5
 38.9199 541 38.9199 541 29.9199 541 c 2,6,-1
 13.9199 541 l 2,7,8
 6.91992 541 6.91992 541 1.41992 544 c 128,-1,9
 -4.08008 547 -4.08008 547 2.91992 558 c 2,10,-1
 101.92 724 l 2,11,12
 105.92 729 105.92 729 108.42 733 c 128,-1,13
 110.92 737 110.92 737 115.92 742 c 0,14,15
 131.92 757 131.92 757 142.92 762 c 128,-1,16
 153.92 767 153.92 767 173.92 767 c 0,17,18
 189.92 767 189.92 767 195.42 761 c 128,-1,19
 200.92 755 200.92 755 200.92 750 c 0,0,1
EndSplineSet
Validated: 33
EndChar

StartChar: uni00AD
Encoding: 173 173 93
Width: 399
Flags: W
LayerCount: 2
Fore
SplineSet
35 190 m 1,0,-1
 35 244 l 1,1,-1
 368 244 l 1,2,-1
 368 190 l 1,3,-1
 35 190 l 1,0,-1
EndSplineSet
Validated: 1
EndChar

StartChar: hyphen
Encoding: 45 45 94
Width: 399
Flags: W
LayerCount: 2
Fore
SplineSet
35 190 m 1,0,-1
 35 244 l 1,1,-1
 368 244 l 1,2,-1
 368 190 l 1,3,-1
 35 190 l 1,0,-1
EndSplineSet
Validated: 1
EndChar

StartChar: uni2219
Encoding: 8729 8729 95
Width: 159
Flags: W
LayerCount: 2
Fore
SplineSet
37 215 m 256,0,1
 37 234 37 234 50 247 c 128,-1,2
 63 260 63 260 81 260 c 256,3,4
 99 260 99 260 112 247 c 128,-1,5
 125 234 125 234 125 215 c 256,6,7
 125 196 125 196 112 183 c 128,-1,8
 99 170 99 170 81 170 c 256,9,10
 63 170 63 170 50 183 c 128,-1,11
 37 196 37 196 37 215 c 256,0,1
EndSplineSet
Validated: 1
EndChar

StartChar: parenright
Encoding: 41 41 96
Width: 319
Flags: W
LayerCount: 2
Fore
SplineSet
268 285 m 0,0,1
 268 209 268 209 257.5 128 c 128,-1,2
 247 47 247 47 228 -31 c 128,-1,3
 209 -109 209 -109 182 -179 c 128,-1,4
 155 -249 155 -249 120 -303.5 c 128,-1,5
 85 -358 85 -358 44 -392.5 c 128,-1,6
 3 -427 3 -427 -44 -434 c 1,7,-1
 -44 -404 l 1,8,9
 -4 -391 -4 -391 26 -354.5 c 128,-1,10
 56 -318 56 -318 77.5 -264.5 c 128,-1,11
 99 -211 99 -211 113.5 -144.5 c 128,-1,12
 128 -78 128 -78 136.5 -6 c 128,-1,13
 145 66 145 66 148.5 140.5 c 128,-1,14
 152 215 152 215 153 285 c 2,15,-1
 153 331 l 2,16,17
 153 401 153 401 150 474 c 128,-1,18
 147 547 147 547 139.5 617 c 128,-1,19
 132 687 132 687 118 750.5 c 128,-1,20
 104 814 104 814 82 865 c 128,-1,21
 60 916 60 916 29 951 c 128,-1,22
 -2 986 -2 986 -44 1000 c 1,23,-1
 -44 1023 l 1,24,25
 4 1012 4 1012 46 975 c 128,-1,26
 88 938 88 938 123 882 c 128,-1,27
 158 826 158 826 185 755 c 128,-1,28
 212 684 212 684 231 605.5 c 128,-1,29
 250 527 250 527 259.5 445 c 128,-1,30
 269 363 269 363 268 285 c 0,0,1
EndSplineSet
Validated: 33
EndChar

StartChar: asterisk
Encoding: 42 42 97
Width: 387
Flags: W
LayerCount: 2
Fore
SplineSet
280 505 m 1,0,-1
 326 412 l 1,1,-1
 233 457 l 1,2,-1
 198 361 l 1,3,-1
 164 457 l 1,4,-1
 73 412 l 1,5,-1
 117 505 l 1,6,-1
 21 539 l 1,7,-1
 115 573 l 1,8,-1
 71 665 l 1,9,-1
 164 620 l 1,10,-1
 198 716 l 1,11,-1
 233 620 l 1,12,-1
 326 665 l 1,13,-1
 280 573 l 1,14,-1
 376 539 l 1,15,-1
 280 505 l 1,0,-1
258 564 m 1,16,-1
 292 632 l 1,17,-1
 223 600 l 1,18,-1
 198 669 l 1,19,-1
 173 599 l 1,20,-1
 105 631 l 1,21,-1
 137 564 l 1,22,-1
 68 539 l 1,23,-1
 138 513 l 1,24,-1
 105 445 l 1,25,-1
 173 478 l 1,26,-1
 198 408 l 1,27,-1
 223 478 l 1,28,-1
 292 445 l 1,29,-1
 258 513 l 1,30,-1
 329 539 l 1,31,-1
 258 564 l 1,16,-1
EndSplineSet
Validated: 1
EndChar

StartChar: comma
Encoding: 44 44 98
Width: 304
Flags: W
LayerCount: 2
Fore
SplineSet
32 17 m 4,0,1
 46 48 46 48 60.5 67.5 c 132,-1,2
 75 87 75 87 98 110 c 4,3,4
 112 124 112 124 134 135.5 c 132,-1,5
 156 147 156 147 179 147 c 4,6,7
 191 147 191 147 202.5 143 c 132,-1,8
 214 139 214 139 224 129 c 4,9,10
 238 115 238 115 245 92 c 132,-1,11
 252 69 252 69 252 43 c 260,12,13
 252 17 252 17 245.5 -8.5 c 132,-1,14
 239 -34 239 -34 225 -57 c 4,15,16
 202 -96 202 -96 173 -120.5 c 132,-1,17
 144 -145 144 -145 111 -166 c 4,18,19
 97 -174 97 -174 93.5 -167 c 132,-1,20
 90 -160 90 -160 99 -155 c 4,21,22
 119 -143 119 -143 134 -127.5 c 132,-1,23
 149 -112 149 -112 159 -94 c 132,-1,24
 169 -76 169 -76 174 -57.5 c 132,-1,25
 179 -39 179 -39 179 -22 c 4,26,27
 179 12 179 12 161 32 c 4,28,29
 143 51 143 51 120 51 c 4,30,31
 83 51 83 51 47 10 c 4,32,33
 41 3 41 3 35 7 c 132,-1,34
 29 11 29 11 32 17 c 4,0,1
EndSplineSet
Validated: 33
EndChar

StartChar: afii10147
Encoding: 1138 1138 99
Width: 858
Flags: W
HStem: -8 21G<355.7 370.2> 276 24<199.356 216.2 336.2 538.2 662.2 683.2 795.2 814.2> 753 25<476.452 510.2>
VStem: 149.2 17<17.1025 63.9238> 204.2 127<301.221 508.504> 349.2 32<16.2503 87.51> 493.2 41<610.5 750.616> 538.2 126<300 315.75 315.75 468.497> 683.2 112<30 276>
LayerCount: 2
Fore
SplineSet
216.2 300 m 1,0,1
 204.2 339 204.2 339 204.2 388 c 0,2,3
 204.2 465 204.2 465 236.7 535 c 128,-1,4
 269.2 605 269.2 605 318.7 659 c 128,-1,5
 368.2 713 368.2 713 426.7 745 c 128,-1,6
 485.2 777 485.2 777 536.2 778 c 0,7,8
 540.2 778 540.2 778 545.2 773.5 c 128,-1,9
 550.2 769 550.2 769 548.2 766 c 0,10,11
 538.2 750 538.2 750 536.2 738.5 c 128,-1,12
 534.2 727 534.2 727 534.2 710 c 0,13,14
 534.2 695 534.2 695 541.7 678 c 128,-1,15
 549.2 661 549.2 661 560.7 642 c 128,-1,16
 572.2 623 572.2 623 584.7 602 c 128,-1,17
 597.2 581 597.2 581 608.2 558 c 0,18,19
 631.2 507 631.2 507 647.7 453.5 c 128,-1,20
 664.2 400 664.2 400 664.2 332 c 0,21,22
 664.2 324 664.2 324 663.7 316 c 128,-1,23
 663.2 308 663.2 308 662.2 300 c 1,24,-1
 814.2 300 l 1,25,-1
 814.2 276 l 1,26,-1
 795.2 276 l 1,27,-1
 795.2 30 l 1,28,-1
 683.2 30 l 1,29,-1
 683.2 276 l 1,30,-1
 658.2 276 l 1,31,32
 644.2 210 644.2 210 601.7 153 c 128,-1,33
 559.2 96 559.2 96 502.2 50 c 0,34,35
 485.2 36 485.2 36 469.7 25.5 c 128,-1,36
 454.2 15 454.2 15 437.7 7.5 c 128,-1,37
 421.2 0 421.2 0 401.7 -4 c 128,-1,38
 382.2 -8 382.2 -8 358.2 -8 c 0,39,40
 353.2 -8 353.2 -8 347.7 -3.5 c 128,-1,41
 342.2 1 342.2 1 343.2 6 c 0,42,43
 344.2 13 344.2 13 346.7 20 c 128,-1,44
 349.2 27 349.2 27 349.2 38 c 0,45,46
 349.2 53 349.2 53 340.7 72 c 128,-1,47
 332.2 91 332.2 91 320.2 110.5 c 128,-1,48
 308.2 130 308.2 130 294.7 149 c 128,-1,49
 281.2 168 281.2 168 272.2 184 c 0,50,51
 257.2 210 257.2 210 244.7 231.5 c 128,-1,52
 232.2 253 232.2 253 224.2 276 c 1,53,-1
 209.2 276 l 1,54,55
 196.2 266 196.2 266 191.2 241.5 c 128,-1,56
 186.2 217 186.2 217 181.2 194 c 0,57,58
 178.2 180 178.2 180 175.7 157 c 128,-1,59
 173.2 134 173.2 134 171.2 108.5 c 128,-1,60
 169.2 83 169.2 83 167.7 59.5 c 128,-1,61
 166.2 36 166.2 36 166.2 21 c 0,62,63
 166.2 16 166.2 16 158.2 17 c 128,-1,64
 150.2 18 150.2 18 149.2 23 c 0,65,66
 140.2 83 140.2 83 112.2 142 c 0,67,68
 90.2002 187 90.2002 187 69.7002 218 c 128,-1,69
 49.2002 249 49.2002 249 29.2002 276 c 0,70,71
 25.2002 281 25.2002 281 26.2002 290.5 c 128,-1,72
 27.2002 300 27.2002 300 34.2002 300 c 2,73,-1
 216.2 300 l 1,0,1
510.2 753 m 1,74,75
 504.2 753 504.2 753 494.2 749 c 128,-1,76
 484.2 745 484.2 745 474.2 740 c 128,-1,77
 464.2 735 464.2 735 455.2 729.5 c 128,-1,78
 446.2 724 446.2 724 440.2 720 c 1,79,80
 416.2 697 416.2 697 396.2 659.5 c 128,-1,81
 376.2 622 376.2 622 361.7 576.5 c 128,-1,82
 347.2 531 347.2 531 339.2 480.5 c 128,-1,83
 331.2 430 331.2 430 331.2 382 c 0,84,85
 331.2 359 331.2 359 331.2 339 c 128,-1,86
 331.2 319 331.2 319 333.2 300 c 1,87,-1
 538.2 300 l 1,88,89
 538.2 340 538.2 340 533.7 374 c 128,-1,90
 529.2 408 529.2 408 522.7 439.5 c 128,-1,91
 516.2 471 516.2 471 509.2 502 c 128,-1,92
 502.2 533 502.2 533 497.2 568 c 0,93,94
 495.2 580 495.2 580 494.2 592 c 128,-1,95
 493.2 604 493.2 604 493.2 617 c 0,96,97
 493.2 657 493.2 657 500.2 693 c 128,-1,98
 507.2 729 507.2 729 513.2 749 c 1,99,-1
 510.2 753 l 1,74,75
487.2 69 m 1,100,101
 503.2 95 503.2 95 513.2 118.5 c 128,-1,102
 523.2 142 523.2 142 528.2 166.5 c 128,-1,103
 533.2 191 533.2 191 535.2 217.5 c 128,-1,104
 537.2 244 537.2 244 538.2 276 c 1,105,-1
 336.2 276 l 1,106,107
 339.2 250 339.2 250 346.2 224.5 c 128,-1,108
 353.2 199 353.2 199 366.2 170 c 0,109,110
 374.2 152 374.2 152 377.7 128 c 128,-1,111
 381.2 104 381.2 104 381.2 80 c 0,112,113
 381.2 63 381.2 63 379.7 46.5 c 128,-1,114
 378.2 30 378.2 30 374.2 16 c 1,115,116
 405.2 18 405.2 18 434.7 34 c 128,-1,117
 464.2 50 464.2 50 487.2 69 c 1,100,101
EndSplineSet
Validated: 37
EndChar

StartChar: uni0476
Encoding: 1142 1142 100
Width: 678
Flags: W
HStem: 0 24<270.333 376.333 400.333 467.333> 750 20G<41.333 204.333>
VStem: 161.333 109<24 411.893>
LayerCount: 2
Fore
SplineSet
161.333 0 m 1,0,1
 161.333 83 161.333 83 157.833 186 c 128,-1,2
 154.333 289 154.333 289 141.833 393.5 c 128,-1,3
 129.333 498 129.333 498 104.833 594 c 128,-1,4
 80.333 690 80.333 690 39.333 758 c 0,5,6
 37.333 761 37.333 761 38.333 765.5 c 128,-1,7
 39.333 770 39.333 770 43.333 770 c 2,8,-1
 196.333 770 l 1,9,10
 212.333 730 212.333 730 224.333 674 c 128,-1,11
 236.333 618 236.333 618 244.333 553.5 c 128,-1,12
 252.333 489 252.333 489 257.333 418.5 c 128,-1,13
 262.333 348 262.333 348 265.333 278.5 c 128,-1,14
 268.333 209 268.333 209 269.333 143.5 c 128,-1,15
 270.333 78 270.333 78 270.333 24 c 1,16,-1
 376.333 24 l 1,17,-1
 404.333 472 l 2,18,19
 407.333 520 407.333 520 412.833 556.5 c 128,-1,20
 418.333 593 418.333 593 425.833 620 c 128,-1,21
 433.333 647 433.333 647 442.833 666.5 c 128,-1,22
 452.333 686 452.333 686 463.333 701 c 0,23,24
 477.333 721 477.333 721 504.333 741 c 128,-1,25
 531.333 761 531.333 761 562.333 770 c 0,26,27
 582.333 776 582.333 776 598.833 777.5 c 128,-1,28
 615.333 779 615.333 779 636.333 782 c 0,29,30
 644.333 783 644.333 783 647.833 782 c 128,-1,31
 651.333 781 651.333 781 648.333 771 c 0,32,33
 642.333 750 642.333 750 638.333 730 c 128,-1,34
 634.333 710 634.333 710 634.333 686 c 0,35,36
 634.333 663 634.333 663 640.333 635.5 c 128,-1,37
 646.333 608 646.333 608 651.333 591 c 0,38,39
 652.333 589 652.333 589 649.333 587.5 c 128,-1,40
 646.333 586 646.333 586 644.333 588 c 0,41,42
 621.333 616 621.333 616 593.333 631.5 c 128,-1,43
 565.333 647 565.333 647 533.333 646 c 0,44,45
 482.333 645 482.333 645 457.833 601 c 128,-1,46
 433.333 557 433.333 557 428.333 470 c 2,47,-1
 400.333 24 l 1,48,-1
 467.333 24 l 1,49,-1
 467.333 0 l 1,50,-1
 161.333 0 l 1,0,1
183.333 1017 m 6,51,52
 181.333 1024 181.333 1024 188.333 1024 c 6,53,-1
 224.333 1024 l 5,54,-1
 278.333 843 l 6,55,56
 280.333 836 280.333 836 273.333 836 c 6,57,-1
 236.333 836 l 5,58,-1
 183.333 1017 l 6,51,52
312.333 1017 m 6,59,60
 310.333 1024 310.333 1024 317.333 1024 c 6,61,-1
 353.333 1024 l 5,62,-1
 407.333 843 l 6,63,64
 409.333 836 409.333 836 402.333 836 c 6,65,-1
 365.333 836 l 5,66,-1
 312.333 1017 l 6,59,60
EndSplineSet
Validated: 33
EndChar

StartChar: uni0470
Encoding: 1136 1136 101
Width: 884
Flags: W
HStem: 0 24<334 413 513 620> 660 117<745.551 821.026>
VStem: 218 116<24 254.492> 411.5 110.5<207.845 668.085> 413 100<-93.4353 0 24 471.156> 620 24<24 407.201>
LayerCount: 2
Fore
SplineSet
577 -150 m 0,0,1
 561 -153 561 -153 545 -162 c 128,-1,2
 529 -171 529 -171 515.5 -182 c 128,-1,3
 502 -193 502 -193 492 -206 c 128,-1,4
 482 -219 482 -219 479 -231 c 0,5,6
 475 -243 475 -243 463 -244 c 1,7,8
 450 -243 450 -243 446 -231 c 0,9,10
 443 -219 443 -219 433 -206 c 128,-1,11
 423 -193 423 -193 409.5 -182 c 128,-1,12
 396 -171 396 -171 380.5 -162 c 128,-1,13
 365 -153 365 -153 349 -150 c 0,14,15
 343 -149 343 -149 340.5 -144.5 c 128,-1,16
 338 -140 338 -140 338 -135 c 128,-1,17
 338 -130 338 -130 340.5 -126 c 128,-1,18
 343 -122 343 -122 349 -120 c 0,19,20
 381 -111 381 -111 397 -85 c 128,-1,21
 413 -59 413 -59 413 -29 c 2,22,-1
 413 0 l 1,23,-1
 218 0 l 1,24,25
 217 44 217 44 213 104 c 128,-1,26
 209 164 209 164 201 231.5 c 128,-1,27
 193 299 193 299 180 371 c 128,-1,28
 167 443 167 443 147 512.5 c 128,-1,29
 127 582 127 582 99.5 645 c 128,-1,30
 72 708 72 708 36 758 c 1,31,-1
 42 770 l 1,32,33
 55 771 55 771 70 771.5 c 128,-1,34
 85 772 85 772 101 772 c 0,35,36
 120 772 120 772 138 771.5 c 128,-1,37
 156 771 156 771 170 770 c 1,38,39
 190 740 190 740 210 685.5 c 128,-1,40
 230 631 230 631 248.5 563.5 c 128,-1,41
 267 496 267 496 282.5 420.5 c 128,-1,42
 298 345 298 345 309.5 272.5 c 128,-1,43
 321 200 321 200 327.5 135 c 128,-1,44
 334 70 334 70 334 24 c 1,45,-1
 413 24 l 1,46,-1
 413 37 l 2,47,48
 413 107 413 107 412.5 191.5 c 128,-1,49
 412 276 412 276 411.5 366.5 c 128,-1,50
 411 457 411 457 409.5 548.5 c 128,-1,51
 408 640 408 640 406 725.5 c 128,-1,52
 404 811 404 811 401 885 c 128,-1,53
 398 959 398 959 394 1014 c 1,54,-1
 366 1010 l 2,55,56
 360 1009 360 1009 356.5 1012 c 128,-1,57
 353 1015 353 1015 352 1019.5 c 128,-1,58
 351 1024 351 1024 353.5 1028.5 c 128,-1,59
 356 1033 356 1033 362 1034 c 2,60,-1
 587 1072 l 2,61,62
 593 1073 593 1073 596.5 1070 c 128,-1,63
 600 1067 600 1067 601 1062.5 c 128,-1,64
 602 1058 602 1058 599.5 1053.5 c 128,-1,65
 597 1049 597 1049 591 1048 c 2,66,-1
 563 1043 l 1,67,68
 558 993 558 993 553 920.5 c 128,-1,69
 548 848 548 848 542 762 c 128,-1,70
 536 676 536 676 531 581 c 128,-1,71
 526 486 526 486 522 391 c 128,-1,72
 518 296 518 296 515.5 205 c 128,-1,73
 513 114 513 114 513 37 c 2,74,-1
 513 24 l 1,75,-1
 620 24 l 1,76,-1
 620 192 l 2,77,78
 620 244 620 244 623 297 c 128,-1,79
 626 350 626 350 631 399.5 c 128,-1,80
 636 449 636 449 643 493 c 128,-1,81
 650 537 650 537 659 572 c 0,82,83
 671 622 671 622 685 663 c 128,-1,84
 699 704 699 704 724 735 c 0,85,86
 739 754 739 754 763.5 765.5 c 128,-1,87
 788 777 788 777 814 777 c 0,88,89
 835 777 835 777 851 772 c 128,-1,90
 867 767 867 767 884 761 c 1,91,92
 880 722 880 722 870.5 685.5 c 128,-1,93
 861 649 861 649 850 615 c 1,94,95
 846 615 846 615 842 613.5 c 128,-1,96
 838 612 838 612 836 615 c 0,97,98
 831 621 831 621 826.5 629 c 128,-1,99
 822 637 822 637 817 644 c 128,-1,100
 812 651 812 651 806 655.5 c 128,-1,101
 800 660 800 660 791 660 c 0,102,103
 771 659 771 659 755 650 c 128,-1,104
 739 641 739 641 726 627 c 128,-1,105
 713 613 713 613 703.5 594 c 128,-1,106
 694 575 694 575 687 554 c 256,107,108
 680 533 680 533 672.5 502 c 128,-1,109
 665 471 665 471 658.5 426.5 c 128,-1,110
 652 382 652 382 648 321.5 c 128,-1,111
 644 261 644 261 644 182 c 2,112,-1
 644 0 l 1,113,-1
 513 0 l 1,114,-1
 513 -29 l 2,115,116
 513 -59 513 -59 529 -85 c 128,-1,117
 545 -111 545 -111 577 -120 c 0,118,119
 583 -122 583 -122 585.5 -126 c 128,-1,120
 588 -130 588 -130 588 -135 c 128,-1,121
 588 -140 588 -140 585.5 -144.5 c 128,-1,122
 583 -149 583 -149 577 -150 c 0,0,1
EndSplineSet
Validated: 1
EndChar

StartChar: uni047A
Encoding: 1146 1146 102
Width: 840
Flags: W
HStem: -60 148<366.911 472.461> 682 148<366.911 472.461>
VStem: 55 129<229.782 539.05> 656 129<229.782 539.05>
LayerCount: 2
Fore
SplineSet
785 385 m 0,0,1
 785 311 785 311 767.5 244.5 c 128,-1,2
 750 178 750 178 714 126 c 128,-1,3
 678 74 678 74 622.5 40 c 128,-1,4
 567 6 567 6 492 -3 c 1,5,6
 486 -28 486 -28 466 -44 c 128,-1,7
 446 -60 446 -60 420 -60 c 256,8,9
 394 -60 394 -60 373.5 -44 c 128,-1,10
 353 -28 353 -28 348 -3 c 1,11,12
 273 6 273 6 217.5 40 c 128,-1,13
 162 74 162 74 126 126 c 128,-1,14
 90 178 90 178 72.5 244.5 c 128,-1,15
 55 311 55 311 55 385 c 0,16,17
 55 458 55 458 72.5 524.5 c 128,-1,18
 90 591 90 591 126 643 c 128,-1,19
 162 695 162 695 217.5 729.5 c 128,-1,20
 273 764 273 764 348 773 c 1,21,22
 353 798 353 798 373.5 814 c 128,-1,23
 394 830 394 830 420 830 c 256,24,25
 446 830 446 830 466 814 c 128,-1,26
 486 798 486 798 492 773 c 1,27,28
 567 764 567 764 622.5 729.5 c 128,-1,29
 678 695 678 695 714 643 c 128,-1,30
 750 591 750 591 767.5 524.5 c 128,-1,31
 785 458 785 458 785 385 c 0,0,1
646 562 m 0,32,33
 643 592 643 592 634 622.5 c 128,-1,34
 625 653 625 653 607 678.5 c 128,-1,35
 589 704 589 704 561.5 722.5 c 128,-1,36
 534 741 534 741 494 749 c 1,37,38
 491 720 491 720 470 701 c 128,-1,39
 449 682 449 682 420 682 c 256,40,41
 391 682 391 682 369.5 701 c 128,-1,42
 348 720 348 720 346 749 c 1,43,44
 306 741 306 741 278 722.5 c 128,-1,45
 250 704 250 704 232.5 678.5 c 128,-1,46
 215 653 215 653 206 622.5 c 128,-1,47
 197 592 197 592 194 562 c 0,48,49
 190 519 190 519 187 477 c 128,-1,50
 184 435 184 435 184 385 c 256,51,52
 184 335 184 335 187 293 c 128,-1,53
 190 251 190 251 194 208 c 0,54,55
 197 177 197 177 206 147 c 128,-1,56
 215 117 215 117 232.5 91.5 c 128,-1,57
 250 66 250 66 278 47 c 128,-1,58
 306 28 306 28 346 20 c 1,59,60
 348 49 348 49 369.5 68.5 c 128,-1,61
 391 88 391 88 420 88 c 256,62,63
 449 88 449 88 470 68.5 c 128,-1,64
 491 49 491 49 494 20 c 1,65,66
 534 28 534 28 561.5 47 c 128,-1,67
 589 66 589 66 607 91.5 c 128,-1,68
 625 117 625 117 634 147 c 128,-1,69
 643 177 643 177 646 208 c 0,70,71
 650 251 650 251 653 293 c 128,-1,72
 656 335 656 335 656 385 c 256,73,74
 656 435 656 435 653 477 c 128,-1,75
 650 519 650 519 646 562 c 0,32,33
EndSplineSet
Validated: 1
EndChar

StartChar: uni047E
Encoding: 1150 1150 103
Width: 1084
Flags: W
HStem: -8 44<322.037 458.897 624.375 761.963> 756 22<304.436 371.156 371.156 381 702 711.844 711.844 779.564> 820 186<481 601> 986 20<371.361 481 601 710.639>
VStem: 55 130<244.918 546.753> 344 124<690 744> 407 270<166.776 255.167> 481 120<820 986> 499 86<273.125 350.665> 592 148<638.004 741.995> 899 130<244.918 546.753>
LayerCount: 2
Fore
SplineSet
488 273 m 1,0,1
 496 277 496 277 499 281 c 1,2,3
 499 295 499 295 493.5 312 c 128,-1,4
 488 329 488 329 479 347 c 0,5,6
 471 364 471 364 462 376.5 c 128,-1,7
 453 389 453 389 445 401 c 0,8,9
 443 404 443 404 442.5 410.5 c 128,-1,10
 442 417 442 417 447 417 c 2,11,-1
 637 417 l 2,12,13
 642 417 642 417 641.5 410.5 c 128,-1,14
 641 404 641 404 639 401 c 0,15,16
 631 389 631 389 622 376.5 c 128,-1,17
 613 364 613 364 605 347 c 0,18,19
 596 329 596 329 590.5 312 c 128,-1,20
 585 295 585 295 585 281 c 1,21,22
 592 274 592 274 598 273 c 0,23,24
 631 269 631 269 654 256 c 128,-1,25
 677 243 677 243 677 209 c 0,26,27
 677 192 677 192 670.5 181.5 c 128,-1,28
 664 171 664 171 654 165 c 128,-1,29
 644 159 644 159 631.5 156 c 128,-1,30
 619 153 619 153 607 152 c 0,31,32
 585 150 585 150 566 140 c 1,33,34
 574 93 574 93 600 64.5 c 128,-1,35
 626 36 626 36 679 36 c 0,36,37
 737 36 737 36 778.5 69 c 128,-1,38
 820 102 820 102 847 154.5 c 128,-1,39
 874 207 874 207 886.5 272.5 c 128,-1,40
 899 338 899 338 899 404 c 0,41,42
 899 465 899 465 892.5 527.5 c 128,-1,43
 886 590 886 590 866.5 641 c 128,-1,44
 847 692 847 692 812.5 724 c 128,-1,45
 778 756 778 756 722 756 c 0,46,47
 717 756 717 756 712 755.5 c 128,-1,48
 707 755 707 755 702 754 c 1,49,50
 706 752 706 752 710 749 c 128,-1,51
 714 746 714 746 718 742 c 0,52,53
 740 718 740 718 740 690 c 0,54,55
 740 660 740 660 718 638 c 256,56,57
 696 616 696 616 666 616 c 0,58,59
 635 616 635 616 614 638 c 0,60,61
 592 659 592 659 592 690 c 0,62,63
 592 720 592 720 614 742 c 2,64,-1
 616 744 l 2,65,66
 628 756 628 756 643 762.5 c 128,-1,67
 658 769 658 769 673 772.5 c 128,-1,68
 688 776 688 776 700.5 777 c 128,-1,69
 713 778 713 778 721 778 c 0,70,71
 783 778 783 778 839 751 c 128,-1,72
 895 724 895 724 937 674.5 c 128,-1,73
 979 625 979 625 1004 555.5 c 128,-1,74
 1029 486 1029 486 1029 402 c 0,75,76
 1029 328 1029 328 1010 254.5 c 128,-1,77
 991 181 991 181 953.5 122.5 c 128,-1,78
 916 64 916 64 860.5 28 c 128,-1,79
 805 -8 805 -8 733 -8 c 0,80,81
 682 -8 682 -8 647.5 4 c 128,-1,82
 613 16 613 16 591 35.5 c 128,-1,83
 569 55 569 55 558 79.5 c 128,-1,84
 547 104 547 104 543 128 c 1,85,-1
 541 128 l 1,86,87
 536 104 536 104 525 79.5 c 128,-1,88
 514 55 514 55 492 35.5 c 128,-1,89
 470 16 470 16 436 4 c 128,-1,90
 402 -8 402 -8 351 -8 c 0,91,92
 279 -8 279 -8 223.5 28 c 128,-1,93
 168 64 168 64 130.5 122.5 c 128,-1,94
 93 181 93 181 74 254.5 c 128,-1,95
 55 328 55 328 55 402 c 0,96,97
 55 486 55 486 80 555.5 c 128,-1,98
 105 625 105 625 147 674.5 c 128,-1,99
 189 724 189 724 245 751 c 128,-1,100
 301 778 301 778 363 778 c 0,101,102
 370 778 370 778 383 777 c 128,-1,103
 396 776 396 776 411 772.5 c 128,-1,104
 426 769 426 769 441 762.5 c 128,-1,105
 456 756 456 756 468 744 c 1,106,107
 468 742 468 742 470 742 c 1,108,109
 492 718 492 718 492 690 c 0,110,111
 492 660 492 660 470 638 c 256,112,113
 448 616 448 616 418 616 c 0,114,115
 387 616 387 616 366 638 c 0,116,117
 344 659 344 659 344 690 c 0,118,119
 344 720 344 720 366 742 c 0,120,121
 373 749 373 749 381 754 c 1,122,123
 376 755 376 755 371 755.5 c 128,-1,124
 366 756 366 756 362 756 c 0,125,126
 306 756 306 756 271.5 724 c 128,-1,127
 237 692 237 692 217.5 641 c 128,-1,128
 198 590 198 590 191.5 527.5 c 128,-1,129
 185 465 185 465 185 404 c 0,130,131
 185 338 185 338 197.5 272.5 c 128,-1,132
 210 207 210 207 237 154.5 c 128,-1,133
 264 102 264 102 305.5 69 c 128,-1,134
 347 36 347 36 405 36 c 0,135,136
 457 36 457 36 483.5 64.5 c 128,-1,137
 510 93 510 93 518 140 c 1,138,139
 498 151 498 151 477 153 c 0,140,141
 465 154 465 154 452.5 157 c 128,-1,142
 440 160 440 160 430 166 c 128,-1,143
 420 172 420 172 413.5 182.5 c 128,-1,144
 407 193 407 193 407 210 c 0,145,146
 407 244 407 244 430 257 c 128,-1,147
 453 270 453 270 488 273 c 1,0,1
374 986 m 1,148,149
 370 970 370 970 363 950 c 128,-1,150
 356 930 356 930 347 909 c 128,-1,151
 338 888 338 888 328 868.5 c 128,-1,152
 318 849 318 849 308 836 c 0,153,154
 306 833 306 833 300 833 c 128,-1,155
 294 833 294 833 294 837 c 0,156,157
 293 861 293 861 286.5 883.5 c 128,-1,158
 280 906 280 906 269.5 925.5 c 128,-1,159
 259 945 259 945 245.5 959.5 c 128,-1,160
 232 974 232 974 219 983 c 0,161,162
 213 987 213 987 214 996.5 c 128,-1,163
 215 1006 215 1006 222 1006 c 2,164,-1
 860 1006 l 2,165,166
 867 1006 867 1006 868 996.5 c 128,-1,167
 869 987 869 987 863 983 c 0,168,169
 849 974 849 974 836 959.5 c 128,-1,170
 823 945 823 945 812.5 925.5 c 128,-1,171
 802 906 802 906 795.5 883.5 c 128,-1,172
 789 861 789 861 788 837 c 0,173,174
 788 833 788 833 782 833 c 128,-1,175
 776 833 776 833 774 836 c 0,176,177
 764 849 764 849 754 868.5 c 128,-1,178
 744 888 744 888 735 909 c 128,-1,179
 726 930 726 930 719 950 c 128,-1,180
 712 970 712 970 708 986 c 1,181,-1
 601 986 l 1,182,-1
 601 820 l 1,183,-1
 481 820 l 1,184,-1
 481 986 l 1,185,-1
 374 986 l 1,148,149
EndSplineSet
Validated: 33
EndChar

StartChar: uni047C
Encoding: 1148 1148 104
Width: 947
Flags: W
HStem: -8 52<581.623 691.688> -8 32<264.564 361.887> 756 22<246.55 301.29 639.208 702.848> 1028 46<387.281 505.062>
VStem: 55 130<228.839 562.812> 341 113<582.313 688.496> 466 5<260.589 274.96> 487 49<796.002 882.46> 495 108<516.266 673.932> 762 130<207.318 550.974>
LayerCount: 2
Fore
SplineSet
301 -8 m 0,0,1
 235 -8 235 -8 188 31 c 128,-1,2
 141 70 141 70 111.5 131.5 c 128,-1,3
 82 193 82 193 68.5 267.5 c 128,-1,4
 55 342 55 342 55 414 c 0,5,6
 55 476 55 476 71 541 c 128,-1,7
 87 606 87 606 116 658.5 c 128,-1,8
 145 711 145 711 187 744.5 c 128,-1,9
 229 778 229 778 281 778 c 0,10,11
 314 778 314 778 344 765.5 c 128,-1,12
 374 753 374 753 397 732 c 128,-1,13
 420 711 420 711 435 683.5 c 128,-1,14
 450 656 450 656 453 626 c 0,15,16
 455 613 455 613 454 602.5 c 128,-1,17
 453 592 453 592 451 582 c 1,18,19
 416 565 416 565 383.5 544.5 c 128,-1,20
 351 524 351 524 328 506 c 0,21,22
 326 504 326 504 322.5 507 c 128,-1,23
 319 510 319 510 321 514 c 0,24,25
 328 532 328 532 332 546 c 128,-1,26
 336 560 336 560 338 573 c 128,-1,27
 340 586 340 586 340.5 599.5 c 128,-1,28
 341 613 341 613 341 630 c 0,29,30
 341 651 341 651 336.5 673.5 c 128,-1,31
 332 696 332 696 323 714.5 c 128,-1,32
 314 733 314 733 302 744.5 c 128,-1,33
 290 756 290 756 275 756 c 0,34,35
 258 756 258 756 241.5 741 c 128,-1,36
 225 726 225 726 212.5 697.5 c 128,-1,37
 200 669 200 669 192.5 629 c 128,-1,38
 185 589 185 589 185 538 c 2,39,-1
 185 256 l 2,40,41
 185 203 185 203 195 160 c 128,-1,42
 205 117 205 117 222 87 c 128,-1,43
 239 57 239 57 263 40.5 c 128,-1,44
 287 24 287 24 315 24 c 0,45,46
 347 24 347 24 374.5 50 c 128,-1,47
 402 76 402 76 422.5 114.5 c 128,-1,48
 443 153 443 153 454.5 196 c 128,-1,49
 466 239 466 239 466 273 c 1,50,51
 467 275 467 275 469 275 c 128,-1,52
 471 275 471 275 471 273 c 0,53,54
 475 246 475 246 490.5 206.5 c 128,-1,55
 506 167 506 167 528.5 131 c 128,-1,56
 551 95 551 95 577 69.5 c 128,-1,57
 603 44 603 44 629 44 c 0,58,59
 665 44 665 44 690.5 64.5 c 128,-1,60
 716 85 716 85 731.5 117.5 c 128,-1,61
 747 150 747 150 754.5 190.5 c 128,-1,62
 762 231 762 231 762 272 c 2,63,-1
 762 584 l 2,64,65
 762 620 762 620 754.5 651.5 c 128,-1,66
 747 683 747 683 734.5 706.5 c 128,-1,67
 722 730 722 730 704.5 744 c 128,-1,68
 687 758 687 758 667 758 c 0,69,70
 649 758 649 758 636.5 742 c 128,-1,71
 624 726 624 726 617 703 c 128,-1,72
 610 680 610 680 606.5 654.5 c 128,-1,73
 603 629 603 629 603 610 c 0,74,75
 602 578 602 578 611 549 c 128,-1,76
 620 520 620 520 636 500 c 0,77,78
 641 493 641 493 636 489 c 1,79,80
 627 484 627 484 613 474.5 c 128,-1,81
 599 465 599 465 584 454.5 c 128,-1,82
 569 444 569 444 555.5 433.5 c 128,-1,83
 542 423 542 423 533 414 c 0,84,85
 527 408 527 408 523 416 c 0,86,87
 512 440 512 440 503.5 479 c 128,-1,88
 495 518 495 518 495 560 c 0,89,90
 495 603 495 603 506 643 c 128,-1,91
 517 683 517 683 539 713.5 c 128,-1,92
 561 744 561 744 592.5 762 c 128,-1,93
 624 780 624 780 665 780 c 0,94,95
 715 780 715 780 757 747.5 c 128,-1,96
 799 715 799 715 829 659 c 128,-1,97
 859 603 859 603 875.5 528 c 128,-1,98
 892 453 892 453 892 368 c 0,99,100
 892 301 892 301 877 234 c 128,-1,101
 862 167 862 167 830 113 c 128,-1,102
 798 59 798 59 749 25.5 c 128,-1,103
 700 -8 700 -8 631 -8 c 0,104,105
 565 -8 565 -8 517 20 c 128,-1,106
 469 48 469 48 442 90 c 1,107,108
 419 47 419 47 384.5 19.5 c 128,-1,109
 350 -8 350 -8 301 -8 c 0,0,1
151 872 m 0,110,111
 161 897 161 897 179 923.5 c 128,-1,112
 197 950 197 950 211 964 c 0,113,114
 220 973 220 973 229.5 981.5 c 128,-1,115
 239 990 239 990 254 996 c 0,116,117
 295 1013 295 1013 330 1028 c 128,-1,118
 365 1043 365 1043 408 1061 c 0,119,120
 423 1067 423 1067 439.5 1071 c 128,-1,121
 456 1075 456 1075 471 1074 c 0,122,123
 506 1072 506 1072 542 1054.5 c 128,-1,124
 578 1037 578 1037 619 1009 c 0,125,126
 637 997 637 997 652 983 c 128,-1,127
 667 969 667 969 682 955 c 128,-1,128
 697 941 697 941 712.5 926.5 c 128,-1,129
 728 912 728 912 745 899 c 0,130,131
 760 888 760 888 775.5 880.5 c 128,-1,132
 791 873 791 873 807 866 c 0,133,134
 814 863 814 863 809.5 854 c 128,-1,135
 805 845 805 845 798 843 c 0,136,137
 781 840 781 840 763 840 c 0,138,139
 738 840 738 840 721 844 c 1,140,141
 692 858 692 858 667.5 871 c 128,-1,142
 643 884 643 884 620 907 c 256,143,144
 597 930 597 930 578.5 950.5 c 128,-1,145
 560 971 560 971 539 985 c 0,146,147
 523 996 523 996 509 1004 c 128,-1,148
 495 1012 495 1012 481 1017.5 c 128,-1,149
 467 1023 467 1023 451 1025.5 c 128,-1,150
 435 1028 435 1028 416 1028 c 0,151,152
 385 1028 385 1028 354.5 1008.5 c 128,-1,153
 324 989 324 989 302 969 c 0,154,155
 291 959 291 959 283 945 c 128,-1,156
 275 931 275 931 270 916.5 c 128,-1,157
 265 902 265 902 261.5 889 c 128,-1,158
 258 876 258 876 256 867 c 1,159,-1
 155 867 l 2,160,161
 153 867 153 867 151.5 868.5 c 128,-1,162
 150 870 150 870 151 872 c 0,110,111
450 762 m 0,163,164
 458 768 458 768 466.5 780.5 c 128,-1,165
 475 793 475 793 481 807 c 0,166,167
 487 820 487 820 487 836 c 0,168,169
 487 851 487 851 481.5 864 c 128,-1,170
 476 877 476 877 466 882 c 0,171,172
 457 887 457 887 446 888 c 128,-1,173
 435 889 435 889 423.5 887 c 128,-1,174
 412 885 412 885 402.5 879.5 c 128,-1,175
 393 874 393 874 387 866 c 0,176,177
 380 856 380 856 377 846.5 c 128,-1,178
 374 837 374 837 369 825 c 0,179,180
 367 820 367 820 360 820 c 128,-1,181
 353 820 353 820 351 825 c 0,182,183
 345 841 345 841 349 863 c 128,-1,184
 353 885 353 885 365.5 905.5 c 128,-1,185
 378 926 378 926 398.5 940.5 c 128,-1,186
 419 955 419 955 445 957 c 0,187,188
 483 960 483 960 510 936 c 128,-1,189
 537 912 537 912 536 868 c 0,190,191
 535 827 535 827 513.5 795 c 128,-1,192
 492 763 492 763 461 747 c 0,193,194
 456 745 456 745 451 752 c 128,-1,195
 446 759 446 759 450 762 c 0,163,164
EndSplineSet
Validated: 33
EndChar

StartChar: uni0478
Encoding: 1144 1144 105
Width: 1103
Flags: W
HStem: -9 21G<707.5 727> 326 117<952.655 1030.55 1030.55 1053.69> 753 25<295.002 355>
VStem: 55 126<314.921 537.4> 222 24<16 77.0013> 355 25<673.408 753> 410 124<240.193 475.242> 840 59<-367.071 4 28 63.2175>
LayerCount: 2
Fore
SplineSet
374 57 m 0,0,1
 359 44 359 44 341 32.5 c 128,-1,2
 323 21 323 21 300 10 c 0,3,4
 282 2 282 2 267 -2 c 128,-1,5
 252 -6 252 -6 235 -8 c 0,6,7
 230 -9 230 -9 226 -5.5 c 128,-1,8
 222 -2 222 -2 222 2 c 2,9,-1
 222 30 l 2,10,11
 222 44 222 44 215 64 c 128,-1,12
 208 84 208 84 197.5 105 c 128,-1,13
 187 126 187 126 174.5 146.5 c 128,-1,14
 162 167 162 167 152 182 c 0,15,16
 135 207 135 207 118 233.5 c 128,-1,17
 101 260 101 260 87 290.5 c 128,-1,18
 73 321 73 321 64 356 c 128,-1,19
 55 391 55 391 55 432 c 0,20,21
 55 480 55 480 72 525 c 128,-1,22
 89 570 89 570 114 607.5 c 128,-1,23
 139 645 139 645 166 673.5 c 128,-1,24
 193 702 193 702 213 718 c 0,25,26
 243 743 243 743 280.5 760.5 c 128,-1,27
 318 778 318 778 368 778 c 0,28,29
 373 778 373 778 376.5 775 c 128,-1,30
 380 772 380 772 380 768 c 2,31,-1
 380 727 l 2,32,33
 380 703 380 703 389 681 c 128,-1,34
 398 659 398 659 412 636 c 128,-1,35
 426 613 426 613 443 589.5 c 128,-1,36
 460 566 460 566 477 539 c 0,37,38
 491 516 491 516 502 496 c 128,-1,39
 513 476 513 476 520 455.5 c 128,-1,40
 527 435 527 435 530.5 412 c 128,-1,41
 534 389 534 389 534 360 c 0,42,43
 534 306 534 306 519.5 260.5 c 128,-1,44
 505 215 505 215 482 177.5 c 128,-1,45
 459 140 459 140 430.5 110 c 128,-1,46
 402 80 402 80 374 57 c 0,0,1
410 315 m 0,47,48
 410 349 410 349 408 377 c 128,-1,49
 406 405 406 405 402 430.5 c 128,-1,50
 398 456 398 456 391.5 482 c 128,-1,51
 385 508 385 508 377 538 c 0,52,53
 365 582 365 582 360 620 c 128,-1,54
 355 658 355 658 355 695 c 2,55,-1
 355 753 l 1,56,57
 324 753 324 753 296.5 741.5 c 128,-1,58
 269 730 269 730 243 707 c 0,59,60
 230 695 230 695 219 665.5 c 128,-1,61
 208 636 208 636 199.5 597 c 128,-1,62
 191 558 191 558 186 514.5 c 128,-1,63
 181 471 181 471 181 431 c 0,64,65
 181 390 181 390 184 349.5 c 128,-1,66
 187 309 187 309 192.5 272.5 c 128,-1,67
 198 236 198 236 206 205.5 c 128,-1,68
 214 175 214 175 223 153 c 0,69,70
 228 142 228 142 232 126.5 c 128,-1,71
 236 111 236 111 239 95 c 128,-1,72
 242 79 242 79 244 64.5 c 128,-1,73
 246 50 246 50 246 40 c 2,74,-1
 246 16 l 1,75,76
 259 16 259 16 268.5 20 c 128,-1,77
 278 24 278 24 292 32 c 0,78,79
 309 41 309 41 323.5 51 c 128,-1,80
 338 61 338 61 350 71 c 1,81,82
 380 111 380 111 395 177 c 128,-1,83
 410 243 410 243 410 315 c 0,47,48
809 -442 m 0,84,85
 819 -429 819 -429 822.5 -413 c 128,-1,86
 826 -397 826 -397 829 -375 c 0,87,88
 831 -360 831 -360 833 -340 c 128,-1,89
 835 -320 835 -320 836.5 -298 c 128,-1,90
 838 -276 838 -276 839 -253.5 c 128,-1,91
 840 -231 840 -231 840 -211 c 2,92,-1
 840 -114 l 2,93,94
 840 -85 840 -85 840 -55 c 128,-1,95
 840 -25 840 -25 841 4 c 1,96,97
 811 2 811 2 777 -1.5 c 128,-1,98
 743 -5 743 -5 711 -9 c 1,99,100
 704 25 704 25 693 78.5 c 128,-1,101
 682 132 682 132 667.5 192 c 128,-1,102
 653 252 653 252 634.5 313 c 128,-1,103
 616 374 616 374 594 424 c 0,104,105
 592 428 592 428 593 430.5 c 128,-1,106
 594 433 594 433 596 437 c 1,107,108
 612 440 612 440 639 440 c 0,109,110
 657 440 657 440 676 439 c 128,-1,111
 695 438 695 438 711 436 c 1,112,113
 720 412 720 412 731.5 376.5 c 128,-1,114
 743 341 743 341 754.5 300.5 c 128,-1,115
 766 260 766 260 777 217.5 c 128,-1,116
 788 175 788 175 797 138 c 128,-1,117
 806 101 806 101 812 72 c 128,-1,118
 818 43 818 43 820 29 c 1,119,120
 826 29 826 29 831.5 28.5 c 128,-1,121
 837 28 837 28 843 28 c 1,122,123
 846 78 846 78 849.5 120 c 128,-1,124
 853 162 853 162 862 214 c 0,125,126
 865 233 865 233 870 256 c 128,-1,127
 875 279 875 279 881 301 c 128,-1,128
 887 323 887 323 893 342 c 128,-1,129
 899 361 899 361 905 373 c 0,130,131
 920 405 920 405 942.5 423.5 c 128,-1,132
 965 442 965 442 994 443 c 2,133,-1
 1024 443 l 2,134,135
 1038 443 1038 443 1052 442.5 c 128,-1,136
 1066 442 1066 442 1074 439 c 0,137,138
 1077 438 1077 438 1078 435 c 128,-1,139
 1079 432 1079 432 1077 429 c 0,140,141
 1070 421 1070 421 1064 407 c 128,-1,142
 1058 393 1058 393 1056 379 c 0,143,144
 1053 361 1053 361 1054 351.5 c 128,-1,145
 1055 342 1055 342 1057 329 c 0,146,147
 1057 327 1057 327 1055 325 c 128,-1,148
 1053 323 1053 323 1051 323 c 0,149,150
 1043 324 1043 324 1032 325 c 128,-1,151
 1021 326 1021 326 1010 326 c 0,152,153
 997 326 997 326 984.5 323.5 c 128,-1,154
 972 321 972 321 962 316 c 0,155,156
 958 314 958 314 951.5 303 c 128,-1,157
 945 292 945 292 938 277 c 128,-1,158
 931 262 931 262 925.5 244.5 c 128,-1,159
 920 227 920 227 917 212 c 0,160,161
 914 183 914 183 912 159 c 128,-1,162
 910 135 910 135 908.5 112 c 128,-1,163
 907 89 907 89 906 64 c 128,-1,164
 905 39 905 39 904 9 c 0,165,166
 902 -24 902 -24 901.5 -48.5 c 128,-1,167
 901 -73 901 -73 900.5 -95.5 c 128,-1,168
 900 -118 900 -118 899 -142 c 128,-1,169
 898 -166 898 -166 896 -199 c 0,170,171
 892 -253 892 -253 887.5 -305.5 c 128,-1,172
 883 -358 883 -358 868 -404 c 0,173,174
 862 -422 862 -422 850.5 -436 c 128,-1,175
 839 -450 839 -450 822 -458 c 0,176,177
 815 -461 815 -461 806.5 -458.5 c 128,-1,178
 798 -456 798 -456 809 -442 c 0,84,85
EndSplineSet
Validated: 33
EndChar

StartChar: afii10148
Encoding: 1140 1140 106
Width: 678
Flags: W
HStem: 0 24<270.333 376.333 400.333 467.333> 750 20G<41.333 204.333>
VStem: 161.333 109<24 411.893>
LayerCount: 2
Fore
SplineSet
161.333 0 m 1,0,1
 161.333 83 161.333 83 157.833 186 c 128,-1,2
 154.333 289 154.333 289 141.833 393.5 c 128,-1,3
 129.333 498 129.333 498 104.833 594 c 128,-1,4
 80.333 690 80.333 690 39.333 758 c 0,5,6
 37.333 761 37.333 761 38.333 765.5 c 128,-1,7
 39.333 770 39.333 770 43.333 770 c 2,8,-1
 196.333 770 l 1,9,10
 212.333 730 212.333 730 224.333 674 c 128,-1,11
 236.333 618 236.333 618 244.333 553.5 c 128,-1,12
 252.333 489 252.333 489 257.333 418.5 c 128,-1,13
 262.333 348 262.333 348 265.333 278.5 c 128,-1,14
 268.333 209 268.333 209 269.333 143.5 c 128,-1,15
 270.333 78 270.333 78 270.333 24 c 1,16,-1
 376.333 24 l 1,17,-1
 404.333 472 l 2,18,19
 407.333 520 407.333 520 412.833 556.5 c 128,-1,20
 418.333 593 418.333 593 426.333 620 c 128,-1,21
 434.333 647 434.333 647 444.333 666.5 c 128,-1,22
 454.333 686 454.333 686 465.333 701 c 0,23,24
 479.333 721 479.333 721 505.333 741 c 128,-1,25
 531.333 761 531.333 761 562.333 770 c 0,26,27
 582.333 776 582.333 776 598.833 777.5 c 128,-1,28
 615.333 779 615.333 779 636.333 782 c 0,29,30
 644.333 783 644.333 783 647.833 782 c 128,-1,31
 651.333 781 651.333 781 648.333 771 c 0,32,33
 642.333 750 642.333 750 638.333 730 c 128,-1,34
 634.333 710 634.333 710 634.333 686 c 0,35,36
 634.333 663 634.333 663 640.333 635.5 c 128,-1,37
 646.333 608 646.333 608 651.333 591 c 0,38,39
 652.333 589 652.333 589 649.333 587.5 c 128,-1,40
 646.333 586 646.333 586 644.333 588 c 0,41,42
 621.333 616 621.333 616 593.333 631.5 c 128,-1,43
 565.333 647 565.333 647 533.333 646 c 0,44,45
 482.333 645 482.333 645 457.833 601 c 128,-1,46
 433.333 557 433.333 557 428.333 470 c 2,47,-1
 400.333 24 l 1,48,-1
 467.333 24 l 1,49,-1
 467.333 0 l 1,50,-1
 161.333 0 l 1,0,1
EndSplineSet
Validated: 33
EndChar

StartChar: uni0460
Encoding: 1120 1120 107
Width: 938
Flags: W
HStem: 750 20G<117 255 434.5 577.5 689 821>
VStem: 55 126<273.701 608.429> 361 146<294.65 606.433> 763 120<309.655 604.75>
LayerCount: 2
Fore
SplineSet
575 770 m 2,0,1
 580 770 580 770 582.5 765 c 128,-1,2
 585 760 585 760 583 756 c 0,3,4
 548 688 548 688 527.5 601 c 128,-1,5
 507 514 507 514 507 390 c 0,6,7
 507 305 507 305 523.5 235 c 128,-1,8
 540 165 540 165 575 115 c 0,9,10
 593 89 593 89 619 70 c 128,-1,11
 645 51 645 51 662 45 c 1,12,13
 679 58 679 58 696.5 80 c 128,-1,14
 714 102 714 102 722 125 c 0,15,16
 762 236 762 236 763 384 c 0,17,18
 764 440 764 440 757.5 499.5 c 128,-1,19
 751 559 751 559 740 610.5 c 128,-1,20
 729 662 729 662 714.5 701.5 c 128,-1,21
 700 741 700 741 685 758 c 0,22,23
 683 761 683 761 685 765.5 c 128,-1,24
 687 770 687 770 691 770 c 2,25,-1
 811 770 l 1,26,27
 831 750 831 750 845 717.5 c 128,-1,28
 859 685 859 685 867.5 645.5 c 128,-1,29
 876 606 876 606 879.5 561.5 c 128,-1,30
 883 517 883 517 883 472 c 0,31,32
 883 394 883 394 864.5 321 c 128,-1,33
 846 248 846 248 813 185 c 128,-1,34
 780 122 780 122 734.5 71.5 c 128,-1,35
 689 21 689 21 636 -12 c 0,36,37
 633 -14 633 -14 626.5 -14 c 128,-1,38
 620 -14 620 -14 617 -12 c 0,39,40
 560 18 560 18 518.5 59 c 128,-1,41
 477 100 477 100 445 151 c 1,42,43
 425 133 425 133 398.5 108 c 128,-1,44
 372 83 372 83 345.5 59.5 c 128,-1,45
 319 36 319 36 297.5 16.5 c 128,-1,46
 276 -3 276 -3 267 -10 c 0,47,48
 258 -19 258 -19 250 -10 c 0,49,50
 146 80 146 80 100.5 198.5 c 128,-1,51
 55 317 55 317 55 450 c 0,52,53
 55 498 55 498 60 545 c 128,-1,54
 65 592 65 592 74 633.5 c 128,-1,55
 83 675 83 675 96 710 c 128,-1,56
 109 745 109 745 125 770 c 1,57,-1
 253 770 l 2,58,59
 257 770 257 770 259 765.5 c 128,-1,60
 261 761 261 761 259 758 c 0,61,62
 224 691 224 691 203 608.5 c 128,-1,63
 182 526 182 526 181 426 c 0,64,65
 181 368 181 368 188.5 311.5 c 128,-1,66
 196 255 196 255 210.5 205 c 128,-1,67
 225 155 225 155 246 114 c 128,-1,68
 267 73 267 73 293 46 c 1,69,70
 302 54 302 54 318.5 69 c 128,-1,71
 335 84 335 84 354.5 102 c 128,-1,72
 374 120 374 120 394.5 139 c 128,-1,73
 415 158 415 158 431 174 c 1,74,75
 394 239 394 239 377.5 316.5 c 128,-1,76
 361 394 361 394 361 480 c 0,77,78
 361 525 361 525 367.5 569 c 128,-1,79
 374 613 374 613 385 651.5 c 128,-1,80
 396 690 396 690 411 720.5 c 128,-1,81
 426 751 426 751 443 770 c 1,82,-1
 575 770 l 2,0,1
EndSplineSet
Validated: 33
EndChar

